G04 Layer_Color=32896*
%FSLAX25Y25*%
%MOIN*%
G70*
G01*
G75*
%ADD33C,0.00500*%
%ADD34C,0.01000*%
%ADD55C,0.01200*%
D33*
X340551Y654331D02*
Y705512D01*
X309055Y654331D02*
Y705512D01*
D34*
X329584Y461165D02*
X330263Y461939D01*
X330835Y462795D01*
X331290Y463719D01*
X331622Y464694D01*
X331822Y465704D01*
X331890Y466732D01*
X331822Y467760D01*
X331622Y468770D01*
X331290Y469745D01*
X330835Y470669D01*
X330263Y471526D01*
X329584Y472300D01*
X318448D02*
X317805Y471573D01*
X317257Y470772D01*
X316811Y469910D01*
X316475Y468999D01*
X316253Y468054D01*
X316150Y467089D01*
X316166Y466119D01*
X316301Y465157D01*
X316553Y464220D01*
X316919Y463321D01*
X317392Y462474D01*
X317967Y461691D01*
X329584Y485574D02*
X330263Y486348D01*
X330835Y487205D01*
X331290Y488128D01*
X331622Y489104D01*
X331822Y490114D01*
X331890Y491142D01*
X331822Y492169D01*
X331622Y493180D01*
X331290Y494155D01*
X330835Y495079D01*
X330263Y495935D01*
X329584Y496709D01*
X318448D02*
X317805Y495982D01*
X317257Y495181D01*
X316811Y494319D01*
X316475Y493408D01*
X316253Y492463D01*
X316150Y491499D01*
X316166Y490528D01*
X316301Y489567D01*
X316553Y488630D01*
X316919Y487731D01*
X317392Y486883D01*
X317967Y486101D01*
X307087Y718504D02*
Y721260D01*
Y718504D02*
X307480Y718110D01*
X319094D01*
X307087Y721260D02*
Y764567D01*
X342520Y718110D02*
Y721260D01*
X342520Y754724D02*
Y764567D01*
X342520Y721260D02*
Y742913D01*
X307087Y764567D02*
X342520D01*
X319094Y718110D02*
X342520D01*
X289308Y758754D02*
X291308D01*
X290308D01*
Y753756D01*
X291308Y752756D01*
X292307D01*
X293307Y753756D01*
X287309Y752756D02*
X285310D01*
X286309D01*
Y758754D01*
X287309Y757754D01*
X349545Y705392D02*
X350544Y706392D01*
X352544D01*
X353543Y705392D01*
Y704392D01*
X352544Y703393D01*
X350544D01*
X349545Y702393D01*
Y701393D01*
X350544Y700394D01*
X352544D01*
X353543Y701393D01*
X347545Y700394D02*
X345546D01*
X346546D01*
Y706392D01*
X347545Y705392D01*
X312205Y509935D02*
Y503937D01*
X309206D01*
X308206Y504937D01*
Y508935D01*
X309206Y509935D01*
X312205D01*
X302208D02*
X306207D01*
Y506936D01*
X304207Y507936D01*
X303208D01*
X302208Y506936D01*
Y504937D01*
X303208Y503937D01*
X305207D01*
X306207Y504937D01*
X308268Y465840D02*
Y459842D01*
X305269D01*
X304269Y460842D01*
Y464841D01*
X305269Y465840D01*
X308268D01*
X298271D02*
X300270Y464841D01*
X302270Y462842D01*
Y460842D01*
X301270Y459842D01*
X299271D01*
X298271Y460842D01*
Y461842D01*
X299271Y462842D01*
X302270D01*
X323970Y480512D02*
Y476513D01*
X321970Y478512D02*
X325969D01*
X323970Y504921D02*
Y500922D01*
X321970Y502922D02*
X325969D01*
D55*
X325800Y650492D02*
X325247Y651253D01*
X324353Y650962D01*
Y650022D01*
X325247Y649731D01*
X325800Y650492D01*
M02*
