G04 Layer_Physical_Order=2*
G04 Layer_Color=16711680*
%FSLAX25Y25*%
%MOIN*%
G70*
G01*
G75*
%ADD13C,0.03937*%
%ADD14C,0.01575*%
G04:AMPARAMS|DCode=15|XSize=157.48mil|YSize=157.48mil|CornerRadius=39.37mil|HoleSize=0mil|Usage=FLASHONLY|Rotation=0.000|XOffset=0mil|YOffset=0mil|HoleType=Round|Shape=RoundedRectangle|*
%AMROUNDEDRECTD15*
21,1,0.15748,0.07874,0,0,0.0*
21,1,0.07874,0.15748,0,0,0.0*
1,1,0.07874,0.03937,-0.03937*
1,1,0.07874,-0.03937,-0.03937*
1,1,0.07874,-0.03937,0.03937*
1,1,0.07874,0.03937,0.03937*
%
%ADD15ROUNDEDRECTD15*%
G04:AMPARAMS|DCode=16|XSize=129.92mil|YSize=129.92mil|CornerRadius=32.48mil|HoleSize=0mil|Usage=FLASHONLY|Rotation=0.000|XOffset=0mil|YOffset=0mil|HoleType=Round|Shape=RoundedRectangle|*
%AMROUNDEDRECTD16*
21,1,0.12992,0.06496,0,0,0.0*
21,1,0.06496,0.12992,0,0,0.0*
1,1,0.06496,0.03248,-0.03248*
1,1,0.06496,-0.03248,-0.03248*
1,1,0.06496,-0.03248,0.03248*
1,1,0.06496,0.03248,0.03248*
%
%ADD16ROUNDEDRECTD16*%
G04:AMPARAMS|DCode=17|XSize=110.24mil|YSize=110.24mil|CornerRadius=27.56mil|HoleSize=0mil|Usage=FLASHONLY|Rotation=0.000|XOffset=0mil|YOffset=0mil|HoleType=Round|Shape=RoundedRectangle|*
%AMROUNDEDRECTD17*
21,1,0.11024,0.05512,0,0,0.0*
21,1,0.05512,0.11024,0,0,0.0*
1,1,0.05512,0.02756,-0.02756*
1,1,0.05512,-0.02756,-0.02756*
1,1,0.05512,-0.02756,0.02756*
1,1,0.05512,0.02756,0.02756*
%
%ADD17ROUNDEDRECTD17*%
%ADD18C,0.07087*%
%ADD19C,0.05906*%
%ADD20R,0.07874X0.07874*%
%ADD21C,0.07874*%
%ADD22R,0.05906X0.05906*%
%ADD23R,0.05906X0.05906*%
%ADD24C,0.11811*%
%ADD25R,0.11024X0.11024*%
%ADD26C,0.06299*%
%ADD27R,0.07874X0.07874*%
%ADD28C,0.04724*%
%ADD29C,0.13780*%
G36*
X437571Y304555D02*
X210066D01*
Y770249D01*
X437571D01*
Y304555D01*
D02*
G37*
%LPC*%
G36*
X318398Y393043D02*
X314381D01*
X314471Y392357D01*
X314929Y391252D01*
X315657Y390303D01*
X316606Y389575D01*
X317712Y389117D01*
X318398Y389027D01*
Y393043D01*
D02*
G37*
G36*
X288631D02*
X284614D01*
Y389027D01*
X285300Y389117D01*
X286405Y389575D01*
X287354Y390303D01*
X288083Y391252D01*
X288541Y392357D01*
X288631Y393043D01*
D02*
G37*
G36*
X283614D02*
X279597D01*
X279688Y392357D01*
X280146Y391252D01*
X280874Y390303D01*
X281823Y389575D01*
X282928Y389117D01*
X283614Y389027D01*
Y393043D01*
D02*
G37*
G36*
X333414D02*
X329398D01*
Y389027D01*
X330084Y389117D01*
X331189Y389575D01*
X332138Y390303D01*
X332866Y391252D01*
X333324Y392357D01*
X333414Y393043D01*
D02*
G37*
G36*
X328398D02*
X324381D01*
X324471Y392357D01*
X324929Y391252D01*
X325657Y390303D01*
X326606Y389575D01*
X327712Y389117D01*
X328398Y389027D01*
Y393043D01*
D02*
G37*
G36*
X323414D02*
X319398D01*
Y389027D01*
X320084Y389117D01*
X321189Y389575D01*
X322138Y390303D01*
X322866Y391252D01*
X323324Y392357D01*
X323414Y393043D01*
D02*
G37*
G36*
X278631D02*
X274614D01*
Y389027D01*
X275300Y389117D01*
X276405Y389575D01*
X277355Y390303D01*
X278083Y391252D01*
X278540Y392357D01*
X278631Y393043D01*
D02*
G37*
G36*
X233847D02*
X229831D01*
Y389027D01*
X230517Y389117D01*
X231622Y389575D01*
X232571Y390303D01*
X233299Y391252D01*
X233757Y392357D01*
X233847Y393043D01*
D02*
G37*
G36*
X228831D02*
X224814D01*
X224904Y392357D01*
X225362Y391252D01*
X226090Y390303D01*
X227040Y389575D01*
X228145Y389117D01*
X228831Y389027D01*
Y393043D01*
D02*
G37*
G36*
X418964Y388060D02*
Y384043D01*
X422981D01*
X422891Y384729D01*
X422433Y385835D01*
X421705Y386784D01*
X420756Y387512D01*
X419651Y387970D01*
X418964Y388060D01*
D02*
G37*
G36*
X273614Y393043D02*
X269598D01*
X269688Y392357D01*
X270146Y391252D01*
X270874Y390303D01*
X271823Y389575D01*
X272928Y389117D01*
X273614Y389027D01*
Y393043D01*
D02*
G37*
G36*
X243847D02*
X239831D01*
Y389027D01*
X240517Y389117D01*
X241622Y389575D01*
X242571Y390303D01*
X243299Y391252D01*
X243757Y392357D01*
X243847Y393043D01*
D02*
G37*
G36*
X238831D02*
X234814D01*
X234904Y392357D01*
X235362Y391252D01*
X236090Y390303D01*
X237039Y389575D01*
X238145Y389117D01*
X238831Y389027D01*
Y393043D01*
D02*
G37*
G36*
X363181D02*
X359164D01*
X359255Y392357D01*
X359713Y391252D01*
X360441Y390303D01*
X361390Y389575D01*
X362495Y389117D01*
X363181Y389027D01*
Y393043D01*
D02*
G37*
G36*
X238831Y398060D02*
X238145Y397970D01*
X237039Y397512D01*
X236090Y396784D01*
X235362Y395835D01*
X234904Y394729D01*
X234814Y394043D01*
X238831D01*
Y398060D01*
D02*
G37*
G36*
X229831D02*
Y394043D01*
X233847D01*
X233757Y394729D01*
X233299Y395835D01*
X232571Y396784D01*
X231622Y397512D01*
X230517Y397970D01*
X229831Y398060D01*
D02*
G37*
G36*
X228831D02*
X228145Y397970D01*
X227040Y397512D01*
X226090Y396784D01*
X225362Y395835D01*
X224904Y394729D01*
X224814Y394043D01*
X228831D01*
Y398060D01*
D02*
G37*
G36*
X274614D02*
Y394043D01*
X278631D01*
X278540Y394729D01*
X278083Y395835D01*
X277355Y396784D01*
X276405Y397512D01*
X275300Y397970D01*
X274614Y398060D01*
D02*
G37*
G36*
X273614D02*
X272928Y397970D01*
X271823Y397512D01*
X270874Y396784D01*
X270146Y395835D01*
X269688Y394729D01*
X269598Y394043D01*
X273614D01*
Y398060D01*
D02*
G37*
G36*
X239831D02*
Y394043D01*
X243847D01*
X243757Y394729D01*
X243299Y395835D01*
X242571Y396784D01*
X241622Y397512D01*
X240517Y397970D01*
X239831Y398060D01*
D02*
G37*
G36*
X422981Y393043D02*
X418964D01*
Y389027D01*
X419651Y389117D01*
X420756Y389575D01*
X421705Y390303D01*
X422433Y391252D01*
X422891Y392357D01*
X422981Y393043D01*
D02*
G37*
G36*
X378198D02*
X374181D01*
Y389027D01*
X374867Y389117D01*
X375972Y389575D01*
X376921Y390303D01*
X377650Y391252D01*
X378108Y392357D01*
X378198Y393043D01*
D02*
G37*
G36*
X373181D02*
X369164D01*
X369255Y392357D01*
X369712Y391252D01*
X370441Y390303D01*
X371390Y389575D01*
X372495Y389117D01*
X373181Y389027D01*
Y393043D01*
D02*
G37*
G36*
X368198D02*
X364181D01*
Y389027D01*
X364867Y389117D01*
X365972Y389575D01*
X366921Y390303D01*
X367650Y391252D01*
X368108Y392357D01*
X368198Y393043D01*
D02*
G37*
G36*
X417965D02*
X413948D01*
X414038Y392357D01*
X414496Y391252D01*
X415224Y390303D01*
X416173Y389575D01*
X417278Y389117D01*
X417965Y389027D01*
Y393043D01*
D02*
G37*
G36*
X412981D02*
X408965D01*
Y389027D01*
X409651Y389117D01*
X410756Y389575D01*
X411705Y390303D01*
X412433Y391252D01*
X412891Y392357D01*
X412981Y393043D01*
D02*
G37*
G36*
X407965D02*
X403948D01*
X404038Y392357D01*
X404496Y391252D01*
X405224Y390303D01*
X406173Y389575D01*
X407278Y389117D01*
X407965Y389027D01*
Y393043D01*
D02*
G37*
G36*
X229831Y388060D02*
Y384043D01*
X233847D01*
X233757Y384729D01*
X233299Y385835D01*
X232571Y386784D01*
X231622Y387512D01*
X230517Y387970D01*
X229831Y388060D01*
D02*
G37*
G36*
X228831D02*
X228145Y387970D01*
X227040Y387512D01*
X226090Y386784D01*
X225362Y385835D01*
X224904Y384729D01*
X224814Y384043D01*
X228831D01*
Y388060D01*
D02*
G37*
G36*
X422981Y383043D02*
X418964D01*
Y379027D01*
X419651Y379117D01*
X420756Y379575D01*
X421705Y380303D01*
X422433Y381252D01*
X422891Y382357D01*
X422981Y383043D01*
D02*
G37*
G36*
X273614Y388060D02*
X272928Y387970D01*
X271823Y387512D01*
X270874Y386784D01*
X270146Y385835D01*
X269688Y384729D01*
X269598Y384043D01*
X273614D01*
Y388060D01*
D02*
G37*
G36*
X239831D02*
Y384043D01*
X243847D01*
X243757Y384729D01*
X243299Y385835D01*
X242571Y386784D01*
X241622Y387512D01*
X240517Y387970D01*
X239831Y388060D01*
D02*
G37*
G36*
X238831D02*
X238145Y387970D01*
X237039Y387512D01*
X236090Y386784D01*
X235362Y385835D01*
X234904Y384729D01*
X234814Y384043D01*
X238831D01*
Y388060D01*
D02*
G37*
G36*
X417965Y383043D02*
X413948D01*
X414038Y382357D01*
X414496Y381252D01*
X415224Y380303D01*
X416173Y379575D01*
X417278Y379117D01*
X417965Y379027D01*
Y383043D01*
D02*
G37*
G36*
X373181D02*
X369164D01*
X369255Y382357D01*
X369712Y381252D01*
X370441Y380303D01*
X371390Y379575D01*
X372495Y379117D01*
X373181Y379027D01*
Y383043D01*
D02*
G37*
G36*
X368198D02*
X364181D01*
Y379027D01*
X364867Y379117D01*
X365972Y379575D01*
X366921Y380303D01*
X367650Y381252D01*
X368108Y382357D01*
X368198Y383043D01*
D02*
G37*
G36*
X363181D02*
X359164D01*
X359255Y382357D01*
X359713Y381252D01*
X360441Y380303D01*
X361390Y379575D01*
X362495Y379117D01*
X363181Y379027D01*
Y383043D01*
D02*
G37*
G36*
X412981D02*
X408965D01*
Y379027D01*
X409651Y379117D01*
X410756Y379575D01*
X411705Y380303D01*
X412433Y381252D01*
X412891Y382357D01*
X412981Y383043D01*
D02*
G37*
G36*
X407965D02*
X403948D01*
X404038Y382357D01*
X404496Y381252D01*
X405224Y380303D01*
X406173Y379575D01*
X407278Y379117D01*
X407965Y379027D01*
Y383043D01*
D02*
G37*
G36*
X378198D02*
X374181D01*
Y379027D01*
X374867Y379117D01*
X375972Y379575D01*
X376921Y380303D01*
X377650Y381252D01*
X378108Y382357D01*
X378198Y383043D01*
D02*
G37*
G36*
X274614Y388060D02*
Y384043D01*
X278631D01*
X278540Y384729D01*
X278083Y385835D01*
X277355Y386784D01*
X276405Y387512D01*
X275300Y387970D01*
X274614Y388060D01*
D02*
G37*
G36*
X374181D02*
Y384043D01*
X378198D01*
X378108Y384729D01*
X377650Y385835D01*
X376921Y386784D01*
X375972Y387512D01*
X374867Y387970D01*
X374181Y388060D01*
D02*
G37*
G36*
X373181D02*
X372495Y387970D01*
X371390Y387512D01*
X370441Y386784D01*
X369712Y385835D01*
X369255Y384729D01*
X369164Y384043D01*
X373181D01*
Y388060D01*
D02*
G37*
G36*
X364181D02*
Y384043D01*
X368198D01*
X368108Y384729D01*
X367650Y385835D01*
X366921Y386784D01*
X365972Y387512D01*
X364867Y387970D01*
X364181Y388060D01*
D02*
G37*
G36*
X417965D02*
X417278Y387970D01*
X416173Y387512D01*
X415224Y386784D01*
X414496Y385835D01*
X414038Y384729D01*
X413948Y384043D01*
X417965D01*
Y388060D01*
D02*
G37*
G36*
X408965D02*
Y384043D01*
X412981D01*
X412891Y384729D01*
X412433Y385835D01*
X411705Y386784D01*
X410756Y387512D01*
X409651Y387970D01*
X408965Y388060D01*
D02*
G37*
G36*
X407965D02*
X407278Y387970D01*
X406173Y387512D01*
X405224Y386784D01*
X404496Y385835D01*
X404038Y384729D01*
X403948Y384043D01*
X407965D01*
Y388060D01*
D02*
G37*
G36*
X363181D02*
X362495Y387970D01*
X361390Y387512D01*
X360441Y386784D01*
X359713Y385835D01*
X359255Y384729D01*
X359164Y384043D01*
X363181D01*
Y388060D01*
D02*
G37*
G36*
X318398D02*
X317712Y387970D01*
X316606Y387512D01*
X315657Y386784D01*
X314929Y385835D01*
X314471Y384729D01*
X314381Y384043D01*
X318398D01*
Y388060D01*
D02*
G37*
G36*
X284614D02*
Y384043D01*
X288631D01*
X288541Y384729D01*
X288083Y385835D01*
X287354Y386784D01*
X286405Y387512D01*
X285300Y387970D01*
X284614Y388060D01*
D02*
G37*
G36*
X283614D02*
X282928Y387970D01*
X281823Y387512D01*
X280874Y386784D01*
X280146Y385835D01*
X279688Y384729D01*
X279597Y384043D01*
X283614D01*
Y388060D01*
D02*
G37*
G36*
X329398D02*
Y384043D01*
X333414D01*
X333324Y384729D01*
X332866Y385835D01*
X332138Y386784D01*
X331189Y387512D01*
X330084Y387970D01*
X329398Y388060D01*
D02*
G37*
G36*
X328398D02*
X327712Y387970D01*
X326606Y387512D01*
X325657Y386784D01*
X324929Y385835D01*
X324471Y384729D01*
X324381Y384043D01*
X328398D01*
Y388060D01*
D02*
G37*
G36*
X319398D02*
Y384043D01*
X323414D01*
X323324Y384729D01*
X322866Y385835D01*
X322138Y386784D01*
X321189Y387512D01*
X320084Y387970D01*
X319398Y388060D01*
D02*
G37*
G36*
X283614Y398060D02*
X282928Y397970D01*
X281823Y397512D01*
X280874Y396784D01*
X280146Y395835D01*
X279688Y394729D01*
X279597Y394043D01*
X283614D01*
Y398060D01*
D02*
G37*
G36*
X412886Y462098D02*
X410060D01*
X410110Y461721D01*
X410449Y460903D01*
X410988Y460201D01*
X411690Y459662D01*
X412508Y459323D01*
X412886Y459273D01*
Y462098D01*
D02*
G37*
G36*
X397026D02*
X394201D01*
Y459273D01*
X394579Y459323D01*
X395396Y459662D01*
X396099Y460201D01*
X396638Y460903D01*
X396976Y461721D01*
X397026Y462098D01*
D02*
G37*
G36*
X393201D02*
X390375D01*
X390425Y461721D01*
X390764Y460903D01*
X391303Y460201D01*
X392005Y459662D01*
X392823Y459323D01*
X393201Y459273D01*
Y462098D01*
D02*
G37*
G36*
X394201Y465924D02*
Y463098D01*
X397026D01*
X396976Y463476D01*
X396638Y464294D01*
X396099Y464996D01*
X395396Y465535D01*
X394579Y465874D01*
X394201Y465924D01*
D02*
G37*
G36*
X393201D02*
X392823Y465874D01*
X392005Y465535D01*
X391303Y464996D01*
X390764Y464294D01*
X390425Y463476D01*
X390375Y463098D01*
X393201D01*
Y465924D01*
D02*
G37*
G36*
X416711Y462098D02*
X413886D01*
Y459273D01*
X414263Y459323D01*
X415081Y459662D01*
X415784Y460201D01*
X416323Y460903D01*
X416662Y461721D01*
X416711Y462098D01*
D02*
G37*
G36*
X297752Y450016D02*
X293315D01*
Y445579D01*
X297752D01*
Y450016D01*
D02*
G37*
G36*
X394201Y446239D02*
Y443413D01*
X397026D01*
X396976Y443791D01*
X396638Y444609D01*
X396099Y445311D01*
X395396Y445850D01*
X394579Y446189D01*
X394201Y446239D01*
D02*
G37*
G36*
X393201D02*
X392823Y446189D01*
X392005Y445850D01*
X391303Y445311D01*
X390764Y444609D01*
X390425Y443791D01*
X390375Y443413D01*
X393201D01*
Y446239D01*
D02*
G37*
G36*
X374516D02*
Y443413D01*
X377341D01*
X377291Y443791D01*
X376953Y444609D01*
X376414Y445311D01*
X375711Y445850D01*
X374893Y446189D01*
X374516Y446239D01*
D02*
G37*
G36*
X292315Y450016D02*
X287878D01*
Y445579D01*
X292315D01*
Y450016D01*
D02*
G37*
G36*
X413886Y446239D02*
Y443413D01*
X416711D01*
X416662Y443791D01*
X416323Y444609D01*
X415784Y445311D01*
X415081Y445850D01*
X414263Y446189D01*
X413886Y446239D01*
D02*
G37*
G36*
X412886D02*
X412508Y446189D01*
X411690Y445850D01*
X410988Y445311D01*
X410449Y444609D01*
X410110Y443791D01*
X410060Y443413D01*
X412886D01*
Y446239D01*
D02*
G37*
G36*
Y465924D02*
X412508Y465874D01*
X411690Y465535D01*
X410988Y464996D01*
X410449Y464294D01*
X410110Y463476D01*
X410060Y463098D01*
X412886D01*
Y465924D01*
D02*
G37*
G36*
X323516Y474979D02*
X323138Y474929D01*
X322320Y474590D01*
X321618Y474051D01*
X321079Y473349D01*
X320740Y472531D01*
X320690Y472154D01*
X323516D01*
Y474979D01*
D02*
G37*
G36*
X230815Y475574D02*
Y472154D01*
X234236D01*
X234166Y472685D01*
X233768Y473647D01*
X233134Y474473D01*
X232308Y475106D01*
X231347Y475504D01*
X230815Y475574D01*
D02*
G37*
G36*
X229815D02*
X229283Y475504D01*
X228322Y475106D01*
X227496Y474473D01*
X226862Y473647D01*
X226464Y472685D01*
X226394Y472154D01*
X229815D01*
Y475574D01*
D02*
G37*
G36*
X366158Y475606D02*
X362705D01*
Y472154D01*
X366158D01*
Y475606D01*
D02*
G37*
G36*
X361705D02*
X358252D01*
Y472154D01*
X361705D01*
Y475606D01*
D02*
G37*
G36*
X324516Y474979D02*
Y472154D01*
X327341D01*
X327291Y472531D01*
X326953Y473349D01*
X326414Y474051D01*
X325711Y474590D01*
X324893Y474929D01*
X324516Y474979D01*
D02*
G37*
G36*
X327341Y471153D02*
X324516D01*
Y468328D01*
X324893Y468378D01*
X325711Y468717D01*
X326414Y469255D01*
X326953Y469958D01*
X327291Y470776D01*
X327341Y471153D01*
D02*
G37*
G36*
X366158D02*
X362705D01*
Y467701D01*
X366158D01*
Y471153D01*
D02*
G37*
G36*
X361705D02*
X358252D01*
Y467701D01*
X361705D01*
Y471153D01*
D02*
G37*
G36*
X413886Y465924D02*
Y463098D01*
X416711D01*
X416662Y463476D01*
X416323Y464294D01*
X415784Y464996D01*
X415081Y465535D01*
X414263Y465874D01*
X413886Y465924D01*
D02*
G37*
G36*
X323516Y471153D02*
X320690D01*
X320740Y470776D01*
X321079Y469958D01*
X321618Y469255D01*
X322320Y468717D01*
X323138Y468378D01*
X323516Y468328D01*
Y471153D01*
D02*
G37*
G36*
X234236D02*
X230815D01*
Y467732D01*
X231347Y467802D01*
X232308Y468201D01*
X233134Y468834D01*
X233768Y469660D01*
X234166Y470622D01*
X234236Y471153D01*
D02*
G37*
G36*
X229815D02*
X226394D01*
X226464Y470622D01*
X226862Y469660D01*
X227496Y468834D01*
X228322Y468201D01*
X229283Y467802D01*
X229815Y467732D01*
Y471153D01*
D02*
G37*
G36*
X407965Y398060D02*
X407278Y397970D01*
X406173Y397512D01*
X405224Y396784D01*
X404496Y395835D01*
X404038Y394729D01*
X403948Y394043D01*
X407965D01*
Y398060D01*
D02*
G37*
G36*
X374181D02*
Y394043D01*
X378198D01*
X378108Y394729D01*
X377650Y395835D01*
X376921Y396784D01*
X375972Y397512D01*
X374867Y397970D01*
X374181Y398060D01*
D02*
G37*
G36*
X373181D02*
X372495Y397970D01*
X371390Y397512D01*
X370441Y396784D01*
X369712Y395835D01*
X369255Y394729D01*
X369164Y394043D01*
X373181D01*
Y398060D01*
D02*
G37*
G36*
X418964D02*
Y394043D01*
X422981D01*
X422891Y394729D01*
X422433Y395835D01*
X421705Y396784D01*
X420756Y397512D01*
X419651Y397970D01*
X418964Y398060D01*
D02*
G37*
G36*
X417965D02*
X417278Y397970D01*
X416173Y397512D01*
X415224Y396784D01*
X414496Y395835D01*
X414038Y394729D01*
X413948Y394043D01*
X417965D01*
Y398060D01*
D02*
G37*
G36*
X408965D02*
Y394043D01*
X412981D01*
X412891Y394729D01*
X412433Y395835D01*
X411705Y396784D01*
X410756Y397512D01*
X409651Y397970D01*
X408965Y398060D01*
D02*
G37*
G36*
X364181D02*
Y394043D01*
X368198D01*
X368108Y394729D01*
X367650Y395835D01*
X366921Y396784D01*
X365972Y397512D01*
X364867Y397970D01*
X364181Y398060D01*
D02*
G37*
G36*
X319398D02*
Y394043D01*
X323414D01*
X323324Y394729D01*
X322866Y395835D01*
X322138Y396784D01*
X321189Y397512D01*
X320084Y397970D01*
X319398Y398060D01*
D02*
G37*
G36*
X318398D02*
X317712Y397970D01*
X316606Y397512D01*
X315657Y396784D01*
X314929Y395835D01*
X314471Y394729D01*
X314381Y394043D01*
X318398D01*
Y398060D01*
D02*
G37*
G36*
X284614D02*
Y394043D01*
X288631D01*
X288541Y394729D01*
X288083Y395835D01*
X287354Y396784D01*
X286405Y397512D01*
X285300Y397970D01*
X284614Y398060D01*
D02*
G37*
G36*
X363181D02*
X362495Y397970D01*
X361390Y397512D01*
X360441Y396784D01*
X359713Y395835D01*
X359255Y394729D01*
X359164Y394043D01*
X363181D01*
Y398060D01*
D02*
G37*
G36*
X329398D02*
Y394043D01*
X333414D01*
X333324Y394729D01*
X332866Y395835D01*
X332138Y396784D01*
X331189Y397512D01*
X330084Y397970D01*
X329398Y398060D01*
D02*
G37*
G36*
X328398D02*
X327712Y397970D01*
X326606Y397512D01*
X325657Y396784D01*
X324929Y395835D01*
X324471Y394729D01*
X324381Y394043D01*
X328398D01*
Y398060D01*
D02*
G37*
G36*
X418465Y407911D02*
X417334Y407763D01*
X416281Y407326D01*
X415376Y406632D01*
X415327Y406568D01*
X415306Y406556D01*
X415212Y406515D01*
X415072Y406470D01*
X414888Y406427D01*
X414679Y406391D01*
X413796Y406323D01*
X413085D01*
X412838Y406333D01*
X412257Y406390D01*
X412041Y406427D01*
X411857Y406470D01*
X411717Y406515D01*
X411623Y406556D01*
X411602Y406568D01*
X411553Y406632D01*
X410649Y407326D01*
X409595Y407763D01*
X408465Y407911D01*
X407334Y407763D01*
X406281Y407326D01*
X405376Y406632D01*
X405327Y406568D01*
X405306Y406556D01*
X405212Y406515D01*
X405072Y406470D01*
X404888Y406427D01*
X404679Y406391D01*
X403796Y406323D01*
X378302D01*
X378055Y406333D01*
X377474Y406390D01*
X377258Y406427D01*
X377074Y406470D01*
X376934Y406515D01*
X376840Y406556D01*
X376819Y406568D01*
X376770Y406632D01*
X375865Y407326D01*
X374812Y407763D01*
X373681Y407911D01*
X372551Y407763D01*
X371497Y407326D01*
X370592Y406632D01*
X370544Y406568D01*
X370522Y406556D01*
X370429Y406515D01*
X370288Y406470D01*
X370105Y406427D01*
X369896Y406391D01*
X369012Y406323D01*
X368302D01*
X368055Y406333D01*
X367474Y406390D01*
X367258Y406427D01*
X367074Y406470D01*
X366934Y406515D01*
X366840Y406556D01*
X366819Y406568D01*
X366770Y406632D01*
X365865Y407326D01*
X364812Y407763D01*
X363681Y407911D01*
X362551Y407763D01*
X361497Y407326D01*
X360592Y406632D01*
X360543Y406568D01*
X360523Y406556D01*
X360429Y406515D01*
X360289Y406470D01*
X360104Y406427D01*
X359896Y406391D01*
X359012Y406323D01*
X333518D01*
X333271Y406333D01*
X332691Y406390D01*
X332474Y406427D01*
X332290Y406470D01*
X332150Y406515D01*
X332056Y406556D01*
X332035Y406568D01*
X331986Y406632D01*
X331082Y407326D01*
X330028Y407763D01*
X328898Y407911D01*
X327767Y407763D01*
X326714Y407326D01*
X325809Y406632D01*
X325760Y406568D01*
X325739Y406556D01*
X325645Y406515D01*
X325505Y406470D01*
X325321Y406427D01*
X325113Y406391D01*
X324229Y406323D01*
X323518D01*
X323271Y406333D01*
X322691Y406390D01*
X322474Y406427D01*
X322290Y406470D01*
X322150Y406515D01*
X322056Y406556D01*
X322035Y406568D01*
X321986Y406632D01*
X321082Y407326D01*
X320028Y407763D01*
X318898Y407911D01*
X317767Y407763D01*
X316714Y407326D01*
X315809Y406632D01*
X315115Y405727D01*
X314678Y404674D01*
X314530Y403543D01*
X314678Y402413D01*
X315115Y401359D01*
X315809Y400455D01*
X316714Y399761D01*
X317767Y399324D01*
X318898Y399175D01*
X320028Y399324D01*
X321082Y399761D01*
X321986Y400455D01*
X322035Y400518D01*
X322056Y400531D01*
X322150Y400571D01*
X322290Y400616D01*
X322474Y400660D01*
X322683Y400695D01*
X323566Y400764D01*
X324277D01*
X324524Y400753D01*
X325105Y400697D01*
X325321Y400660D01*
X325505Y400616D01*
X325645Y400571D01*
X325739Y400531D01*
X325760Y400518D01*
X325809Y400455D01*
X326714Y399761D01*
X327767Y399324D01*
X328898Y399175D01*
X330028Y399324D01*
X331082Y399761D01*
X331986Y400455D01*
X332035Y400518D01*
X332056Y400531D01*
X332150Y400571D01*
X332290Y400616D01*
X332474Y400660D01*
X332683Y400695D01*
X333566Y400764D01*
X359061D01*
X359308Y400753D01*
X359888Y400697D01*
X360105Y400660D01*
X360289Y400616D01*
X360429Y400571D01*
X360523Y400531D01*
X360543Y400518D01*
X360592Y400455D01*
X361497Y399761D01*
X362551Y399324D01*
X363681Y399175D01*
X364812Y399324D01*
X365865Y399761D01*
X366770Y400455D01*
X366819Y400518D01*
X366840Y400531D01*
X366934Y400571D01*
X367074Y400616D01*
X367258Y400660D01*
X367466Y400695D01*
X368350Y400764D01*
X369061D01*
X369307Y400753D01*
X369888Y400697D01*
X370105Y400660D01*
X370288Y400616D01*
X370429Y400571D01*
X370522Y400531D01*
X370544Y400518D01*
X370592Y400455D01*
X371497Y399761D01*
X372551Y399324D01*
X373681Y399175D01*
X374812Y399324D01*
X375865Y399761D01*
X376770Y400455D01*
X376819Y400518D01*
X376840Y400531D01*
X376934Y400571D01*
X377074Y400616D01*
X377258Y400660D01*
X377466Y400695D01*
X378350Y400764D01*
X403844D01*
X404091Y400753D01*
X404672Y400697D01*
X404888Y400660D01*
X405072Y400616D01*
X405212Y400571D01*
X405306Y400531D01*
X405327Y400518D01*
X405376Y400455D01*
X406281Y399761D01*
X407334Y399324D01*
X408465Y399175D01*
X409595Y399324D01*
X410649Y399761D01*
X411553Y400455D01*
X411602Y400518D01*
X411623Y400531D01*
X411717Y400571D01*
X411857Y400616D01*
X412041Y400660D01*
X412250Y400695D01*
X413133Y400764D01*
X413844D01*
X414091Y400753D01*
X414672Y400697D01*
X414888Y400660D01*
X415072Y400616D01*
X415212Y400571D01*
X415306Y400531D01*
X415327Y400518D01*
X415376Y400455D01*
X416281Y399761D01*
X417334Y399324D01*
X418465Y399175D01*
X419595Y399324D01*
X420649Y399761D01*
X421553Y400455D01*
X422247Y401359D01*
X422684Y402413D01*
X422833Y403543D01*
X422684Y404674D01*
X422247Y405727D01*
X421553Y406632D01*
X420649Y407326D01*
X419595Y407763D01*
X418465Y407911D01*
D02*
G37*
G36*
X297752Y444579D02*
X293315D01*
Y440142D01*
X297752D01*
Y444579D01*
D02*
G37*
G36*
X292315D02*
X287878D01*
Y440142D01*
X292315D01*
Y444579D01*
D02*
G37*
G36*
X416711Y442413D02*
X413886D01*
Y439588D01*
X414263Y439638D01*
X415081Y439977D01*
X415784Y440515D01*
X416323Y441218D01*
X416662Y442036D01*
X416711Y442413D01*
D02*
G37*
G36*
X373516Y446239D02*
X373138Y446189D01*
X372320Y445850D01*
X371618Y445311D01*
X371079Y444609D01*
X370740Y443791D01*
X370690Y443413D01*
X373516D01*
Y446239D01*
D02*
G37*
G36*
X354831D02*
Y443413D01*
X357656D01*
X357606Y443791D01*
X357268Y444609D01*
X356729Y445311D01*
X356026Y445850D01*
X355208Y446189D01*
X354831Y446239D01*
D02*
G37*
G36*
X353831D02*
X353453Y446189D01*
X352635Y445850D01*
X351933Y445311D01*
X351394Y444609D01*
X351055Y443791D01*
X351005Y443413D01*
X353831D01*
Y446239D01*
D02*
G37*
G36*
X412886Y442413D02*
X410060D01*
X410110Y442036D01*
X410449Y441218D01*
X410988Y440515D01*
X411690Y439977D01*
X412508Y439638D01*
X412886Y439588D01*
Y442413D01*
D02*
G37*
G36*
X373516D02*
X370690D01*
X370740Y442036D01*
X371079Y441218D01*
X371618Y440515D01*
X372320Y439977D01*
X373138Y439638D01*
X373516Y439588D01*
Y442413D01*
D02*
G37*
G36*
X357656D02*
X354831D01*
Y439588D01*
X355208Y439638D01*
X356026Y439977D01*
X356729Y440515D01*
X357268Y441218D01*
X357606Y442036D01*
X357656Y442413D01*
D02*
G37*
G36*
X353831D02*
X351005D01*
X351055Y442036D01*
X351394Y441218D01*
X351933Y440515D01*
X352635Y439977D01*
X353453Y439638D01*
X353831Y439588D01*
Y442413D01*
D02*
G37*
G36*
X397026D02*
X394201D01*
Y439588D01*
X394579Y439638D01*
X395396Y439977D01*
X396099Y440515D01*
X396638Y441218D01*
X396976Y442036D01*
X397026Y442413D01*
D02*
G37*
G36*
X393201D02*
X390375D01*
X390425Y442036D01*
X390764Y441218D01*
X391303Y440515D01*
X392005Y439977D01*
X392823Y439638D01*
X393201Y439588D01*
Y442413D01*
D02*
G37*
G36*
X377341D02*
X374516D01*
Y439588D01*
X374893Y439638D01*
X375711Y439977D01*
X376414Y440515D01*
X376953Y441218D01*
X377291Y442036D01*
X377341Y442413D01*
D02*
G37*
G36*
X333414Y383043D02*
X329398D01*
Y379027D01*
X330084Y379117D01*
X331189Y379575D01*
X332138Y380303D01*
X332866Y381252D01*
X333324Y382357D01*
X333414Y383043D01*
D02*
G37*
G36*
X324303Y334146D02*
X321478D01*
X321528Y333768D01*
X321866Y332950D01*
X322405Y332248D01*
X323108Y331709D01*
X323925Y331370D01*
X324303Y331320D01*
Y334146D01*
D02*
G37*
G36*
X308443D02*
X305618D01*
Y331320D01*
X305996Y331370D01*
X306814Y331709D01*
X307516Y332248D01*
X308055Y332950D01*
X308394Y333768D01*
X308443Y334146D01*
D02*
G37*
G36*
X304618D02*
X301793D01*
X301842Y333768D01*
X302181Y332950D01*
X302720Y332248D01*
X303422Y331709D01*
X304240Y331370D01*
X304618Y331320D01*
Y334146D01*
D02*
G37*
G36*
X347814D02*
X344988D01*
Y331320D01*
X345366Y331370D01*
X346184Y331709D01*
X346886Y332248D01*
X347425Y332950D01*
X347764Y333768D01*
X347814Y334146D01*
D02*
G37*
G36*
X343988D02*
X341163D01*
X341213Y333768D01*
X341551Y332950D01*
X342090Y332248D01*
X342793Y331709D01*
X343611Y331370D01*
X343988Y331320D01*
Y334146D01*
D02*
G37*
G36*
X328129D02*
X325303D01*
Y331320D01*
X325681Y331370D01*
X326499Y331709D01*
X327201Y332248D01*
X327740Y332950D01*
X328079Y333768D01*
X328129Y334146D01*
D02*
G37*
G36*
X288758D02*
X285933D01*
Y331320D01*
X286311Y331370D01*
X287129Y331709D01*
X287831Y332248D01*
X288370Y332950D01*
X288709Y333768D01*
X288758Y334146D01*
D02*
G37*
G36*
X417323Y333502D02*
X415818Y333353D01*
X414371Y332914D01*
X413037Y332202D01*
X411868Y331242D01*
X410909Y330073D01*
X410196Y328740D01*
X409757Y327292D01*
X409609Y325787D01*
X409757Y324282D01*
X410196Y322835D01*
X410909Y321502D01*
X411868Y320333D01*
X413037Y319373D01*
X414371Y318660D01*
X415818Y318221D01*
X417323Y318073D01*
X418828Y318221D01*
X420275Y318660D01*
X421609Y319373D01*
X422778Y320333D01*
X423737Y321502D01*
X424450Y322835D01*
X424889Y324282D01*
X425037Y325787D01*
X424889Y327292D01*
X424450Y328740D01*
X423737Y330073D01*
X422778Y331242D01*
X421609Y332202D01*
X420275Y332914D01*
X418828Y333353D01*
X417323Y333502D01*
D02*
G37*
G36*
X230315D02*
X228810Y333353D01*
X227363Y332914D01*
X226029Y332202D01*
X224860Y331242D01*
X223901Y330073D01*
X223188Y328740D01*
X222749Y327292D01*
X222601Y325787D01*
X222749Y324282D01*
X223188Y322835D01*
X223901Y321502D01*
X224860Y320333D01*
X226029Y319373D01*
X227363Y318660D01*
X228810Y318221D01*
X230315Y318073D01*
X231820Y318221D01*
X233267Y318660D01*
X234601Y319373D01*
X235770Y320333D01*
X236729Y321502D01*
X237442Y322835D01*
X237881Y324282D01*
X238029Y325787D01*
X237881Y327292D01*
X237442Y328740D01*
X236729Y330073D01*
X235770Y331242D01*
X234601Y332202D01*
X233267Y332914D01*
X231820Y333353D01*
X230315Y333502D01*
D02*
G37*
G36*
X384358Y318286D02*
Y315461D01*
X387184D01*
X387134Y315838D01*
X386795Y316656D01*
X386256Y317359D01*
X385554Y317898D01*
X384736Y318236D01*
X384358Y318286D01*
D02*
G37*
G36*
X284933Y334146D02*
X282108D01*
X282157Y333768D01*
X282496Y332950D01*
X283035Y332248D01*
X283737Y331709D01*
X284555Y331370D01*
X284933Y331320D01*
Y334146D01*
D02*
G37*
G36*
X269073D02*
X266248D01*
Y331320D01*
X266626Y331370D01*
X267444Y331709D01*
X268146Y332248D01*
X268685Y332950D01*
X269024Y333768D01*
X269073Y334146D01*
D02*
G37*
G36*
X265248D02*
X262423D01*
X262472Y333768D01*
X262811Y332950D01*
X263350Y332248D01*
X264052Y331709D01*
X264870Y331370D01*
X265248Y331320D01*
Y334146D01*
D02*
G37*
G36*
X363673D02*
X360848D01*
X360898Y333768D01*
X361236Y332950D01*
X361775Y332248D01*
X362478Y331709D01*
X363296Y331370D01*
X363673Y331320D01*
Y334146D01*
D02*
G37*
G36*
X324303Y337971D02*
X323925Y337921D01*
X323108Y337582D01*
X322405Y337044D01*
X321866Y336341D01*
X321528Y335523D01*
X321478Y335146D01*
X324303D01*
Y337971D01*
D02*
G37*
G36*
X305618D02*
Y335146D01*
X308443D01*
X308394Y335523D01*
X308055Y336341D01*
X307516Y337044D01*
X306814Y337582D01*
X305996Y337921D01*
X305618Y337971D01*
D02*
G37*
G36*
X304618D02*
X304240Y337921D01*
X303422Y337582D01*
X302720Y337044D01*
X302181Y336341D01*
X301842Y335523D01*
X301793Y335146D01*
X304618D01*
Y337971D01*
D02*
G37*
G36*
X344988D02*
Y335146D01*
X347814D01*
X347764Y335523D01*
X347425Y336341D01*
X346886Y337044D01*
X346184Y337582D01*
X345366Y337921D01*
X344988Y337971D01*
D02*
G37*
G36*
X343988D02*
X343611Y337921D01*
X342793Y337582D01*
X342090Y337044D01*
X341551Y336341D01*
X341213Y335523D01*
X341163Y335146D01*
X343988D01*
Y337971D01*
D02*
G37*
G36*
X325303D02*
Y335146D01*
X328129D01*
X328079Y335523D01*
X327740Y336341D01*
X327201Y337044D01*
X326499Y337582D01*
X325681Y337921D01*
X325303Y337971D01*
D02*
G37*
G36*
X285933D02*
Y335146D01*
X288758D01*
X288709Y335523D01*
X288370Y336341D01*
X287831Y337044D01*
X287129Y337582D01*
X286311Y337921D01*
X285933Y337971D01*
D02*
G37*
G36*
X387184Y334146D02*
X384358D01*
Y331320D01*
X384736Y331370D01*
X385554Y331709D01*
X386256Y332248D01*
X386795Y332950D01*
X387134Y333768D01*
X387184Y334146D01*
D02*
G37*
G36*
X383358D02*
X380533D01*
X380583Y333768D01*
X380921Y332950D01*
X381460Y332248D01*
X382163Y331709D01*
X382981Y331370D01*
X383358Y331320D01*
Y334146D01*
D02*
G37*
G36*
X367499D02*
X364673D01*
Y331320D01*
X365051Y331370D01*
X365869Y331709D01*
X366571Y332248D01*
X367110Y332950D01*
X367449Y333768D01*
X367499Y334146D01*
D02*
G37*
G36*
X284933Y337971D02*
X284555Y337921D01*
X283737Y337582D01*
X283035Y337044D01*
X282496Y336341D01*
X282157Y335523D01*
X282108Y335146D01*
X284933D01*
Y337971D01*
D02*
G37*
G36*
X266248D02*
Y335146D01*
X269073D01*
X269024Y335523D01*
X268685Y336341D01*
X268146Y337044D01*
X267444Y337582D01*
X266626Y337921D01*
X266248Y337971D01*
D02*
G37*
G36*
X265248D02*
X264870Y337921D01*
X264052Y337582D01*
X263350Y337044D01*
X262811Y336341D01*
X262472Y335523D01*
X262423Y335146D01*
X265248D01*
Y337971D01*
D02*
G37*
G36*
X347814Y314461D02*
X344988D01*
Y311635D01*
X345366Y311685D01*
X346184Y312024D01*
X346886Y312563D01*
X347425Y313265D01*
X347764Y314083D01*
X347814Y314461D01*
D02*
G37*
G36*
X343988D02*
X341163D01*
X341213Y314083D01*
X341551Y313265D01*
X342090Y312563D01*
X342793Y312024D01*
X343611Y311685D01*
X343988Y311635D01*
Y314461D01*
D02*
G37*
G36*
X328129D02*
X325303D01*
Y311635D01*
X325681Y311685D01*
X326499Y312024D01*
X327201Y312563D01*
X327740Y313265D01*
X328079Y314083D01*
X328129Y314461D01*
D02*
G37*
G36*
X383358D02*
X380533D01*
X380583Y314083D01*
X380921Y313265D01*
X381460Y312563D01*
X382163Y312024D01*
X382981Y311685D01*
X383358Y311635D01*
Y314461D01*
D02*
G37*
G36*
X367499D02*
X364673D01*
Y311635D01*
X365051Y311685D01*
X365869Y312024D01*
X366571Y312563D01*
X367110Y313265D01*
X367449Y314083D01*
X367499Y314461D01*
D02*
G37*
G36*
X363673D02*
X360848D01*
X360898Y314083D01*
X361236Y313265D01*
X361775Y312563D01*
X362478Y312024D01*
X363296Y311685D01*
X363673Y311635D01*
Y314461D01*
D02*
G37*
G36*
X324303D02*
X321478D01*
X321528Y314083D01*
X321866Y313265D01*
X322405Y312563D01*
X323108Y312024D01*
X323925Y311685D01*
X324303Y311635D01*
Y314461D01*
D02*
G37*
G36*
X284933D02*
X282108D01*
X282157Y314083D01*
X282496Y313265D01*
X283035Y312563D01*
X283737Y312024D01*
X284555Y311685D01*
X284933Y311635D01*
Y314461D01*
D02*
G37*
G36*
X269073D02*
X266248D01*
Y311635D01*
X266626Y311685D01*
X267444Y312024D01*
X268146Y312563D01*
X268685Y313265D01*
X269024Y314083D01*
X269073Y314461D01*
D02*
G37*
G36*
X265248D02*
X262423D01*
X262472Y314083D01*
X262811Y313265D01*
X263350Y312563D01*
X264052Y312024D01*
X264870Y311685D01*
X265248Y311635D01*
Y314461D01*
D02*
G37*
G36*
X308443D02*
X305618D01*
Y311635D01*
X305996Y311685D01*
X306814Y312024D01*
X307516Y312563D01*
X308055Y313265D01*
X308394Y314083D01*
X308443Y314461D01*
D02*
G37*
G36*
X304618D02*
X301793D01*
X301842Y314083D01*
X302181Y313265D01*
X302720Y312563D01*
X303422Y312024D01*
X304240Y311685D01*
X304618Y311635D01*
Y314461D01*
D02*
G37*
G36*
X288758D02*
X285933D01*
Y311635D01*
X286311Y311685D01*
X287129Y312024D01*
X287831Y312563D01*
X288370Y313265D01*
X288709Y314083D01*
X288758Y314461D01*
D02*
G37*
G36*
X387184D02*
X384358D01*
Y311635D01*
X384736Y311685D01*
X385554Y312024D01*
X386256Y312563D01*
X386795Y313265D01*
X387134Y314083D01*
X387184Y314461D01*
D02*
G37*
G36*
X344988Y318286D02*
Y315461D01*
X347814D01*
X347764Y315838D01*
X347425Y316656D01*
X346886Y317359D01*
X346184Y317898D01*
X345366Y318236D01*
X344988Y318286D01*
D02*
G37*
G36*
X343988D02*
X343611Y318236D01*
X342793Y317898D01*
X342090Y317359D01*
X341551Y316656D01*
X341213Y315838D01*
X341163Y315461D01*
X343988D01*
Y318286D01*
D02*
G37*
G36*
X325303D02*
Y315461D01*
X328129D01*
X328079Y315838D01*
X327740Y316656D01*
X327201Y317359D01*
X326499Y317898D01*
X325681Y318236D01*
X325303Y318286D01*
D02*
G37*
G36*
X383358D02*
X382981Y318236D01*
X382163Y317898D01*
X381460Y317359D01*
X380921Y316656D01*
X380583Y315838D01*
X380533Y315461D01*
X383358D01*
Y318286D01*
D02*
G37*
G36*
X364673D02*
Y315461D01*
X367499D01*
X367449Y315838D01*
X367110Y316656D01*
X366571Y317359D01*
X365869Y317898D01*
X365051Y318236D01*
X364673Y318286D01*
D02*
G37*
G36*
X363673D02*
X363296Y318236D01*
X362478Y317898D01*
X361775Y317359D01*
X361236Y316656D01*
X360898Y315838D01*
X360848Y315461D01*
X363673D01*
Y318286D01*
D02*
G37*
G36*
X324303D02*
X323925Y318236D01*
X323108Y317898D01*
X322405Y317359D01*
X321866Y316656D01*
X321528Y315838D01*
X321478Y315461D01*
X324303D01*
Y318286D01*
D02*
G37*
G36*
X284933D02*
X284555Y318236D01*
X283737Y317898D01*
X283035Y317359D01*
X282496Y316656D01*
X282157Y315838D01*
X282108Y315461D01*
X284933D01*
Y318286D01*
D02*
G37*
G36*
X266248D02*
Y315461D01*
X269073D01*
X269024Y315838D01*
X268685Y316656D01*
X268146Y317359D01*
X267444Y317898D01*
X266626Y318236D01*
X266248Y318286D01*
D02*
G37*
G36*
X265248D02*
X264870Y318236D01*
X264052Y317898D01*
X263350Y317359D01*
X262811Y316656D01*
X262472Y315838D01*
X262423Y315461D01*
X265248D01*
Y318286D01*
D02*
G37*
G36*
X305618D02*
Y315461D01*
X308443D01*
X308394Y315838D01*
X308055Y316656D01*
X307516Y317359D01*
X306814Y317898D01*
X305996Y318236D01*
X305618Y318286D01*
D02*
G37*
G36*
X304618D02*
X304240Y318236D01*
X303422Y317898D01*
X302720Y317359D01*
X302181Y316656D01*
X301842Y315838D01*
X301793Y315461D01*
X304618D01*
Y318286D01*
D02*
G37*
G36*
X285933D02*
Y315461D01*
X288758D01*
X288709Y315838D01*
X288370Y316656D01*
X287831Y317359D01*
X287129Y317898D01*
X286311Y318236D01*
X285933Y318286D01*
D02*
G37*
G36*
X363673Y337971D02*
X363296Y337921D01*
X362478Y337582D01*
X361775Y337044D01*
X361236Y336341D01*
X360898Y335523D01*
X360848Y335146D01*
X363673D01*
Y337971D01*
D02*
G37*
G36*
X364181Y378060D02*
Y374043D01*
X368198D01*
X368108Y374729D01*
X367650Y375835D01*
X366921Y376784D01*
X365972Y377512D01*
X364867Y377970D01*
X364181Y378060D01*
D02*
G37*
G36*
X363181D02*
X362495Y377970D01*
X361390Y377512D01*
X360441Y376784D01*
X359713Y375835D01*
X359255Y374729D01*
X359164Y374043D01*
X363181D01*
Y378060D01*
D02*
G37*
G36*
X329398D02*
Y374043D01*
X333414D01*
X333324Y374729D01*
X332866Y375835D01*
X332138Y376784D01*
X331189Y377512D01*
X330084Y377970D01*
X329398Y378060D01*
D02*
G37*
G36*
X407965D02*
X407278Y377970D01*
X406173Y377512D01*
X405224Y376784D01*
X404496Y375835D01*
X404038Y374729D01*
X403948Y374043D01*
X407965D01*
Y378060D01*
D02*
G37*
G36*
X374181D02*
Y374043D01*
X378198D01*
X378108Y374729D01*
X377650Y375835D01*
X376921Y376784D01*
X375972Y377512D01*
X374867Y377970D01*
X374181Y378060D01*
D02*
G37*
G36*
X373181D02*
X372495Y377970D01*
X371390Y377512D01*
X370441Y376784D01*
X369712Y375835D01*
X369255Y374729D01*
X369164Y374043D01*
X373181D01*
Y378060D01*
D02*
G37*
G36*
X328398D02*
X327712Y377970D01*
X326606Y377512D01*
X325657Y376784D01*
X324929Y375835D01*
X324471Y374729D01*
X324381Y374043D01*
X328398D01*
Y378060D01*
D02*
G37*
G36*
X283614D02*
X282928Y377970D01*
X281823Y377512D01*
X280874Y376784D01*
X280146Y375835D01*
X279688Y374729D01*
X279597Y374043D01*
X283614D01*
Y378060D01*
D02*
G37*
G36*
X274614D02*
Y374043D01*
X278631D01*
X278540Y374729D01*
X278083Y375835D01*
X277355Y376784D01*
X276405Y377512D01*
X275300Y377970D01*
X274614Y378060D01*
D02*
G37*
G36*
X273614D02*
X272928Y377970D01*
X271823Y377512D01*
X270874Y376784D01*
X270146Y375835D01*
X269688Y374729D01*
X269598Y374043D01*
X273614D01*
Y378060D01*
D02*
G37*
G36*
X319398D02*
Y374043D01*
X323414D01*
X323324Y374729D01*
X322866Y375835D01*
X322138Y376784D01*
X321189Y377512D01*
X320084Y377970D01*
X319398Y378060D01*
D02*
G37*
G36*
X318398D02*
X317712Y377970D01*
X316606Y377512D01*
X315657Y376784D01*
X314929Y375835D01*
X314471Y374729D01*
X314381Y374043D01*
X318398D01*
Y378060D01*
D02*
G37*
G36*
X284614D02*
Y374043D01*
X288631D01*
X288541Y374729D01*
X288083Y375835D01*
X287354Y376784D01*
X286405Y377512D01*
X285300Y377970D01*
X284614Y378060D01*
D02*
G37*
G36*
X408965D02*
Y374043D01*
X412981D01*
X412891Y374729D01*
X412433Y375835D01*
X411705Y376784D01*
X410756Y377512D01*
X409651Y377970D01*
X408965Y378060D01*
D02*
G37*
G36*
X288631Y383043D02*
X284614D01*
Y379027D01*
X285300Y379117D01*
X286405Y379575D01*
X287354Y380303D01*
X288083Y381252D01*
X288541Y382357D01*
X288631Y383043D01*
D02*
G37*
G36*
X283614D02*
X279597D01*
X279688Y382357D01*
X280146Y381252D01*
X280874Y380303D01*
X281823Y379575D01*
X282928Y379117D01*
X283614Y379027D01*
Y383043D01*
D02*
G37*
G36*
X278631D02*
X274614D01*
Y379027D01*
X275300Y379117D01*
X276405Y379575D01*
X277355Y380303D01*
X278083Y381252D01*
X278540Y382357D01*
X278631Y383043D01*
D02*
G37*
G36*
X328398D02*
X324381D01*
X324471Y382357D01*
X324929Y381252D01*
X325657Y380303D01*
X326606Y379575D01*
X327712Y379117D01*
X328398Y379027D01*
Y383043D01*
D02*
G37*
G36*
X323414D02*
X319398D01*
Y379027D01*
X320084Y379117D01*
X321189Y379575D01*
X322138Y380303D01*
X322866Y381252D01*
X323324Y382357D01*
X323414Y383043D01*
D02*
G37*
G36*
X318398D02*
X314381D01*
X314471Y382357D01*
X314929Y381252D01*
X315657Y380303D01*
X316606Y379575D01*
X317712Y379117D01*
X318398Y379027D01*
Y383043D01*
D02*
G37*
G36*
X273614D02*
X269598D01*
X269688Y382357D01*
X270146Y381252D01*
X270874Y380303D01*
X271823Y379575D01*
X272928Y379117D01*
X273614Y379027D01*
Y383043D01*
D02*
G37*
G36*
X228831D02*
X224814D01*
X224904Y382357D01*
X225362Y381252D01*
X226090Y380303D01*
X227040Y379575D01*
X228145Y379117D01*
X228831Y379027D01*
Y383043D01*
D02*
G37*
G36*
X418964Y378060D02*
Y374043D01*
X422981D01*
X422891Y374729D01*
X422433Y375835D01*
X421705Y376784D01*
X420756Y377512D01*
X419651Y377970D01*
X418964Y378060D01*
D02*
G37*
G36*
X417965D02*
X417278Y377970D01*
X416173Y377512D01*
X415224Y376784D01*
X414496Y375835D01*
X414038Y374729D01*
X413948Y374043D01*
X417965D01*
Y378060D01*
D02*
G37*
G36*
X243847Y383043D02*
X239831D01*
Y379027D01*
X240517Y379117D01*
X241622Y379575D01*
X242571Y380303D01*
X243299Y381252D01*
X243757Y382357D01*
X243847Y383043D01*
D02*
G37*
G36*
X238831D02*
X234814D01*
X234904Y382357D01*
X235362Y381252D01*
X236090Y380303D01*
X237039Y379575D01*
X238145Y379117D01*
X238831Y379027D01*
Y383043D01*
D02*
G37*
G36*
X233847D02*
X229831D01*
Y379027D01*
X230517Y379117D01*
X231622Y379575D01*
X232571Y380303D01*
X233299Y381252D01*
X233757Y382357D01*
X233847Y383043D01*
D02*
G37*
G36*
X283614Y373043D02*
X279597D01*
X279688Y372357D01*
X280146Y371252D01*
X280874Y370303D01*
X281823Y369575D01*
X282928Y369117D01*
X283614Y369027D01*
Y373043D01*
D02*
G37*
G36*
X278631D02*
X274614D01*
Y369027D01*
X275300Y369117D01*
X276405Y369575D01*
X277355Y370303D01*
X278083Y371252D01*
X278540Y372357D01*
X278631Y373043D01*
D02*
G37*
G36*
X273614D02*
X269598D01*
X269688Y372357D01*
X270146Y371252D01*
X270874Y370303D01*
X271823Y369575D01*
X272928Y369117D01*
X273614Y369027D01*
Y373043D01*
D02*
G37*
G36*
X323414D02*
X319398D01*
Y369027D01*
X320084Y369117D01*
X321189Y369575D01*
X322138Y370303D01*
X322866Y371252D01*
X323324Y372357D01*
X323414Y373043D01*
D02*
G37*
G36*
X318398D02*
X314381D01*
X314471Y372357D01*
X314929Y371252D01*
X315657Y370303D01*
X316606Y369575D01*
X317712Y369117D01*
X318398Y369027D01*
Y373043D01*
D02*
G37*
G36*
X288631D02*
X284614D01*
Y369027D01*
X285300Y369117D01*
X286405Y369575D01*
X287354Y370303D01*
X288083Y371252D01*
X288541Y372357D01*
X288631Y373043D01*
D02*
G37*
G36*
X243847D02*
X239831D01*
Y369027D01*
X240517Y369117D01*
X241622Y369575D01*
X242571Y370303D01*
X243299Y371252D01*
X243757Y372357D01*
X243847Y373043D01*
D02*
G37*
G36*
X384358Y337971D02*
Y335146D01*
X387184D01*
X387134Y335523D01*
X386795Y336341D01*
X386256Y337044D01*
X385554Y337582D01*
X384736Y337921D01*
X384358Y337971D01*
D02*
G37*
G36*
X383358D02*
X382981Y337921D01*
X382163Y337582D01*
X381460Y337044D01*
X380921Y336341D01*
X380583Y335523D01*
X380533Y335146D01*
X383358D01*
Y337971D01*
D02*
G37*
G36*
X364673D02*
Y335146D01*
X367499D01*
X367449Y335523D01*
X367110Y336341D01*
X366571Y337044D01*
X365869Y337582D01*
X365051Y337921D01*
X364673Y337971D01*
D02*
G37*
G36*
X238831Y373043D02*
X234814D01*
X234904Y372357D01*
X235362Y371252D01*
X236090Y370303D01*
X237039Y369575D01*
X238145Y369117D01*
X238831Y369027D01*
Y373043D01*
D02*
G37*
G36*
X233847D02*
X229831D01*
Y369027D01*
X230517Y369117D01*
X231622Y369575D01*
X232571Y370303D01*
X233299Y371252D01*
X233757Y372357D01*
X233847Y373043D01*
D02*
G37*
G36*
X228831D02*
X224814D01*
X224904Y372357D01*
X225362Y371252D01*
X226090Y370303D01*
X227040Y369575D01*
X228145Y369117D01*
X228831Y369027D01*
Y373043D01*
D02*
G37*
G36*
X328398D02*
X324381D01*
X324471Y372357D01*
X324929Y371252D01*
X325657Y370303D01*
X326606Y369575D01*
X327712Y369117D01*
X328398Y369027D01*
Y373043D01*
D02*
G37*
G36*
X228831Y378060D02*
X228145Y377970D01*
X227040Y377512D01*
X226090Y376784D01*
X225362Y375835D01*
X224904Y374729D01*
X224814Y374043D01*
X228831D01*
Y378060D01*
D02*
G37*
G36*
X422981Y373043D02*
X418964D01*
Y369027D01*
X419651Y369117D01*
X420756Y369575D01*
X421705Y370303D01*
X422433Y371252D01*
X422891Y372357D01*
X422981Y373043D01*
D02*
G37*
G36*
X417965D02*
X413948D01*
X414038Y372357D01*
X414496Y371252D01*
X415224Y370303D01*
X416173Y369575D01*
X417278Y369117D01*
X417965Y369027D01*
Y373043D01*
D02*
G37*
G36*
X239831Y378060D02*
Y374043D01*
X243847D01*
X243757Y374729D01*
X243299Y375835D01*
X242571Y376784D01*
X241622Y377512D01*
X240517Y377970D01*
X239831Y378060D01*
D02*
G37*
G36*
X238831D02*
X238145Y377970D01*
X237039Y377512D01*
X236090Y376784D01*
X235362Y375835D01*
X234904Y374729D01*
X234814Y374043D01*
X238831D01*
Y378060D01*
D02*
G37*
G36*
X229831D02*
Y374043D01*
X233847D01*
X233757Y374729D01*
X233299Y375835D01*
X232571Y376784D01*
X231622Y377512D01*
X230517Y377970D01*
X229831Y378060D01*
D02*
G37*
G36*
X412981Y373043D02*
X408965D01*
Y369027D01*
X409651Y369117D01*
X410756Y369575D01*
X411705Y370303D01*
X412433Y371252D01*
X412891Y372357D01*
X412981Y373043D01*
D02*
G37*
G36*
X368198D02*
X364181D01*
Y369027D01*
X364867Y369117D01*
X365972Y369575D01*
X366921Y370303D01*
X367650Y371252D01*
X368108Y372357D01*
X368198Y373043D01*
D02*
G37*
G36*
X363181D02*
X359164D01*
X359255Y372357D01*
X359713Y371252D01*
X360441Y370303D01*
X361390Y369575D01*
X362495Y369117D01*
X363181Y369027D01*
Y373043D01*
D02*
G37*
G36*
X333414D02*
X329398D01*
Y369027D01*
X330084Y369117D01*
X331189Y369575D01*
X332138Y370303D01*
X332866Y371252D01*
X333324Y372357D01*
X333414Y373043D01*
D02*
G37*
G36*
X407965D02*
X403948D01*
X404038Y372357D01*
X404496Y371252D01*
X405224Y370303D01*
X406173Y369575D01*
X407278Y369117D01*
X407965Y369027D01*
Y373043D01*
D02*
G37*
G36*
X378198D02*
X374181D01*
Y369027D01*
X374867Y369117D01*
X375972Y369575D01*
X376921Y370303D01*
X377650Y371252D01*
X378108Y372357D01*
X378198Y373043D01*
D02*
G37*
G36*
X373181D02*
X369164D01*
X369255Y372357D01*
X369712Y371252D01*
X370441Y370303D01*
X371390Y369575D01*
X372495Y369117D01*
X373181Y369027D01*
Y373043D01*
D02*
G37*
G36*
X323516Y485720D02*
X320690D01*
X320740Y485343D01*
X321079Y484525D01*
X321618Y483822D01*
X322320Y483284D01*
X323138Y482945D01*
X323516Y482895D01*
Y485720D01*
D02*
G37*
G36*
X251850Y690945D02*
X242402D01*
Y687880D01*
X242398Y687863D01*
X242402Y687846D01*
Y685994D01*
X242188Y685620D01*
X241784Y685040D01*
X240601Y683641D01*
X240175Y683200D01*
X234255Y677280D01*
X233813Y676705D01*
X233536Y676034D01*
X233441Y675315D01*
Y674689D01*
X233440Y674610D01*
X233365Y673420D01*
X233305Y672973D01*
X233230Y672611D01*
X233151Y672353D01*
X233100Y672244D01*
X232480D01*
Y671462D01*
X232477Y671445D01*
X232480Y671427D01*
Y664764D01*
X239144D01*
X239161Y664760D01*
X239178Y664764D01*
X239961D01*
Y665380D01*
X240076Y665433D01*
X240341Y665513D01*
X240691Y665584D01*
X242388Y665723D01*
X242461Y665724D01*
X252786D01*
X271271Y647239D01*
X271731Y646757D01*
X271849Y646620D01*
X271947Y645874D01*
X272323Y644964D01*
X272923Y644183D01*
X273704Y643583D01*
X274614Y643207D01*
X275287Y643118D01*
X276337Y642173D01*
X282752Y635758D01*
Y630266D01*
X282740Y629706D01*
X282705Y629266D01*
X282685Y629116D01*
X282668Y629027D01*
X282092Y628277D01*
X281696Y627319D01*
X281560Y626291D01*
X281696Y625264D01*
X281974Y624592D01*
X281958Y624565D01*
X281871Y624443D01*
X281393Y623895D01*
X274109Y616611D01*
X273627Y616151D01*
X273490Y616033D01*
X272744Y615935D01*
X271834Y615558D01*
X271053Y614959D01*
X270454Y614178D01*
X270077Y613268D01*
X269948Y612291D01*
X270077Y611315D01*
X270454Y610405D01*
X271053Y609624D01*
X271834Y609024D01*
X272744Y608647D01*
X273721Y608519D01*
X274697Y608647D01*
X275607Y609024D01*
X276388Y609624D01*
X276988Y610405D01*
X277364Y611315D01*
X277453Y611987D01*
X278398Y613038D01*
X287497Y622137D01*
X287939Y622713D01*
X288216Y623383D01*
X288217Y623390D01*
X288339Y623483D01*
X288970Y624306D01*
X289367Y625264D01*
X289502Y626291D01*
X289367Y627319D01*
X288970Y628277D01*
X288395Y629027D01*
X288383Y629089D01*
X288311Y630215D01*
Y636909D01*
X288216Y637629D01*
X287939Y638299D01*
X287497Y638875D01*
X279910Y646461D01*
X279450Y646944D01*
X279333Y647081D01*
X279234Y647827D01*
X278858Y648736D01*
X278258Y649518D01*
X277477Y650117D01*
X276567Y650494D01*
X275895Y650583D01*
X274844Y651528D01*
X255903Y670469D01*
X255327Y670911D01*
X254656Y671189D01*
X253937Y671284D01*
X242461D01*
X242380Y671285D01*
X241168Y671359D01*
X240711Y671420D01*
X240341Y671495D01*
X240076Y671575D01*
X239961Y671628D01*
Y672244D01*
X239341D01*
X239290Y672353D01*
X239211Y672611D01*
X239141Y672953D01*
X239036Y674199D01*
X243923Y679087D01*
X245285Y680351D01*
X245936Y680872D01*
X246526Y681282D01*
X246900Y681496D01*
X248751D01*
X248769Y681493D01*
X248786Y681496D01*
X251850D01*
Y690945D01*
D02*
G37*
G36*
X276035Y572411D02*
Y568791D01*
X279655D01*
X279578Y569375D01*
X279160Y570384D01*
X278495Y571251D01*
X277628Y571916D01*
X276619Y572334D01*
X276035Y572411D01*
D02*
G37*
G36*
X315461Y574192D02*
Y571366D01*
X318286D01*
X318236Y571744D01*
X317898Y572562D01*
X317359Y573264D01*
X316656Y573803D01*
X315838Y574142D01*
X315461Y574192D01*
D02*
G37*
G36*
X314461D02*
X314083Y574142D01*
X313265Y573803D01*
X312563Y573264D01*
X312024Y572562D01*
X311685Y571744D01*
X311635Y571366D01*
X314461D01*
Y574192D01*
D02*
G37*
G36*
X275035Y572411D02*
X274452Y572334D01*
X273443Y571916D01*
X272576Y571251D01*
X271911Y570384D01*
X271493Y569375D01*
X271416Y568791D01*
X275035D01*
Y572411D01*
D02*
G37*
G36*
X314461Y570366D02*
X311635D01*
X311685Y569988D01*
X312024Y569171D01*
X312563Y568468D01*
X313265Y567929D01*
X314083Y567591D01*
X314461Y567541D01*
Y570366D01*
D02*
G37*
G36*
X225878Y698319D02*
X223053D01*
X223102Y697941D01*
X223441Y697123D01*
X223980Y696421D01*
X224682Y695882D01*
X225500Y695543D01*
X225878Y695494D01*
Y698319D01*
D02*
G37*
G36*
X324803Y705150D02*
X323491Y705021D01*
X322230Y704638D01*
X321067Y704017D01*
X320048Y703181D01*
X319211Y702162D01*
X318590Y700999D01*
X318207Y699737D01*
X318078Y698425D01*
X318207Y697113D01*
X318590Y695852D01*
X319211Y694689D01*
X320048Y693670D01*
X321067Y692833D01*
X322230Y692212D01*
X323491Y691829D01*
X324803Y691700D01*
X326115Y691829D01*
X327377Y692212D01*
X328539Y692833D01*
X329559Y693670D01*
X330395Y694689D01*
X331016Y695852D01*
X331399Y697113D01*
X331528Y698425D01*
X331399Y699737D01*
X331016Y700999D01*
X330395Y702162D01*
X329559Y703181D01*
X328539Y704017D01*
X327377Y704638D01*
X326115Y705021D01*
X324803Y705150D01*
D02*
G37*
G36*
X318286Y570366D02*
X315461D01*
Y567541D01*
X315838Y567591D01*
X316656Y567929D01*
X317359Y568468D01*
X317898Y569171D01*
X318236Y569988D01*
X318286Y570366D01*
D02*
G37*
G36*
X288307Y690986D02*
X287074Y690823D01*
X285925Y690347D01*
X284938Y689590D01*
X284180Y688603D01*
X283704Y687454D01*
X283542Y686220D01*
X283704Y684987D01*
X284180Y683838D01*
X284938Y682851D01*
X285925Y682094D01*
X287074Y681618D01*
X288307Y681455D01*
X289540Y681618D01*
X290690Y682094D01*
X291677Y682851D01*
X292434Y683838D01*
X292910Y684987D01*
X293072Y686220D01*
X292910Y687454D01*
X292434Y688603D01*
X291677Y689590D01*
X290690Y690347D01*
X289540Y690823D01*
X288307Y690986D01*
D02*
G37*
G36*
X314461Y593877D02*
X314083Y593827D01*
X313265Y593488D01*
X312563Y592949D01*
X312024Y592247D01*
X311685Y591429D01*
X311635Y591051D01*
X314461D01*
Y593877D01*
D02*
G37*
G36*
X419291Y621025D02*
X418058Y620863D01*
X416909Y620387D01*
X415922Y619629D01*
X415165Y618642D01*
X414688Y617493D01*
X414526Y616260D01*
X414688Y615027D01*
X415165Y613877D01*
X415922Y612890D01*
X416033Y612805D01*
X416050Y612785D01*
X416129Y612669D01*
X416208Y612520D01*
X416282Y612335D01*
X416350Y612115D01*
X416409Y611858D01*
X416455Y611576D01*
X416512Y610884D01*
Y599773D01*
X404638Y587899D01*
X404214Y588183D01*
X404329Y588461D01*
X404458Y589437D01*
X404329Y590413D01*
X403952Y591323D01*
X403352Y592104D01*
X402571Y592704D01*
X401661Y593081D01*
X400685Y593209D01*
X399709Y593081D01*
X398799Y592704D01*
X398018Y592104D01*
X397418Y591323D01*
X397041Y590413D01*
X396913Y589437D01*
X397041Y588461D01*
X397418Y587551D01*
X398018Y586769D01*
X398799Y586170D01*
X399709Y585793D01*
X400685Y585665D01*
X401661Y585793D01*
X401939Y585908D01*
X402223Y585484D01*
X387220Y570481D01*
X387052Y570262D01*
X386377Y569745D01*
X386297Y569640D01*
X386114Y569463D01*
X385872Y569251D01*
X385638Y569069D01*
X385412Y568915D01*
X385195Y568790D01*
X384987Y568691D01*
X384790Y568617D01*
X384601Y568567D01*
X384564Y568561D01*
X384280Y568543D01*
X366012D01*
X358867Y575687D01*
X358820Y575747D01*
X358740Y575869D01*
X358671Y575996D01*
X358613Y576129D01*
X358565Y576270D01*
X358528Y576420D01*
X358501Y576581D01*
X358485Y576753D01*
X358481Y576890D01*
X358492Y576968D01*
X358383Y577791D01*
X358066Y578557D01*
X357561Y579215D01*
X356903Y579720D01*
X356137Y580037D01*
X355315Y580145D01*
X354493Y580037D01*
X353727Y579720D01*
X353069Y579215D01*
X352564Y578557D01*
X352246Y577791D01*
X352138Y576968D01*
X352246Y576146D01*
X352564Y575380D01*
X353069Y574722D01*
X353727Y574217D01*
X354493Y573900D01*
X355315Y573792D01*
X355394Y573802D01*
X355530Y573799D01*
X355702Y573783D01*
X355863Y573756D01*
X356013Y573718D01*
X356154Y573670D01*
X356288Y573612D01*
X356414Y573544D01*
X356536Y573464D01*
X356597Y573416D01*
X358739Y571274D01*
X358505Y570800D01*
X357689Y570908D01*
X357654Y570903D01*
X356655Y571903D01*
X356079Y572344D01*
X355408Y572622D01*
X354689Y572717D01*
X349515D01*
X348848Y572732D01*
X348668Y572746D01*
X348071Y573204D01*
X347161Y573581D01*
X346185Y573709D01*
X345209Y573581D01*
X344299Y573204D01*
X343517Y572604D01*
X342918Y571823D01*
X342541Y570913D01*
X342413Y569937D01*
X342541Y568961D01*
X342918Y568051D01*
X343517Y567269D01*
X344299Y566670D01*
X345209Y566293D01*
X346185Y566164D01*
X347161Y566293D01*
X348071Y566670D01*
X348609Y567083D01*
X350021Y567157D01*
X353296D01*
X353718Y566937D01*
X353853Y565909D01*
X354250Y564952D01*
X354881Y564129D01*
X355703Y563498D01*
X356661Y563101D01*
X357689Y562966D01*
X358717Y563101D01*
X359675Y563498D01*
X360497Y564129D01*
X361128Y564952D01*
X361525Y565909D01*
X361660Y566937D01*
X361553Y567753D01*
X362026Y567987D01*
X364211Y565802D01*
X364211Y565802D01*
X364732Y565453D01*
X365347Y565331D01*
X384387D01*
X384470Y565328D01*
X384601Y565307D01*
X384790Y565256D01*
X384987Y565183D01*
X385195Y565084D01*
X385412Y564959D01*
X385628Y564812D01*
X386122Y564403D01*
X386297Y564234D01*
X386377Y564129D01*
X387200Y563498D01*
X388157Y563101D01*
X389095Y562978D01*
X389147Y562943D01*
X389994Y562197D01*
X395075Y557116D01*
Y554758D01*
X390031Y549714D01*
X389626Y549326D01*
X389290Y549039D01*
X389170Y548947D01*
X389095Y548896D01*
X388157Y548773D01*
X387200Y548376D01*
X386449Y547800D01*
X386387Y547788D01*
X385262Y547717D01*
X370528D01*
X369808Y547622D01*
X369138Y547344D01*
X368562Y546903D01*
X359376Y537717D01*
X345514D01*
X344848Y537732D01*
X344668Y537746D01*
X344071Y538204D01*
X343161Y538581D01*
X342185Y538709D01*
X341209Y538581D01*
X340299Y538204D01*
X339517Y537604D01*
X338918Y536823D01*
X338541Y535913D01*
X338413Y534937D01*
X338541Y533961D01*
X338918Y533051D01*
X339517Y532269D01*
X340299Y531670D01*
X341209Y531293D01*
X342185Y531165D01*
X343161Y531293D01*
X344071Y531670D01*
X344609Y532083D01*
X346021Y532157D01*
X360528D01*
X361247Y532252D01*
X361917Y532530D01*
X362493Y532971D01*
X371679Y542157D01*
X385210D01*
X385770Y542145D01*
X386211Y542111D01*
X386360Y542091D01*
X386449Y542074D01*
X387200Y541498D01*
X388157Y541101D01*
X389095Y540978D01*
X389147Y540942D01*
X389994Y540197D01*
X390405Y539786D01*
Y524766D01*
X390390Y524100D01*
X390376Y523920D01*
X389918Y523323D01*
X389541Y522413D01*
X389413Y521437D01*
X389541Y520461D01*
X389918Y519551D01*
X390331Y519013D01*
X390405Y517601D01*
Y495663D01*
X390391Y494952D01*
X390366Y494630D01*
X390333Y494604D01*
X389733Y493823D01*
X389356Y492913D01*
X389268Y492241D01*
X388322Y491190D01*
X383376Y486244D01*
X354331D01*
X353611Y486150D01*
X352941Y485872D01*
X352365Y485430D01*
X342909Y475974D01*
X342426Y475513D01*
X342289Y475395D01*
X341543Y475297D01*
X340634Y474921D01*
X340095Y474508D01*
X338684Y474433D01*
X333858D01*
X333139Y474338D01*
X332468Y474061D01*
X331893Y473619D01*
X323125Y464851D01*
X322427Y464562D01*
X321769Y464057D01*
X321265Y463399D01*
X320947Y462633D01*
X320839Y461811D01*
X320947Y460989D01*
X321236Y460291D01*
Y453317D01*
X320131Y452212D01*
X318768Y450946D01*
X318116Y450423D01*
X317526Y450012D01*
X317162Y449803D01*
X312205D01*
Y446739D01*
X312201Y446721D01*
X312205Y446704D01*
Y444853D01*
X311991Y444478D01*
X311587Y443898D01*
X310404Y442500D01*
X309978Y442058D01*
X299216Y431296D01*
X298774Y430721D01*
X298496Y430050D01*
X298401Y429331D01*
Y378550D01*
X298383Y378051D01*
X298307Y377359D01*
X298180Y376692D01*
X298002Y376048D01*
X297774Y375427D01*
X297496Y374827D01*
X297166Y374246D01*
X296784Y373684D01*
X296350Y373141D01*
X296009Y372775D01*
X289557Y366323D01*
X288735D01*
X288488Y366334D01*
X287907Y366390D01*
X287691Y366427D01*
X287507Y366470D01*
X287367Y366515D01*
X287273Y366556D01*
X287252Y366568D01*
X287203Y366632D01*
X286298Y367326D01*
X285245Y367763D01*
X284114Y367911D01*
X282984Y367763D01*
X281930Y367326D01*
X281026Y366632D01*
X280977Y366568D01*
X280956Y366556D01*
X280862Y366515D01*
X280722Y366470D01*
X280538Y366427D01*
X280329Y366391D01*
X279446Y366323D01*
X278735D01*
X278488Y366334D01*
X277907Y366390D01*
X277691Y366427D01*
X277507Y366470D01*
X277367Y366515D01*
X277273Y366556D01*
X277252Y366568D01*
X277203Y366632D01*
X276298Y367326D01*
X275245Y367763D01*
X274114Y367911D01*
X272984Y367763D01*
X271930Y367326D01*
X271025Y366632D01*
X270976Y366568D01*
X270955Y366556D01*
X270862Y366515D01*
X270722Y366470D01*
X270538Y366427D01*
X270329Y366391D01*
X269445Y366323D01*
X243951D01*
X243704Y366334D01*
X243124Y366390D01*
X242907Y366427D01*
X242723Y366470D01*
X242583Y366515D01*
X242489Y366556D01*
X242468Y366568D01*
X242419Y366632D01*
X241515Y367326D01*
X240461Y367763D01*
X239331Y367911D01*
X238200Y367763D01*
X237147Y367326D01*
X236242Y366632D01*
X236193Y366568D01*
X236172Y366556D01*
X236078Y366515D01*
X235938Y366470D01*
X235754Y366427D01*
X235546Y366391D01*
X234662Y366323D01*
X233951D01*
X233704Y366334D01*
X233124Y366390D01*
X232907Y366427D01*
X232723Y366470D01*
X232583Y366515D01*
X232489Y366556D01*
X232468Y366568D01*
X232419Y366632D01*
X231515Y367326D01*
X230461Y367763D01*
X229331Y367911D01*
X228200Y367763D01*
X227147Y367326D01*
X226242Y366632D01*
X225548Y365727D01*
X225112Y364674D01*
X224963Y363543D01*
X225112Y362413D01*
X225548Y361359D01*
X226242Y360455D01*
X227147Y359760D01*
X228200Y359324D01*
X229331Y359175D01*
X230461Y359324D01*
X231515Y359760D01*
X232419Y360455D01*
X232468Y360518D01*
X232489Y360531D01*
X232583Y360572D01*
X232723Y360616D01*
X232907Y360660D01*
X233116Y360695D01*
X233999Y360764D01*
X234710D01*
X234957Y360753D01*
X235538Y360697D01*
X235754Y360660D01*
X235938Y360616D01*
X236078Y360572D01*
X236172Y360531D01*
X236193Y360518D01*
X236242Y360455D01*
X237147Y359760D01*
X238200Y359324D01*
X239331Y359175D01*
X240461Y359324D01*
X241515Y359760D01*
X242419Y360455D01*
X242468Y360518D01*
X242489Y360531D01*
X242583Y360572D01*
X242723Y360616D01*
X242907Y360660D01*
X243116Y360695D01*
X243999Y360764D01*
X269494D01*
X269741Y360753D01*
X270321Y360697D01*
X270538Y360660D01*
X270722Y360616D01*
X270862Y360572D01*
X270956Y360531D01*
X270976Y360518D01*
X271025Y360455D01*
X271930Y359760D01*
X272984Y359324D01*
X274114Y359175D01*
X275245Y359324D01*
X276298Y359760D01*
X277203Y360455D01*
X277252Y360518D01*
X277273Y360531D01*
X277367Y360572D01*
X277507Y360616D01*
X277691Y360660D01*
X277899Y360695D01*
X278783Y360764D01*
X279494D01*
X279741Y360753D01*
X280321Y360697D01*
X280538Y360660D01*
X280722Y360616D01*
X280862Y360572D01*
X280956Y360531D01*
X280977Y360518D01*
X281026Y360455D01*
X281930Y359760D01*
X282984Y359324D01*
X284114Y359175D01*
X285245Y359324D01*
X286298Y359760D01*
X287203Y360455D01*
X287252Y360518D01*
X287273Y360531D01*
X287367Y360572D01*
X287507Y360616D01*
X287691Y360660D01*
X287899Y360695D01*
X288783Y360764D01*
X290709D01*
X291428Y360858D01*
X292098Y361136D01*
X292674Y361578D01*
X299068Y367972D01*
X299454Y368320D01*
X299923Y368647D01*
X300365Y368868D01*
X300781Y368993D01*
X301181Y369033D01*
X301581Y368993D01*
X301998Y368868D01*
X302439Y368647D01*
X302908Y368320D01*
X303294Y367972D01*
X309688Y361578D01*
X310264Y361136D01*
X310934Y360858D01*
X311653Y360764D01*
X314277D01*
X314524Y360753D01*
X315105Y360697D01*
X315321Y360660D01*
X315505Y360616D01*
X315645Y360572D01*
X315739Y360531D01*
X315760Y360518D01*
X315809Y360455D01*
X316714Y359760D01*
X317767Y359324D01*
X318898Y359175D01*
X320028Y359324D01*
X321082Y359760D01*
X321986Y360455D01*
X322035Y360518D01*
X322056Y360531D01*
X322150Y360572D01*
X322290Y360616D01*
X322474Y360660D01*
X322683Y360695D01*
X323566Y360764D01*
X324277D01*
X324524Y360753D01*
X325105Y360697D01*
X325321Y360660D01*
X325505Y360616D01*
X325645Y360572D01*
X325739Y360531D01*
X325760Y360518D01*
X325809Y360455D01*
X326714Y359760D01*
X327767Y359324D01*
X328898Y359175D01*
X330028Y359324D01*
X331082Y359760D01*
X331986Y360455D01*
X332035Y360518D01*
X332056Y360531D01*
X332150Y360572D01*
X332290Y360616D01*
X332474Y360660D01*
X332683Y360695D01*
X333566Y360764D01*
X359061D01*
X359308Y360753D01*
X359888Y360697D01*
X360105Y360660D01*
X360289Y360616D01*
X360429Y360572D01*
X360523Y360531D01*
X360543Y360518D01*
X360592Y360455D01*
X361497Y359760D01*
X362551Y359324D01*
X363681Y359175D01*
X364812Y359324D01*
X365865Y359760D01*
X366770Y360455D01*
X366819Y360518D01*
X366840Y360531D01*
X366934Y360572D01*
X367074Y360616D01*
X367258Y360660D01*
X367466Y360695D01*
X368350Y360764D01*
X369061D01*
X369307Y360753D01*
X369888Y360697D01*
X370105Y360660D01*
X370288Y360616D01*
X370429Y360572D01*
X370522Y360531D01*
X370544Y360518D01*
X370592Y360455D01*
X371497Y359760D01*
X372551Y359324D01*
X373681Y359175D01*
X374812Y359324D01*
X375865Y359760D01*
X376770Y360455D01*
X376819Y360518D01*
X376840Y360531D01*
X376934Y360572D01*
X377074Y360616D01*
X377258Y360660D01*
X377466Y360695D01*
X378350Y360764D01*
X403844D01*
X404091Y360753D01*
X404672Y360697D01*
X404888Y360660D01*
X405072Y360616D01*
X405212Y360572D01*
X405306Y360531D01*
X405327Y360518D01*
X405376Y360455D01*
X406281Y359760D01*
X407334Y359324D01*
X408465Y359175D01*
X409595Y359324D01*
X410649Y359760D01*
X411553Y360455D01*
X411602Y360518D01*
X411623Y360531D01*
X411717Y360572D01*
X411857Y360616D01*
X412041Y360660D01*
X412250Y360695D01*
X413133Y360764D01*
X413844D01*
X414091Y360753D01*
X414672Y360697D01*
X414888Y360660D01*
X415072Y360616D01*
X415212Y360572D01*
X415306Y360531D01*
X415327Y360518D01*
X415376Y360455D01*
X416281Y359760D01*
X417334Y359324D01*
X418465Y359175D01*
X419595Y359324D01*
X420649Y359760D01*
X421553Y360455D01*
X422247Y361359D01*
X422684Y362413D01*
X422833Y363543D01*
X422684Y364674D01*
X422247Y365727D01*
X421553Y366632D01*
X420649Y367326D01*
X419595Y367763D01*
X418465Y367911D01*
X417334Y367763D01*
X416281Y367326D01*
X415376Y366632D01*
X415327Y366568D01*
X415306Y366556D01*
X415212Y366515D01*
X415072Y366470D01*
X414888Y366427D01*
X414679Y366391D01*
X413796Y366323D01*
X413085D01*
X412838Y366334D01*
X412257Y366390D01*
X412041Y366427D01*
X411857Y366470D01*
X411717Y366515D01*
X411623Y366556D01*
X411602Y366568D01*
X411553Y366632D01*
X410649Y367326D01*
X409595Y367763D01*
X408465Y367911D01*
X407334Y367763D01*
X406281Y367326D01*
X405376Y366632D01*
X405327Y366568D01*
X405306Y366556D01*
X405212Y366515D01*
X405072Y366470D01*
X404888Y366427D01*
X404679Y366391D01*
X403796Y366323D01*
X378302D01*
X378055Y366334D01*
X377474Y366390D01*
X377258Y366427D01*
X377074Y366470D01*
X376934Y366515D01*
X376840Y366556D01*
X376819Y366568D01*
X376770Y366632D01*
X375865Y367326D01*
X374812Y367763D01*
X373681Y367911D01*
X372551Y367763D01*
X371497Y367326D01*
X370592Y366632D01*
X370544Y366568D01*
X370522Y366556D01*
X370429Y366515D01*
X370288Y366470D01*
X370105Y366427D01*
X369896Y366391D01*
X369012Y366323D01*
X368302D01*
X368055Y366334D01*
X367474Y366390D01*
X367258Y366427D01*
X367074Y366470D01*
X366934Y366515D01*
X366840Y366556D01*
X366819Y366568D01*
X366770Y366632D01*
X365865Y367326D01*
X364812Y367763D01*
X363681Y367911D01*
X362551Y367763D01*
X361497Y367326D01*
X360592Y366632D01*
X360543Y366568D01*
X360523Y366556D01*
X360429Y366515D01*
X360289Y366470D01*
X360104Y366427D01*
X359896Y366391D01*
X359012Y366323D01*
X333518D01*
X333271Y366334D01*
X332691Y366390D01*
X332474Y366427D01*
X332290Y366470D01*
X332150Y366515D01*
X332056Y366556D01*
X332035Y366568D01*
X331986Y366632D01*
X331082Y367326D01*
X330028Y367763D01*
X328898Y367911D01*
X327767Y367763D01*
X326714Y367326D01*
X325809Y366632D01*
X325760Y366568D01*
X325739Y366556D01*
X325645Y366515D01*
X325505Y366470D01*
X325321Y366427D01*
X325113Y366391D01*
X324229Y366323D01*
X323518D01*
X323271Y366334D01*
X322691Y366390D01*
X322474Y366427D01*
X322290Y366470D01*
X322150Y366515D01*
X322056Y366556D01*
X322035Y366568D01*
X321986Y366632D01*
X321082Y367326D01*
X320028Y367763D01*
X318898Y367911D01*
X317767Y367763D01*
X316714Y367326D01*
X315809Y366632D01*
X315760Y366568D01*
X315739Y366556D01*
X315645Y366515D01*
X315505Y366470D01*
X315321Y366427D01*
X315112Y366391D01*
X314229Y366323D01*
X312805D01*
X306353Y372775D01*
X306013Y373141D01*
X305578Y373684D01*
X305196Y374246D01*
X304866Y374827D01*
X304588Y375427D01*
X304360Y376048D01*
X304183Y376692D01*
X304055Y377359D01*
X303979Y378051D01*
X303961Y378550D01*
Y428179D01*
X313726Y437945D01*
X315088Y439209D01*
X315739Y439731D01*
X316329Y440140D01*
X316703Y440354D01*
X318555D01*
X318572Y440351D01*
X318589Y440354D01*
X321654D01*
Y445311D01*
X321862Y445676D01*
X322267Y446256D01*
X323453Y447656D01*
X323878Y448097D01*
X325981Y450200D01*
X326423Y450775D01*
X326701Y451446D01*
X326795Y452165D01*
Y460291D01*
X327056Y460920D01*
X335010Y468874D01*
X339190D01*
X339856Y468858D01*
X340037Y468844D01*
X340634Y468387D01*
X341543Y468010D01*
X342520Y467881D01*
X343496Y468010D01*
X344406Y468387D01*
X345187Y468986D01*
X345787Y469767D01*
X346164Y470677D01*
X346252Y471349D01*
X347197Y472400D01*
X355482Y480685D01*
X384528D01*
X385247Y480780D01*
X385917Y481057D01*
X386493Y481499D01*
X392611Y487617D01*
X393093Y488077D01*
X393231Y488195D01*
X393976Y488293D01*
X394886Y488670D01*
X395668Y489269D01*
X396267Y490051D01*
X396644Y490961D01*
X396772Y491937D01*
X396644Y492913D01*
X396267Y493823D01*
X395992Y494182D01*
X395965Y495372D01*
Y518108D01*
X395980Y518774D01*
X395994Y518954D01*
X396452Y519551D01*
X396829Y520461D01*
X396957Y521437D01*
X396829Y522413D01*
X396452Y523323D01*
X396039Y523861D01*
X395965Y525273D01*
Y540937D01*
X395870Y541656D01*
X395592Y542327D01*
X395151Y542903D01*
X393962Y544091D01*
X393574Y544496D01*
X393287Y544832D01*
X393210Y544933D01*
X393925Y545746D01*
X399820Y551641D01*
X400261Y552216D01*
X400539Y552887D01*
X400634Y553606D01*
Y558268D01*
X400539Y558987D01*
X400261Y559658D01*
X399820Y560233D01*
X393962Y566091D01*
X393574Y566496D01*
X393287Y566832D01*
X393195Y566952D01*
X393144Y567027D01*
X393021Y567965D01*
X392932Y568180D01*
X392995Y568283D01*
X393086Y568411D01*
X393569Y568969D01*
X421257Y596657D01*
X421699Y597232D01*
X421976Y597903D01*
X422071Y598622D01*
Y610689D01*
X422092Y611248D01*
X422127Y611566D01*
X422174Y611858D01*
X422233Y612115D01*
X422301Y612335D01*
X422375Y612520D01*
X422453Y612669D01*
X422532Y612785D01*
X422550Y612805D01*
X422661Y612890D01*
X423418Y613877D01*
X423894Y615027D01*
X424056Y616260D01*
X423894Y617493D01*
X423418Y618642D01*
X422661Y619629D01*
X421674Y620387D01*
X420525Y620863D01*
X419291Y621025D01*
D02*
G37*
G36*
X366685Y626908D02*
X365657Y626773D01*
X364700Y626376D01*
X363877Y625745D01*
X363246Y624922D01*
X362849Y623965D01*
X362714Y622937D01*
X362849Y621909D01*
X363246Y620952D01*
X363822Y620201D01*
X363833Y620140D01*
X363905Y619014D01*
Y611766D01*
X363890Y611100D01*
X363876Y610920D01*
X363418Y610323D01*
X363041Y609413D01*
X362913Y608437D01*
X363041Y607461D01*
X363418Y606551D01*
X364018Y605769D01*
X364799Y605170D01*
X365709Y604793D01*
X366685Y604665D01*
X367661Y604793D01*
X368571Y605170D01*
X369353Y605769D01*
X369952Y606551D01*
X370329Y607461D01*
X370458Y608437D01*
X370329Y609413D01*
X369952Y610323D01*
X369539Y610861D01*
X369465Y612273D01*
Y618962D01*
X369477Y619522D01*
X369511Y619963D01*
X369531Y620112D01*
X369548Y620201D01*
X370124Y620952D01*
X370521Y621909D01*
X370656Y622937D01*
X370521Y623965D01*
X370124Y624922D01*
X369493Y625745D01*
X368671Y626376D01*
X367713Y626773D01*
X366685Y626908D01*
D02*
G37*
G36*
X315461Y593877D02*
Y591051D01*
X318286D01*
X318236Y591429D01*
X317898Y592247D01*
X317359Y592949D01*
X316656Y593488D01*
X315838Y593827D01*
X315461Y593877D01*
D02*
G37*
G36*
X233035Y595249D02*
X232059Y595120D01*
X231149Y594743D01*
X230368Y594144D01*
X229768Y593363D01*
X229392Y592453D01*
X229263Y591476D01*
X229392Y590500D01*
X229768Y589590D01*
X230368Y588809D01*
X231149Y588209D01*
X232059Y587832D01*
X233035Y587704D01*
X234012Y587832D01*
X234922Y588209D01*
X235703Y588809D01*
X236302Y589590D01*
X236679Y590500D01*
X236808Y591476D01*
X236679Y592453D01*
X236302Y593363D01*
X235703Y594144D01*
X234922Y594743D01*
X234012Y595120D01*
X233035Y595249D01*
D02*
G37*
G36*
X314461Y590051D02*
X311635D01*
X311685Y589674D01*
X312024Y588856D01*
X312563Y588153D01*
X313265Y587614D01*
X314083Y587276D01*
X314461Y587226D01*
Y590051D01*
D02*
G37*
G36*
X346185Y593394D02*
X345209Y593266D01*
X344299Y592889D01*
X343517Y592289D01*
X342918Y591508D01*
X342541Y590598D01*
X342413Y589622D01*
X342541Y588646D01*
X342918Y587736D01*
X343517Y586954D01*
X344299Y586355D01*
X345209Y585978D01*
X346185Y585850D01*
X347161Y585978D01*
X348071Y586355D01*
X348852Y586954D01*
X349452Y587736D01*
X349829Y588646D01*
X349957Y589622D01*
X349829Y590598D01*
X349452Y591508D01*
X348852Y592289D01*
X348071Y592889D01*
X347161Y593266D01*
X346185Y593394D01*
D02*
G37*
G36*
X289535Y595064D02*
X288559Y594935D01*
X287649Y594558D01*
X286868Y593959D01*
X286268Y593178D01*
X285892Y592268D01*
X285763Y591291D01*
X285892Y590315D01*
X286268Y589405D01*
X286868Y588624D01*
X287649Y588024D01*
X288559Y587647D01*
X289535Y587519D01*
X290512Y587647D01*
X291422Y588024D01*
X292203Y588624D01*
X292802Y589405D01*
X293179Y590315D01*
X293308Y591291D01*
X293179Y592268D01*
X292802Y593178D01*
X292203Y593959D01*
X291422Y594558D01*
X290512Y594935D01*
X289535Y595064D01*
D02*
G37*
G36*
X318286Y590051D02*
X315461D01*
Y587226D01*
X315838Y587276D01*
X316656Y587614D01*
X317359Y588153D01*
X317898Y588856D01*
X318236Y589674D01*
X318286Y590051D01*
D02*
G37*
G36*
X229703Y698319D02*
X226878D01*
Y695494D01*
X227256Y695543D01*
X228074Y695882D01*
X228776Y696421D01*
X229315Y697123D01*
X229654Y697941D01*
X229703Y698319D01*
D02*
G37*
G36*
X388681Y560056D02*
X388098Y559980D01*
X387088Y559562D01*
X386222Y558896D01*
X385556Y558030D01*
X385138Y557020D01*
X385062Y556437D01*
X388681D01*
Y560056D01*
D02*
G37*
G36*
X288758Y698319D02*
X285933D01*
Y695494D01*
X286311Y695543D01*
X287129Y695882D01*
X287831Y696421D01*
X288370Y697123D01*
X288709Y697941D01*
X288758Y698319D01*
D02*
G37*
G36*
X357685Y559908D02*
X356657Y559773D01*
X355700Y559376D01*
X354877Y558745D01*
X354246Y557922D01*
X354072Y557502D01*
X353982Y557480D01*
X353831Y557454D01*
X353099Y557402D01*
X345514D01*
X344848Y557417D01*
X344668Y557431D01*
X344071Y557889D01*
X343161Y558266D01*
X342185Y558394D01*
X341209Y558266D01*
X340299Y557889D01*
X339517Y557290D01*
X338918Y556508D01*
X338541Y555598D01*
X338413Y554622D01*
X338541Y553646D01*
X338918Y552736D01*
X339517Y551955D01*
X340299Y551355D01*
X341209Y550978D01*
X342185Y550850D01*
X343161Y550978D01*
X344071Y551355D01*
X344609Y551768D01*
X346021Y551842D01*
X354905D01*
Y548907D01*
X354893Y548349D01*
X354859Y547908D01*
X354839Y547758D01*
X354822Y547668D01*
X354250Y546922D01*
X353853Y545965D01*
X353718Y544937D01*
X353853Y543909D01*
X354250Y542951D01*
X354881Y542129D01*
X355703Y541498D01*
X356661Y541101D01*
X357689Y540966D01*
X358717Y541101D01*
X359675Y541498D01*
X360497Y542129D01*
X361128Y542951D01*
X361525Y543909D01*
X361660Y544937D01*
X361525Y545965D01*
X361128Y546922D01*
X360548Y547678D01*
X360537Y547738D01*
X360465Y548864D01*
Y551962D01*
X360477Y552522D01*
X360511Y552963D01*
X360531Y553112D01*
X360548Y553201D01*
X361124Y553952D01*
X361521Y554909D01*
X361656Y555937D01*
X361521Y556965D01*
X361124Y557922D01*
X360493Y558745D01*
X359670Y559376D01*
X358713Y559773D01*
X357685Y559908D01*
D02*
G37*
G36*
X389681Y560056D02*
Y556437D01*
X393301D01*
X393224Y557020D01*
X392806Y558030D01*
X392141Y558896D01*
X391274Y559562D01*
X390264Y559980D01*
X389681Y560056D01*
D02*
G37*
G36*
X225878Y702144D02*
X225500Y702095D01*
X224682Y701756D01*
X223980Y701217D01*
X223441Y700515D01*
X223102Y699697D01*
X223053Y699319D01*
X225878D01*
Y702144D01*
D02*
G37*
G36*
X245563D02*
X245185Y702095D01*
X244367Y701756D01*
X243665Y701217D01*
X243126Y700515D01*
X242787Y699697D01*
X242738Y699319D01*
X245563D01*
Y702144D01*
D02*
G37*
G36*
X246563D02*
Y699319D01*
X249388D01*
X249339Y699697D01*
X249000Y700515D01*
X248461Y701217D01*
X247759Y701756D01*
X246941Y702095D01*
X246563Y702144D01*
D02*
G37*
G36*
X226878D02*
Y699319D01*
X229703D01*
X229654Y699697D01*
X229315Y700515D01*
X228776Y701217D01*
X228074Y701756D01*
X227256Y702095D01*
X226878Y702144D01*
D02*
G37*
G36*
X275532Y561262D02*
X274504Y561127D01*
X273546Y560730D01*
X272724Y560099D01*
X272093Y559277D01*
X271696Y558319D01*
X271561Y557291D01*
X271696Y556263D01*
X272093Y555306D01*
X272724Y554483D01*
X273546Y553852D01*
X274504Y553456D01*
X275532Y553320D01*
X276559Y553456D01*
X277517Y553852D01*
X278339Y554483D01*
X278970Y555306D01*
X279367Y556263D01*
X279502Y557291D01*
X279367Y558319D01*
X278970Y559277D01*
X278339Y560099D01*
X277517Y560730D01*
X276559Y561127D01*
X275532Y561262D01*
D02*
G37*
G36*
X284933Y698319D02*
X282108D01*
X282157Y697941D01*
X282496Y697123D01*
X283035Y696421D01*
X283737Y695882D01*
X284555Y695543D01*
X284933Y695494D01*
Y698319D01*
D02*
G37*
G36*
X279655Y567791D02*
X276035D01*
Y564172D01*
X276619Y564249D01*
X277628Y564667D01*
X278495Y565332D01*
X279160Y566199D01*
X279578Y567208D01*
X279655Y567791D01*
D02*
G37*
G36*
X275035D02*
X271416D01*
X271493Y567208D01*
X271911Y566199D01*
X272576Y565332D01*
X273443Y564667D01*
X274452Y564249D01*
X275035Y564172D01*
Y567791D01*
D02*
G37*
G36*
X245563Y698319D02*
X242738D01*
X242787Y697941D01*
X243126Y697123D01*
X243665Y696421D01*
X244367Y695882D01*
X245185Y695543D01*
X245563Y695494D01*
Y698319D01*
D02*
G37*
G36*
X233035Y575564D02*
X232059Y575435D01*
X231149Y575058D01*
X230368Y574459D01*
X229768Y573677D01*
X229392Y572768D01*
X229263Y571791D01*
X229392Y570815D01*
X229768Y569905D01*
X230368Y569124D01*
X231149Y568524D01*
X232059Y568147D01*
X233035Y568019D01*
X234012Y568147D01*
X234922Y568524D01*
X235460Y568937D01*
X236871Y569012D01*
X239388D01*
X239479Y568920D01*
X239665Y568730D01*
X240070Y568278D01*
X240204Y567264D01*
X240600Y566306D01*
X241231Y565483D01*
X242054Y564852D01*
X243012Y564456D01*
X244039Y564320D01*
X245067Y564456D01*
X246025Y564852D01*
X246847Y565483D01*
X247478Y566306D01*
X247875Y567264D01*
X248010Y568291D01*
X247875Y569319D01*
X247478Y570277D01*
X246847Y571099D01*
X246025Y571730D01*
X245067Y572127D01*
X244118Y572252D01*
X243241Y573021D01*
X242505Y573757D01*
X241929Y574199D01*
X241259Y574476D01*
X240539Y574571D01*
X236365D01*
X235699Y574586D01*
X235518Y574600D01*
X234922Y575058D01*
X234012Y575435D01*
X233035Y575564D01*
D02*
G37*
G36*
X249388Y698319D02*
X246563D01*
Y695494D01*
X246941Y695543D01*
X247759Y695882D01*
X248461Y696421D01*
X249000Y697123D01*
X249339Y697941D01*
X249388Y698319D01*
D02*
G37*
G36*
X265248D02*
X262423D01*
X262472Y697941D01*
X262811Y697123D01*
X263350Y696421D01*
X264052Y695882D01*
X264870Y695543D01*
X265248Y695494D01*
Y698319D01*
D02*
G37*
G36*
X269073D02*
X266248D01*
Y695494D01*
X266626Y695543D01*
X267444Y695882D01*
X268146Y696421D01*
X268685Y697123D01*
X269024Y697941D01*
X269073Y698319D01*
D02*
G37*
G36*
X424016Y579803D02*
X414567D01*
Y571171D01*
X414564Y571154D01*
X414567Y571136D01*
Y570354D01*
X415292D01*
X415559Y570326D01*
X415707Y570273D01*
X415838Y570185D01*
X415974Y570038D01*
X416114Y569808D01*
X416247Y569480D01*
X416361Y569055D01*
X416447Y568533D01*
X416501Y567919D01*
X416512Y567525D01*
Y565195D01*
X413074Y561757D01*
X412716Y561415D01*
X411938Y562115D01*
X405034Y569019D01*
X404660Y569416D01*
X404446Y569667D01*
X404458Y569752D01*
X404329Y570728D01*
X403952Y571638D01*
X403352Y572419D01*
X402571Y573019D01*
X401661Y573396D01*
X400685Y573524D01*
X399709Y573396D01*
X398799Y573019D01*
X398018Y572419D01*
X397418Y571638D01*
X397041Y570728D01*
X396913Y569752D01*
X397041Y568776D01*
X397418Y567866D01*
X398018Y567084D01*
X398799Y566485D01*
X399709Y566108D01*
X400113Y566055D01*
X400850Y565341D01*
X408365Y557826D01*
X408825Y557344D01*
X408943Y557206D01*
X409041Y556461D01*
X409418Y555551D01*
X410017Y554769D01*
X410799Y554170D01*
X411709Y553793D01*
X412685Y553664D01*
X413661Y553793D01*
X414571Y554170D01*
X415352Y554769D01*
X415952Y555551D01*
X416329Y556461D01*
X416417Y557133D01*
X417363Y558184D01*
X421257Y562078D01*
X421699Y562653D01*
X421976Y563324D01*
X422071Y564043D01*
Y567525D01*
X422081Y567919D01*
X422135Y568533D01*
X422222Y569055D01*
X422335Y569480D01*
X422469Y569808D01*
X422609Y570038D01*
X422744Y570185D01*
X422876Y570273D01*
X423024Y570326D01*
X423291Y570354D01*
X424016D01*
Y571136D01*
X424019Y571154D01*
X424016Y571171D01*
Y579803D01*
D02*
G37*
G36*
X244035Y561262D02*
X243008Y561127D01*
X242050Y560730D01*
X241300Y560155D01*
X241238Y560143D01*
X240112Y560071D01*
X230131D01*
X230012Y560120D01*
X229035Y560249D01*
X228059Y560120D01*
X227149Y559743D01*
X226368Y559144D01*
X225768Y558362D01*
X225392Y557453D01*
X225263Y556476D01*
X225392Y555500D01*
X225768Y554590D01*
X226368Y553809D01*
X227149Y553209D01*
X228059Y552832D01*
X229035Y552704D01*
X230012Y552832D01*
X230922Y553209D01*
X231703Y553809D01*
X232188Y554441D01*
X233141Y554512D01*
X240060D01*
X240620Y554499D01*
X241061Y554465D01*
X241187Y554448D01*
X241256Y553368D01*
Y549761D01*
X241244Y549203D01*
X241209Y548762D01*
X241189Y548613D01*
X241172Y548522D01*
X240600Y547777D01*
X240204Y546819D01*
X240068Y545791D01*
X240204Y544764D01*
X240600Y543806D01*
X241231Y542983D01*
X242054Y542352D01*
X243012Y541956D01*
X244039Y541820D01*
X245067Y541956D01*
X246025Y542352D01*
X246847Y542983D01*
X247478Y543806D01*
X247875Y544764D01*
X248010Y545791D01*
X247875Y546819D01*
X247478Y547777D01*
X246899Y548532D01*
X246887Y548592D01*
X246815Y549718D01*
Y553316D01*
X246827Y553876D01*
X246862Y554317D01*
X246882Y554466D01*
X246899Y554556D01*
X247474Y555306D01*
X247871Y556263D01*
X248006Y557291D01*
X247871Y558319D01*
X247474Y559277D01*
X246843Y560099D01*
X246021Y560730D01*
X245063Y561127D01*
X244035Y561262D01*
D02*
G37*
G36*
X314461Y609736D02*
X311635D01*
X311685Y609359D01*
X312024Y608541D01*
X312563Y607838D01*
X313265Y607299D01*
X314083Y606961D01*
X314461Y606911D01*
Y609736D01*
D02*
G37*
G36*
X236720Y652740D02*
Y649319D01*
X240142D01*
X240072Y649851D01*
X239673Y650812D01*
X239040Y651638D01*
X238214Y652272D01*
X237252Y652670D01*
X236720Y652740D01*
D02*
G37*
G36*
X235720D02*
X235189Y652670D01*
X234227Y652272D01*
X233401Y651638D01*
X232768Y650812D01*
X232369Y649851D01*
X232299Y649319D01*
X235720D01*
Y652740D01*
D02*
G37*
G36*
X411917D02*
Y649319D01*
X415338D01*
X415268Y649851D01*
X414870Y650812D01*
X414236Y651638D01*
X413411Y652272D01*
X412449Y652670D01*
X411917Y652740D01*
D02*
G37*
G36*
X410917D02*
X410385Y652670D01*
X409424Y652272D01*
X408598Y651638D01*
X407965Y650812D01*
X407566Y649851D01*
X407496Y649319D01*
X410917D01*
Y652740D01*
D02*
G37*
G36*
X299713Y650701D02*
Y646287D01*
X304126D01*
X304023Y647076D01*
X303525Y648277D01*
X302734Y649308D01*
X301702Y650100D01*
X300501Y650597D01*
X299713Y650701D01*
D02*
G37*
G36*
X410917Y648319D02*
X407496D01*
X407566Y647787D01*
X407965Y646825D01*
X408598Y646000D01*
X409424Y645366D01*
X410385Y644968D01*
X410917Y644898D01*
Y648319D01*
D02*
G37*
G36*
X240142D02*
X236720D01*
Y644898D01*
X237252Y644968D01*
X238214Y645366D01*
X239040Y646000D01*
X239673Y646825D01*
X240072Y647787D01*
X240142Y648319D01*
D02*
G37*
G36*
X298713Y650701D02*
X297924Y650597D01*
X296723Y650100D01*
X295691Y649308D01*
X294900Y648277D01*
X294403Y647076D01*
X294299Y646287D01*
X298713D01*
Y650701D01*
D02*
G37*
G36*
X415338Y648319D02*
X411917D01*
Y644898D01*
X412449Y644968D01*
X413411Y645366D01*
X414236Y646000D01*
X414870Y646825D01*
X415268Y647787D01*
X415338Y648319D01*
D02*
G37*
G36*
X331102Y667717D02*
X318504D01*
Y655118D01*
X331102D01*
Y667717D01*
D02*
G37*
G36*
X373516Y670456D02*
X372984Y670386D01*
X372022Y669988D01*
X371197Y669354D01*
X370563Y668529D01*
X370165Y667567D01*
X370095Y667035D01*
X373516D01*
Y670456D01*
D02*
G37*
G36*
X374516D02*
Y667035D01*
X377937D01*
X377867Y667567D01*
X377468Y668529D01*
X376835Y669354D01*
X376009Y669988D01*
X375048Y670386D01*
X374516Y670456D01*
D02*
G37*
G36*
X276091D02*
Y667035D01*
X279512D01*
X279442Y667567D01*
X279043Y668529D01*
X278410Y669354D01*
X277584Y669988D01*
X276622Y670386D01*
X276091Y670456D01*
D02*
G37*
G36*
X275091D02*
X274559Y670386D01*
X273597Y669988D01*
X272771Y669354D01*
X272138Y668529D01*
X271740Y667567D01*
X271670Y667035D01*
X275091D01*
Y670456D01*
D02*
G37*
G36*
X411142Y696850D02*
X401693D01*
Y687401D01*
X407211D01*
X408638Y685975D01*
Y674745D01*
X408637Y674663D01*
X408562Y673452D01*
X408501Y672995D01*
X408426Y672625D01*
X408346Y672359D01*
X408293Y672244D01*
X407677D01*
Y671462D01*
X407674Y671445D01*
X407677Y671427D01*
Y671148D01*
X407674Y671131D01*
X407677Y671114D01*
Y669262D01*
X407463Y668888D01*
X407060Y668308D01*
X405876Y666909D01*
X405450Y666468D01*
X391004Y652022D01*
X390639Y651682D01*
X390095Y651247D01*
X389534Y650865D01*
X388953Y650535D01*
X388353Y650257D01*
X387731Y650029D01*
X387088Y649852D01*
X386420Y649725D01*
X385729Y649648D01*
X385230Y649630D01*
X377345D01*
X376679Y649646D01*
X376499Y649659D01*
X375902Y650117D01*
X374992Y650494D01*
X374016Y650623D01*
X373039Y650494D01*
X372130Y650117D01*
X371348Y649518D01*
X370749Y648736D01*
X370372Y647827D01*
X370243Y646850D01*
X370372Y645874D01*
X370749Y644964D01*
X371348Y644183D01*
X372130Y643583D01*
X373039Y643207D01*
X374016Y643078D01*
X374992Y643207D01*
X375902Y643583D01*
X376440Y643996D01*
X377851Y644071D01*
X385230D01*
X385729Y644053D01*
X386420Y643976D01*
X387088Y643849D01*
X387731Y643671D01*
X388353Y643443D01*
X388953Y643165D01*
X389534Y642836D01*
X390095Y642454D01*
X390639Y642019D01*
X391004Y641679D01*
X395401Y637282D01*
Y626912D01*
X395389Y626352D01*
X395355Y625911D01*
X395335Y625762D01*
X395318Y625673D01*
X394742Y624922D01*
X394345Y623965D01*
X394210Y622937D01*
X394345Y621909D01*
X394742Y620952D01*
X394797Y620880D01*
X394275Y620273D01*
X386759Y612757D01*
X386277Y612297D01*
X386139Y612179D01*
X385394Y612081D01*
X384484Y611704D01*
X383703Y611104D01*
X383103Y610323D01*
X382726Y609413D01*
X382598Y608437D01*
X382726Y607461D01*
X383103Y606551D01*
X383703Y605769D01*
X384484Y605170D01*
X385394Y604793D01*
X386370Y604665D01*
X387347Y604793D01*
X388256Y605170D01*
X389038Y605769D01*
X389637Y606551D01*
X390014Y607461D01*
X390103Y608133D01*
X391048Y609184D01*
X400147Y618282D01*
X400588Y618858D01*
X400866Y619528D01*
X400940Y620092D01*
X400989Y620129D01*
X401620Y620952D01*
X402017Y621909D01*
X402152Y622937D01*
X402017Y623965D01*
X401620Y624922D01*
X401045Y625673D01*
X401033Y625735D01*
X400961Y626860D01*
Y638433D01*
X400866Y639152D01*
X400588Y639823D01*
X400147Y640399D01*
X395808Y644737D01*
X395460Y645124D01*
X395132Y645592D01*
X394911Y646034D01*
X394787Y646450D01*
X394746Y646850D01*
X394787Y647250D01*
X394911Y647667D01*
X395132Y648109D01*
X395460Y648577D01*
X395808Y648963D01*
X409199Y662354D01*
X410560Y663619D01*
X411212Y664140D01*
X411801Y664550D01*
X412176Y664764D01*
X414027D01*
X414044Y664760D01*
X414062Y664764D01*
X415158D01*
Y671427D01*
X415161Y671445D01*
X415158Y671462D01*
Y672244D01*
X414541D01*
X414489Y672359D01*
X414408Y672625D01*
X414338Y672975D01*
X414198Y674672D01*
X414197Y674745D01*
Y687126D01*
X414102Y687845D01*
X413825Y688516D01*
X413383Y689091D01*
X411142Y691333D01*
Y696850D01*
D02*
G37*
G36*
X279512Y666035D02*
X276091D01*
Y662614D01*
X276622Y662684D01*
X277584Y663083D01*
X278410Y663716D01*
X279043Y664542D01*
X279442Y665504D01*
X279512Y666035D01*
D02*
G37*
G36*
X275091D02*
X271670D01*
X271740Y665504D01*
X272138Y664542D01*
X272771Y663716D01*
X273597Y663083D01*
X274559Y662684D01*
X275091Y662614D01*
Y666035D01*
D02*
G37*
G36*
X377937D02*
X374516D01*
Y662614D01*
X375048Y662684D01*
X376009Y663083D01*
X376835Y663716D01*
X377468Y664542D01*
X377867Y665504D01*
X377937Y666035D01*
D02*
G37*
G36*
X373516D02*
X370095D01*
X370165Y665504D01*
X370563Y664542D01*
X371197Y663716D01*
X372022Y663083D01*
X372984Y662684D01*
X373516Y662614D01*
Y666035D01*
D02*
G37*
G36*
X235720Y648319D02*
X232299D01*
X232369Y647787D01*
X232768Y646825D01*
X233401Y646000D01*
X234227Y645366D01*
X235189Y644968D01*
X235720Y644898D01*
Y648319D01*
D02*
G37*
G36*
X334146Y613562D02*
X333768Y613512D01*
X332950Y613173D01*
X332248Y612634D01*
X331709Y611932D01*
X331370Y611114D01*
X331320Y610736D01*
X334146D01*
Y613562D01*
D02*
G37*
G36*
X315461D02*
Y610736D01*
X318286D01*
X318236Y611114D01*
X317898Y611932D01*
X317359Y612634D01*
X316656Y613173D01*
X315838Y613512D01*
X315461Y613562D01*
D02*
G37*
G36*
X314461Y629421D02*
X311635D01*
X311685Y629043D01*
X312024Y628226D01*
X312563Y627523D01*
X313265Y626984D01*
X314083Y626646D01*
X314461Y626596D01*
Y629421D01*
D02*
G37*
G36*
X335146Y613562D02*
Y610736D01*
X337971D01*
X337921Y611114D01*
X337582Y611932D01*
X337044Y612634D01*
X336341Y613173D01*
X335523Y613512D01*
X335146Y613562D01*
D02*
G37*
G36*
X314461D02*
X314083Y613512D01*
X313265Y613173D01*
X312563Y612634D01*
X312024Y611932D01*
X311685Y611114D01*
X311635Y610736D01*
X314461D01*
Y613562D01*
D02*
G37*
G36*
X334146Y609736D02*
X331320D01*
X331370Y609359D01*
X331709Y608541D01*
X332248Y607838D01*
X332950Y607299D01*
X333768Y606961D01*
X334146Y606911D01*
Y609736D01*
D02*
G37*
G36*
X318286D02*
X315461D01*
Y606911D01*
X315838Y606961D01*
X316656Y607299D01*
X317359Y607838D01*
X317898Y608541D01*
X318236Y609359D01*
X318286Y609736D01*
D02*
G37*
G36*
X254035Y630262D02*
X253008Y630127D01*
X252050Y629730D01*
X251227Y629099D01*
X250596Y628277D01*
X250200Y627319D01*
X250064Y626291D01*
X250200Y625264D01*
X250596Y624306D01*
X251172Y623556D01*
X251184Y623494D01*
X251256Y622368D01*
Y615621D01*
X251240Y614955D01*
X251226Y614774D01*
X250768Y614178D01*
X250392Y613268D01*
X250263Y612291D01*
X250392Y611315D01*
X250768Y610405D01*
X251368Y609624D01*
X252149Y609024D01*
X253059Y608647D01*
X254035Y608519D01*
X255012Y608647D01*
X255922Y609024D01*
X256703Y609624D01*
X257302Y610405D01*
X257679Y611315D01*
X257808Y612291D01*
X257679Y613268D01*
X257302Y614178D01*
X256890Y614715D01*
X256815Y616127D01*
Y622316D01*
X256827Y622876D01*
X256862Y623317D01*
X256882Y623466D01*
X256899Y623556D01*
X257474Y624306D01*
X257871Y625264D01*
X258006Y626291D01*
X257871Y627319D01*
X257474Y628277D01*
X256843Y629099D01*
X256021Y629730D01*
X255063Y630127D01*
X254035Y630262D01*
D02*
G37*
G36*
X337971Y609736D02*
X335146D01*
Y606911D01*
X335523Y606961D01*
X336341Y607299D01*
X337044Y607838D01*
X337582Y608541D01*
X337921Y609359D01*
X337971Y609736D01*
D02*
G37*
G36*
X318286Y629421D02*
X315461D01*
Y626596D01*
X315838Y626646D01*
X316656Y626984D01*
X317359Y627523D01*
X317898Y628226D01*
X318236Y629043D01*
X318286Y629421D01*
D02*
G37*
G36*
X298713Y645287D02*
X294299D01*
X294403Y644498D01*
X294900Y643297D01*
X295691Y642266D01*
X296723Y641475D01*
X297924Y640977D01*
X298713Y640874D01*
Y645287D01*
D02*
G37*
G36*
X335146Y633247D02*
Y630421D01*
X337971D01*
X337921Y630799D01*
X337582Y631617D01*
X337044Y632319D01*
X336341Y632858D01*
X335523Y633197D01*
X335146Y633247D01*
D02*
G37*
G36*
X324803Y686647D02*
X323491Y686517D01*
X322230Y686135D01*
X321067Y685513D01*
X320048Y684677D01*
X319211Y683658D01*
X318590Y682495D01*
X318207Y681233D01*
X318078Y679921D01*
X318207Y678609D01*
X318590Y677348D01*
X319211Y676185D01*
X320048Y675166D01*
X321067Y674329D01*
X322230Y673708D01*
X323491Y673325D01*
X324803Y673196D01*
X326115Y673325D01*
X327377Y673708D01*
X328539Y674329D01*
X329559Y675166D01*
X330395Y676185D01*
X331016Y677348D01*
X331399Y678609D01*
X331528Y679921D01*
X331399Y681233D01*
X331016Y682495D01*
X330395Y683658D01*
X329559Y684677D01*
X328539Y685513D01*
X327377Y686135D01*
X326115Y686517D01*
X324803Y686647D01*
D02*
G37*
G36*
X304126Y645287D02*
X299713D01*
Y640874D01*
X300501Y640977D01*
X301702Y641475D01*
X302734Y642266D01*
X303525Y643297D01*
X304023Y644498D01*
X304126Y645287D01*
D02*
G37*
G36*
X334146Y633247D02*
X333768Y633197D01*
X332950Y632858D01*
X332248Y632319D01*
X331709Y631617D01*
X331370Y630799D01*
X331320Y630421D01*
X334146D01*
Y633247D01*
D02*
G37*
G36*
X337971Y629421D02*
X335146D01*
Y626596D01*
X335523Y626646D01*
X336341Y626984D01*
X337044Y627523D01*
X337582Y628226D01*
X337921Y629043D01*
X337971Y629421D01*
D02*
G37*
G36*
X334146D02*
X331320D01*
X331370Y629043D01*
X331709Y628226D01*
X332248Y627523D01*
X332950Y626984D01*
X333768Y626646D01*
X334146Y626596D01*
Y629421D01*
D02*
G37*
G36*
X315461Y633247D02*
Y630421D01*
X318286D01*
X318236Y630799D01*
X317898Y631617D01*
X317359Y632319D01*
X316656Y632858D01*
X315838Y633197D01*
X315461Y633247D01*
D02*
G37*
G36*
X314461D02*
X314083Y633197D01*
X313265Y632858D01*
X312563Y632319D01*
X312024Y631617D01*
X311685Y630799D01*
X311635Y630421D01*
X314461D01*
Y633247D01*
D02*
G37*
G36*
X269073Y737689D02*
X266248D01*
Y734864D01*
X266626Y734913D01*
X267444Y735252D01*
X268146Y735791D01*
X268685Y736493D01*
X269024Y737311D01*
X269073Y737689D01*
D02*
G37*
G36*
X284933D02*
X282108D01*
X282157Y737311D01*
X282496Y736493D01*
X283035Y735791D01*
X283737Y735252D01*
X284555Y734913D01*
X284933Y734864D01*
Y737689D01*
D02*
G37*
G36*
X412370Y520937D02*
X408949D01*
X409019Y520405D01*
X409417Y519444D01*
X410051Y518618D01*
X410877Y517984D01*
X411838Y517586D01*
X412370Y517516D01*
Y520937D01*
D02*
G37*
G36*
X265248Y737689D02*
X262423D01*
X262472Y737311D01*
X262811Y736493D01*
X263350Y735791D01*
X264052Y735252D01*
X264870Y734913D01*
X265248Y734864D01*
Y737689D01*
D02*
G37*
G36*
X416791Y520937D02*
X413370D01*
Y517516D01*
X413902Y517586D01*
X414863Y517984D01*
X415689Y518618D01*
X416323Y519444D01*
X416721Y520405D01*
X416791Y520937D01*
D02*
G37*
G36*
X374016Y538807D02*
X373194Y538698D01*
X372427Y538381D01*
X371769Y537876D01*
X371265Y537218D01*
X370947Y536452D01*
X370839Y535630D01*
X370947Y534808D01*
X371265Y534042D01*
X371769Y533384D01*
X372427Y532879D01*
X373194Y532561D01*
X374016Y532453D01*
X374095Y532464D01*
X374231Y532460D01*
X374403Y532444D01*
X374564Y532417D01*
X374714Y532379D01*
X374855Y532332D01*
X374988Y532273D01*
X375115Y532205D01*
X375237Y532125D01*
X375297Y532078D01*
X383237Y524138D01*
Y518379D01*
X383227Y518302D01*
X383198Y518160D01*
X383157Y518022D01*
X383104Y517886D01*
X383038Y517753D01*
X382958Y517620D01*
X382864Y517487D01*
X382753Y517354D01*
X382659Y517255D01*
X382596Y517207D01*
X382091Y516549D01*
X381774Y515783D01*
X381666Y514961D01*
X381774Y514138D01*
X382091Y513372D01*
X382596Y512714D01*
X383254Y512209D01*
X384020Y511892D01*
X384842Y511784D01*
X385665Y511892D01*
X386431Y512209D01*
X387089Y512714D01*
X387594Y513372D01*
X387911Y514138D01*
X388019Y514961D01*
X387911Y515783D01*
X387594Y516549D01*
X387089Y517207D01*
X387026Y517255D01*
X386932Y517354D01*
X386821Y517487D01*
X386727Y517620D01*
X386647Y517753D01*
X386581Y517886D01*
X386528Y518022D01*
X386487Y518160D01*
X386457Y518302D01*
X386448Y518379D01*
Y524803D01*
X386326Y525418D01*
X385978Y525939D01*
X385978Y525939D01*
X377568Y534348D01*
X377521Y534409D01*
X377441Y534531D01*
X377372Y534657D01*
X377314Y534791D01*
X377266Y534932D01*
X377228Y535082D01*
X377201Y535243D01*
X377185Y535415D01*
X377182Y535551D01*
X377192Y535630D01*
X377084Y536452D01*
X376767Y537218D01*
X376262Y537876D01*
X375604Y538381D01*
X374838Y538698D01*
X374016Y538807D01*
D02*
G37*
G36*
X259842Y539791D02*
X259020Y539683D01*
X258254Y539365D01*
X257596Y538860D01*
X257091Y538202D01*
X256774Y537436D01*
X256666Y536614D01*
X256774Y535792D01*
X257091Y535026D01*
X257596Y534368D01*
X257659Y534319D01*
X257753Y534221D01*
X257864Y534088D01*
X257958Y533955D01*
X258038Y533822D01*
X258104Y533688D01*
X258157Y533553D01*
X258198Y533415D01*
X258228Y533273D01*
X258237Y533196D01*
Y530709D01*
X258237Y530709D01*
X258359Y530094D01*
X258707Y529573D01*
X270028Y518252D01*
X270009Y518160D01*
X269968Y518022D01*
X269915Y517886D01*
X269849Y517753D01*
X269769Y517620D01*
X269675Y517487D01*
X269564Y517354D01*
X269470Y517255D01*
X269407Y517207D01*
X268902Y516549D01*
X268585Y515783D01*
X268477Y514961D01*
X268585Y514138D01*
X268902Y513372D01*
X269407Y512714D01*
X270065Y512209D01*
X270831Y511892D01*
X271654Y511784D01*
X272476Y511892D01*
X273242Y512209D01*
X273900Y512714D01*
X274405Y513372D01*
X274722Y514138D01*
X274830Y514961D01*
X274722Y515783D01*
X274405Y516549D01*
X273900Y517207D01*
X273837Y517255D01*
X273743Y517354D01*
X273632Y517487D01*
X273538Y517620D01*
X273458Y517753D01*
X273392Y517886D01*
X273339Y518022D01*
X273298Y518160D01*
X273269Y518302D01*
X273259Y518379D01*
Y518898D01*
X273137Y519512D01*
X272789Y520033D01*
X272789Y520033D01*
X261448Y531374D01*
Y533196D01*
X261457Y533273D01*
X261487Y533415D01*
X261528Y533553D01*
X261581Y533688D01*
X261647Y533822D01*
X261727Y533955D01*
X261821Y534088D01*
X261932Y534221D01*
X262026Y534319D01*
X262089Y534368D01*
X262594Y535026D01*
X262911Y535792D01*
X263019Y536614D01*
X262911Y537436D01*
X262594Y538202D01*
X262089Y538860D01*
X261431Y539365D01*
X260665Y539683D01*
X259842Y539791D01*
D02*
G37*
G36*
X266248Y741514D02*
Y738689D01*
X269073D01*
X269024Y739067D01*
X268685Y739885D01*
X268146Y740587D01*
X267444Y741126D01*
X266626Y741465D01*
X266248Y741514D01*
D02*
G37*
G36*
X288758Y737689D02*
X285933D01*
Y734864D01*
X286311Y734913D01*
X287129Y735252D01*
X287831Y735791D01*
X288370Y736493D01*
X288709Y737311D01*
X288758Y737689D01*
D02*
G37*
G36*
X265248Y741514D02*
X264870Y741465D01*
X264052Y741126D01*
X263350Y740587D01*
X262811Y739885D01*
X262472Y739067D01*
X262423Y738689D01*
X265248D01*
Y741514D01*
D02*
G37*
G36*
X285933Y721829D02*
Y719004D01*
X288758D01*
X288709Y719382D01*
X288370Y720199D01*
X287831Y720902D01*
X287129Y721441D01*
X286311Y721780D01*
X285933Y721829D01*
D02*
G37*
G36*
X328740Y737049D02*
X320866D01*
X319633Y736886D01*
X318484Y736410D01*
X317497Y735653D01*
X316739Y734666D01*
X316263Y733517D01*
X316101Y732283D01*
Y724409D01*
X316263Y723176D01*
X316739Y722027D01*
X317497Y721040D01*
X318484Y720283D01*
X319633Y719807D01*
X320866Y719644D01*
X328740D01*
X329974Y719807D01*
X331123Y720283D01*
X332110Y721040D01*
X332867Y722027D01*
X333343Y723176D01*
X333505Y724409D01*
Y732283D01*
X333343Y733517D01*
X332867Y734666D01*
X332110Y735653D01*
X331123Y736410D01*
X329974Y736886D01*
X328740Y737049D01*
D02*
G37*
G36*
X279535Y526212D02*
Y522791D01*
X282956D01*
X282886Y523323D01*
X282488Y524285D01*
X281855Y525110D01*
X281029Y525744D01*
X280067Y526142D01*
X279535Y526212D01*
D02*
G37*
G36*
X266248Y721829D02*
Y719004D01*
X269073D01*
X269024Y719382D01*
X268685Y720199D01*
X268146Y720902D01*
X267444Y721441D01*
X266626Y721780D01*
X266248Y721829D01*
D02*
G37*
G36*
X284933D02*
X284555Y721780D01*
X283737Y721441D01*
X283035Y720902D01*
X282496Y720199D01*
X282157Y719382D01*
X282108Y719004D01*
X284933D01*
Y721829D01*
D02*
G37*
G36*
X282956Y521791D02*
X279535D01*
Y518370D01*
X280067Y518440D01*
X281029Y518839D01*
X281855Y519472D01*
X282488Y520298D01*
X282886Y521259D01*
X282956Y521791D01*
D02*
G37*
G36*
X278535D02*
X275114D01*
X275184Y521259D01*
X275583Y520298D01*
X276216Y519472D01*
X277042Y518839D01*
X278004Y518440D01*
X278535Y518370D01*
Y521791D01*
D02*
G37*
G36*
X412370Y525358D02*
X411838Y525288D01*
X410877Y524890D01*
X410051Y524256D01*
X409417Y523430D01*
X409019Y522469D01*
X408949Y521937D01*
X412370D01*
Y525358D01*
D02*
G37*
G36*
X278535Y526212D02*
X278004Y526142D01*
X277042Y525744D01*
X276216Y525110D01*
X275583Y524285D01*
X275184Y523323D01*
X275114Y522791D01*
X278535D01*
Y526212D01*
D02*
G37*
G36*
X413370Y525358D02*
Y521937D01*
X416791D01*
X416721Y522469D01*
X416323Y523430D01*
X415689Y524256D01*
X414863Y524890D01*
X413902Y525288D01*
X413370Y525358D01*
D02*
G37*
G36*
X284933Y741514D02*
X284555Y741465D01*
X283737Y741126D01*
X283035Y740587D01*
X282496Y739885D01*
X282157Y739067D01*
X282108Y738689D01*
X284933D01*
Y741514D01*
D02*
G37*
G36*
X324303Y760289D02*
X321555D01*
X320446Y760143D01*
X319413Y759715D01*
X318525Y759034D01*
X317845Y758146D01*
X317416Y757113D01*
X317270Y756004D01*
Y753256D01*
X324303D01*
Y760289D01*
D02*
G37*
G36*
X298535Y544379D02*
X297559Y544250D01*
X296649Y543873D01*
X295868Y543274D01*
X295268Y542492D01*
X294892Y541583D01*
X294763Y540606D01*
X294892Y539630D01*
X295268Y538720D01*
X295681Y538182D01*
X295756Y536771D01*
Y525246D01*
X295749Y524604D01*
X295747Y524560D01*
X295454Y524178D01*
X295077Y523268D01*
X294948Y522291D01*
X295077Y521315D01*
X295454Y520405D01*
X295866Y519867D01*
X295941Y518456D01*
Y497927D01*
X295904Y496804D01*
X295851Y496263D01*
X295779Y495806D01*
X295692Y495447D01*
X295601Y495192D01*
X295523Y495050D01*
X295508Y495032D01*
X295504Y495031D01*
X294795D01*
Y494249D01*
X294792Y494232D01*
X294795Y494215D01*
Y493935D01*
X294792Y493918D01*
X294795Y493901D01*
Y492050D01*
X294581Y491675D01*
X294178Y491095D01*
X292994Y489697D01*
X292568Y489255D01*
X280138Y476825D01*
X279773Y476485D01*
X279229Y476050D01*
X278667Y475668D01*
X278087Y475339D01*
X277486Y475060D01*
X276865Y474833D01*
X276221Y474655D01*
X275554Y474528D01*
X274862Y474451D01*
X274363Y474433D01*
X256241D01*
X256160Y474434D01*
X254948Y474509D01*
X254491Y474570D01*
X254121Y474645D01*
X253855Y474725D01*
X253740Y474778D01*
Y475394D01*
X252958D01*
X252941Y475397D01*
X252923Y475394D01*
X246260D01*
Y467913D01*
X252923D01*
X252941Y467910D01*
X252958Y467913D01*
X253740D01*
Y468530D01*
X253855Y468582D01*
X254121Y468663D01*
X254471Y468733D01*
X256168Y468873D01*
X256241Y468874D01*
X273129D01*
X273649Y468847D01*
X274212Y468747D01*
X274680Y468591D01*
X275063Y468385D01*
X275374Y468130D01*
X275629Y467819D01*
X275835Y467436D01*
X275991Y466967D01*
X276091Y466405D01*
X276118Y465885D01*
Y456427D01*
X271903Y452212D01*
X270540Y450946D01*
X269887Y450423D01*
X269298Y450012D01*
X268934Y449803D01*
X264793D01*
X264776Y449806D01*
X264758Y449803D01*
X263976D01*
Y449078D01*
X263948Y448811D01*
X263896Y448663D01*
X263807Y448532D01*
X263660Y448396D01*
X263430Y448256D01*
X263103Y448123D01*
X262677Y448009D01*
X262155Y447923D01*
X261541Y447869D01*
X261147Y447858D01*
X246260D01*
X245540Y447764D01*
X244870Y447486D01*
X244294Y447044D01*
X227365Y430115D01*
X226923Y429539D01*
X226646Y428869D01*
X226551Y428150D01*
Y408164D01*
X226540Y407917D01*
X226484Y407336D01*
X226447Y407120D01*
X226404Y406936D01*
X226359Y406796D01*
X226318Y406702D01*
X226306Y406681D01*
X226242Y406632D01*
X225548Y405727D01*
X225112Y404674D01*
X224963Y403543D01*
X225112Y402413D01*
X225548Y401359D01*
X226242Y400455D01*
X227147Y399761D01*
X228200Y399324D01*
X229331Y399175D01*
X230461Y399324D01*
X231515Y399761D01*
X232419Y400455D01*
X232468Y400518D01*
X232489Y400531D01*
X232583Y400571D01*
X232723Y400616D01*
X232907Y400660D01*
X233116Y400695D01*
X233999Y400764D01*
X234710D01*
X234957Y400753D01*
X235538Y400697D01*
X235754Y400660D01*
X235938Y400616D01*
X236078Y400571D01*
X236172Y400531D01*
X236193Y400518D01*
X236242Y400455D01*
X237147Y399761D01*
X238200Y399324D01*
X239331Y399175D01*
X240461Y399324D01*
X241515Y399761D01*
X242419Y400455D01*
X242468Y400518D01*
X242489Y400531D01*
X242583Y400571D01*
X242723Y400616D01*
X242907Y400660D01*
X243116Y400695D01*
X243999Y400764D01*
X269494D01*
X269741Y400753D01*
X270321Y400697D01*
X270538Y400660D01*
X270722Y400616D01*
X270862Y400571D01*
X270956Y400531D01*
X270976Y400518D01*
X271025Y400455D01*
X271930Y399761D01*
X272984Y399324D01*
X274114Y399175D01*
X275245Y399324D01*
X276298Y399761D01*
X277203Y400455D01*
X277252Y400518D01*
X277273Y400531D01*
X277367Y400571D01*
X277507Y400616D01*
X277691Y400660D01*
X277899Y400695D01*
X278783Y400764D01*
X279494D01*
X279741Y400753D01*
X280321Y400697D01*
X280538Y400660D01*
X280722Y400616D01*
X280862Y400571D01*
X280956Y400531D01*
X280977Y400518D01*
X281026Y400455D01*
X281930Y399761D01*
X282984Y399324D01*
X284114Y399175D01*
X285245Y399324D01*
X286298Y399761D01*
X287203Y400455D01*
X287897Y401359D01*
X288333Y402413D01*
X288482Y403543D01*
X288333Y404674D01*
X287897Y405727D01*
X287203Y406632D01*
X286298Y407326D01*
X285245Y407763D01*
X284114Y407911D01*
X282984Y407763D01*
X281930Y407326D01*
X281026Y406632D01*
X280977Y406568D01*
X280956Y406556D01*
X280862Y406515D01*
X280722Y406470D01*
X280538Y406427D01*
X280329Y406391D01*
X279446Y406323D01*
X278735D01*
X278488Y406333D01*
X277907Y406390D01*
X277691Y406427D01*
X277507Y406470D01*
X277367Y406515D01*
X277273Y406556D01*
X277252Y406568D01*
X277203Y406632D01*
X276298Y407326D01*
X275245Y407763D01*
X274114Y407911D01*
X272984Y407763D01*
X271930Y407326D01*
X271025Y406632D01*
X270976Y406568D01*
X270955Y406556D01*
X270862Y406515D01*
X270722Y406470D01*
X270538Y406427D01*
X270329Y406391D01*
X269445Y406323D01*
X243951D01*
X243704Y406333D01*
X243124Y406390D01*
X242907Y406427D01*
X242723Y406470D01*
X242583Y406515D01*
X242489Y406556D01*
X242468Y406568D01*
X242419Y406632D01*
X241515Y407326D01*
X240461Y407763D01*
X239331Y407911D01*
X238200Y407763D01*
X237147Y407326D01*
X236242Y406632D01*
X236193Y406568D01*
X236172Y406556D01*
X236078Y406515D01*
X235938Y406470D01*
X235754Y406427D01*
X235546Y406391D01*
X234662Y406323D01*
X233951D01*
X233704Y406333D01*
X233124Y406390D01*
X232907Y406427D01*
X232723Y406470D01*
X232583Y406515D01*
X232489Y406556D01*
X232468Y406568D01*
X232419Y406632D01*
X232356Y406681D01*
X232343Y406702D01*
X232302Y406796D01*
X232258Y406936D01*
X232214Y407120D01*
X232179Y407328D01*
X232110Y408212D01*
Y426998D01*
X247411Y442299D01*
X261147D01*
X261541Y442289D01*
X262155Y442235D01*
X262677Y442148D01*
X263103Y442035D01*
X263430Y441901D01*
X263660Y441761D01*
X263807Y441626D01*
X263896Y441494D01*
X263948Y441346D01*
X263976Y441079D01*
Y440354D01*
X264758D01*
X264776Y440351D01*
X264793Y440354D01*
X273425D01*
Y445311D01*
X273634Y445676D01*
X274039Y446256D01*
X275225Y447656D01*
X275650Y448097D01*
X280863Y453310D01*
X281305Y453886D01*
X281583Y454556D01*
X281677Y455275D01*
Y467120D01*
X281695Y467618D01*
X281772Y468310D01*
X281899Y468977D01*
X282077Y469621D01*
X282305Y470242D01*
X282583Y470843D01*
X282912Y471423D01*
X283294Y471985D01*
X283729Y472529D01*
X284069Y472894D01*
X296317Y485142D01*
X297678Y486406D01*
X298330Y486927D01*
X298919Y487337D01*
X299294Y487551D01*
X301145D01*
X301162Y487548D01*
X301180Y487551D01*
X301459D01*
X301476Y487548D01*
X301493Y487551D01*
X302276D01*
Y488167D01*
X302391Y488220D01*
X302656Y488300D01*
X303006Y488371D01*
X304703Y488511D01*
X304776Y488512D01*
X319244D01*
X319964Y488606D01*
X320634Y488884D01*
X321210Y489326D01*
X324907Y493023D01*
X325604Y493312D01*
X326262Y493817D01*
X326767Y494475D01*
X327084Y495241D01*
X327192Y496063D01*
X327084Y496885D01*
X326767Y497651D01*
X326262Y498309D01*
X325604Y498814D01*
X324838Y499131D01*
X324016Y499240D01*
X323194Y499131D01*
X322427Y498814D01*
X321769Y498309D01*
X321265Y497651D01*
X320976Y496954D01*
X318093Y494071D01*
X304776D01*
X304695Y494072D01*
X303483Y494147D01*
X303026Y494208D01*
X302656Y494282D01*
X302391Y494362D01*
X302276Y494415D01*
Y495031D01*
X301766D01*
X301741Y495098D01*
X301673Y495377D01*
X301613Y495741D01*
X301500Y497441D01*
Y518962D01*
X301516Y519628D01*
X301530Y519808D01*
X301988Y520405D01*
X302364Y521315D01*
X302493Y522291D01*
X302364Y523268D01*
X301988Y524178D01*
X301388Y524959D01*
X301382Y524963D01*
X301315Y525999D01*
Y537277D01*
X301331Y537943D01*
X301345Y538123D01*
X301802Y538720D01*
X302179Y539630D01*
X302308Y540606D01*
X302179Y541583D01*
X301802Y542492D01*
X301203Y543274D01*
X300422Y543873D01*
X299512Y544250D01*
X298535Y544379D01*
D02*
G37*
G36*
X341339Y755363D02*
X339083D01*
Y749319D01*
X345127D01*
Y751575D01*
X344998Y752555D01*
X344619Y753469D01*
X344017Y754253D01*
X343233Y754855D01*
X342319Y755234D01*
X341339Y755363D01*
D02*
G37*
G36*
X345127Y748319D02*
X339083D01*
Y742275D01*
X341339D01*
X342319Y742404D01*
X343233Y742782D01*
X344017Y743384D01*
X344619Y744169D01*
X344998Y745082D01*
X345127Y746063D01*
Y748319D01*
D02*
G37*
G36*
X324303Y752256D02*
X317270D01*
Y749508D01*
X317416Y748399D01*
X317845Y747366D01*
X318525Y746478D01*
X319413Y745797D01*
X320446Y745369D01*
X321555Y745223D01*
X324303D01*
Y752256D01*
D02*
G37*
G36*
X323516Y489546D02*
X323138Y489496D01*
X322320Y489157D01*
X321618Y488618D01*
X321079Y487916D01*
X320740Y487098D01*
X320690Y486720D01*
X323516D01*
Y489546D01*
D02*
G37*
G36*
X327341Y485720D02*
X324516D01*
Y482895D01*
X324893Y482945D01*
X325711Y483284D01*
X326414Y483822D01*
X326953Y484525D01*
X327291Y485343D01*
X327341Y485720D01*
D02*
G37*
G36*
X324516Y489546D02*
Y486720D01*
X327341D01*
X327291Y487098D01*
X326953Y487916D01*
X326414Y488618D01*
X325711Y489157D01*
X324893Y489496D01*
X324516Y489546D01*
D02*
G37*
G36*
X282771Y490791D02*
X279350D01*
Y487370D01*
X279882Y487440D01*
X280844Y487839D01*
X281669Y488472D01*
X282303Y489298D01*
X282701Y490259D01*
X282771Y490791D01*
D02*
G37*
G36*
X278350D02*
X274929D01*
X274999Y490259D01*
X275398Y489298D01*
X276031Y488472D01*
X276857Y487839D01*
X277818Y487440D01*
X278350Y487370D01*
Y490791D01*
D02*
G37*
G36*
X279350Y495212D02*
Y491791D01*
X282771D01*
X282701Y492323D01*
X282303Y493285D01*
X281669Y494110D01*
X280844Y494744D01*
X279882Y495142D01*
X279350Y495212D01*
D02*
G37*
G36*
X232283Y756730D02*
X230779Y756582D01*
X229331Y756143D01*
X227998Y755430D01*
X226829Y754471D01*
X225869Y753302D01*
X225156Y751968D01*
X224717Y750521D01*
X224569Y749016D01*
X224717Y747511D01*
X225156Y746064D01*
X225869Y744730D01*
X226829Y743561D01*
X227998Y742601D01*
X229331Y741889D01*
X230779Y741450D01*
X232283Y741301D01*
X233788Y741450D01*
X235236Y741889D01*
X236569Y742601D01*
X237738Y743561D01*
X238698Y744730D01*
X239411Y746064D01*
X239849Y747511D01*
X239998Y749016D01*
X239849Y750521D01*
X239411Y751968D01*
X238698Y753302D01*
X237738Y754471D01*
X236569Y755430D01*
X235236Y756143D01*
X233788Y756582D01*
X232283Y756730D01*
D02*
G37*
G36*
X412185Y495890D02*
X408732D01*
Y492437D01*
X412185D01*
Y495890D01*
D02*
G37*
G36*
X285933Y741514D02*
Y738689D01*
X288758D01*
X288709Y739067D01*
X288370Y739885D01*
X287831Y740587D01*
X287129Y741126D01*
X286311Y741465D01*
X285933Y741514D01*
D02*
G37*
G36*
X416638Y495890D02*
X413185D01*
Y492437D01*
X416638D01*
Y495890D01*
D02*
G37*
G36*
Y491437D02*
X413185D01*
Y487984D01*
X416638D01*
Y491437D01*
D02*
G37*
G36*
X412185D02*
X408732D01*
Y487984D01*
X412185D01*
Y491437D01*
D02*
G37*
G36*
X328051Y760289D02*
X325303D01*
Y752756D01*
Y745223D01*
X328051D01*
X329160Y745369D01*
X330193Y745797D01*
X331081Y746478D01*
X331539Y747074D01*
X332038Y746905D01*
Y746063D01*
X332168Y745082D01*
X332546Y744169D01*
X333148Y743384D01*
X333933Y742782D01*
X334846Y742404D01*
X335827Y742275D01*
X338083D01*
Y748819D01*
Y755363D01*
X335827D01*
X334846Y755234D01*
X333933Y754855D01*
X333148Y754253D01*
X332836Y753847D01*
X332336Y754016D01*
Y756004D01*
X332190Y757113D01*
X331762Y758146D01*
X331081Y759034D01*
X330193Y759715D01*
X329160Y760143D01*
X328051Y760289D01*
D02*
G37*
G36*
X278350Y495212D02*
X277818Y495142D01*
X276857Y494744D01*
X276031Y494110D01*
X275398Y493285D01*
X274999Y492323D01*
X274929Y491791D01*
X278350D01*
Y495212D01*
D02*
G37*
G36*
X415158Y756730D02*
X413653Y756582D01*
X412205Y756143D01*
X410872Y755430D01*
X409703Y754471D01*
X408743Y753302D01*
X408030Y751968D01*
X407591Y750521D01*
X407443Y749016D01*
X407591Y747511D01*
X408030Y746064D01*
X408743Y744730D01*
X409703Y743561D01*
X410872Y742601D01*
X412205Y741889D01*
X413653Y741450D01*
X415158Y741301D01*
X416663Y741450D01*
X418110Y741889D01*
X419443Y742601D01*
X420612Y743561D01*
X421572Y744730D01*
X422285Y746064D01*
X422723Y747511D01*
X422872Y749016D01*
X422723Y750521D01*
X422285Y751968D01*
X421572Y753302D01*
X420612Y754471D01*
X419443Y755430D01*
X418110Y756143D01*
X416663Y756582D01*
X415158Y756730D01*
D02*
G37*
G36*
X413185Y541673D02*
Y538252D01*
X416606D01*
X416536Y538784D01*
X416138Y539745D01*
X415504Y540571D01*
X414678Y541205D01*
X413717Y541603D01*
X413185Y541673D01*
D02*
G37*
G36*
X284933Y718004D02*
X282108D01*
X282157Y717626D01*
X282496Y716808D01*
X283035Y716106D01*
X283737Y715567D01*
X284555Y715228D01*
X284933Y715178D01*
Y718004D01*
D02*
G37*
G36*
X412185Y541673D02*
X411653Y541603D01*
X410692Y541205D01*
X409866Y540571D01*
X409232Y539745D01*
X408834Y538784D01*
X408764Y538252D01*
X412185D01*
Y541673D01*
D02*
G37*
G36*
X269073Y718004D02*
X266248D01*
Y715178D01*
X266626Y715228D01*
X267444Y715567D01*
X268146Y716106D01*
X268685Y716808D01*
X269024Y717626D01*
X269073Y718004D01*
D02*
G37*
G36*
X288758D02*
X285933D01*
Y715178D01*
X286311Y715228D01*
X287129Y715567D01*
X287831Y716106D01*
X288370Y716808D01*
X288709Y717626D01*
X288758Y718004D01*
D02*
G37*
G36*
X395023Y716429D02*
X391602D01*
Y713008D01*
X392134Y713078D01*
X393096Y713476D01*
X393921Y714110D01*
X394555Y714936D01*
X394953Y715897D01*
X395023Y716429D01*
D02*
G37*
G36*
X275035Y545291D02*
X271416D01*
X271493Y544708D01*
X271911Y543699D01*
X272576Y542832D01*
X273443Y542167D01*
X274452Y541749D01*
X275035Y541672D01*
Y545291D01*
D02*
G37*
G36*
X390602Y720850D02*
X390071Y720780D01*
X389109Y720382D01*
X388283Y719748D01*
X387650Y718923D01*
X387251Y717961D01*
X387181Y717429D01*
X390602D01*
Y720850D01*
D02*
G37*
G36*
X391602D02*
Y717429D01*
X395023D01*
X394953Y717961D01*
X394555Y718923D01*
X393921Y719748D01*
X393096Y720382D01*
X392134Y720780D01*
X391602Y720850D01*
D02*
G37*
G36*
X225878Y718004D02*
X223053D01*
X223102Y717626D01*
X223441Y716808D01*
X223980Y716106D01*
X224682Y715567D01*
X225500Y715228D01*
X225878Y715178D01*
Y718004D01*
D02*
G37*
G36*
X228535Y540712D02*
X228004Y540642D01*
X227042Y540244D01*
X226216Y539610D01*
X225583Y538785D01*
X225184Y537823D01*
X225114Y537291D01*
X228535D01*
Y540712D01*
D02*
G37*
G36*
X416606Y537252D02*
X413185D01*
Y533831D01*
X413717Y533901D01*
X414678Y534299D01*
X415504Y534933D01*
X416138Y535758D01*
X416536Y536720D01*
X416606Y537252D01*
D02*
G37*
G36*
X384842Y720669D02*
X377362D01*
Y719573D01*
X377359Y719556D01*
X377362Y719539D01*
Y717687D01*
X377148Y717313D01*
X376745Y716733D01*
X375561Y715334D01*
X375135Y714893D01*
X363271Y703028D01*
X362829Y702453D01*
X362551Y701782D01*
X362456Y701063D01*
Y697696D01*
X362435Y697137D01*
X362401Y696819D01*
X362353Y696528D01*
X362295Y696271D01*
X362227Y696050D01*
X362152Y695866D01*
X362074Y695716D01*
X361995Y695600D01*
X361978Y695580D01*
X361867Y695495D01*
X361109Y694509D01*
X360633Y693359D01*
X360471Y692126D01*
X360633Y690893D01*
X361109Y689743D01*
X361867Y688756D01*
X362854Y687999D01*
X364003Y687523D01*
X365236Y687361D01*
X366470Y687523D01*
X367619Y687999D01*
X368606Y688756D01*
X369363Y689743D01*
X369839Y690893D01*
X370001Y692126D01*
X369839Y693359D01*
X369363Y694509D01*
X368606Y695495D01*
X368495Y695580D01*
X368477Y695600D01*
X368398Y695716D01*
X368320Y695866D01*
X368246Y696050D01*
X368178Y696271D01*
X368119Y696528D01*
X368073Y696810D01*
X368016Y697502D01*
Y699912D01*
X378884Y710780D01*
X380245Y712044D01*
X380897Y712565D01*
X381486Y712975D01*
X381861Y713189D01*
X383712D01*
X383729Y713186D01*
X383747Y713189D01*
X384842D01*
Y720669D01*
D02*
G37*
G36*
X229703Y718004D02*
X226878D01*
Y715178D01*
X227256Y715228D01*
X228074Y715567D01*
X228776Y716106D01*
X229315Y716808D01*
X229654Y717626D01*
X229703Y718004D01*
D02*
G37*
G36*
X249388D02*
X246563D01*
Y715178D01*
X246941Y715228D01*
X247759Y715567D01*
X248461Y716106D01*
X249000Y716808D01*
X249339Y717626D01*
X249388Y718004D01*
D02*
G37*
G36*
X265248D02*
X262423D01*
X262472Y717626D01*
X262811Y716808D01*
X263350Y716106D01*
X264052Y715567D01*
X264870Y715228D01*
X265248Y715178D01*
Y718004D01*
D02*
G37*
G36*
X229535Y540712D02*
Y537291D01*
X232956D01*
X232886Y537823D01*
X232488Y538785D01*
X231855Y539610D01*
X231029Y540244D01*
X230067Y540642D01*
X229535Y540712D01*
D02*
G37*
G36*
X245563Y718004D02*
X242738D01*
X242787Y717626D01*
X243126Y716808D01*
X243665Y716106D01*
X244367Y715567D01*
X245185Y715228D01*
X245563Y715178D01*
Y718004D01*
D02*
G37*
G36*
X279655Y545291D02*
X276035D01*
Y541672D01*
X276619Y541749D01*
X277628Y542167D01*
X278495Y542832D01*
X279160Y543699D01*
X279578Y544708D01*
X279655Y545291D01*
D02*
G37*
G36*
X388681Y555437D02*
X385062D01*
X385138Y554854D01*
X385556Y553844D01*
X386222Y552977D01*
X387088Y552312D01*
X388098Y551894D01*
X388681Y551817D01*
Y555437D01*
D02*
G37*
G36*
X228535Y536291D02*
X225114D01*
X225184Y535759D01*
X225583Y534798D01*
X226216Y533972D01*
X227042Y533339D01*
X228004Y532940D01*
X228535Y532870D01*
Y536291D01*
D02*
G37*
G36*
X265248Y702144D02*
X264870Y702095D01*
X264052Y701756D01*
X263350Y701217D01*
X262811Y700515D01*
X262472Y699697D01*
X262423Y699319D01*
X265248D01*
Y702144D01*
D02*
G37*
G36*
X232956Y536291D02*
X229535D01*
Y532870D01*
X230067Y532940D01*
X231029Y533339D01*
X231855Y533972D01*
X232488Y534798D01*
X232886Y535759D01*
X232956Y536291D01*
D02*
G37*
G36*
X245563Y721829D02*
X245185Y721780D01*
X244367Y721441D01*
X243665Y720902D01*
X243126Y720199D01*
X242787Y719382D01*
X242738Y719004D01*
X245563D01*
Y721829D01*
D02*
G37*
G36*
X265248D02*
X264870Y721780D01*
X264052Y721441D01*
X263350Y720902D01*
X262811Y720199D01*
X262472Y719382D01*
X262423Y719004D01*
X265248D01*
Y721829D01*
D02*
G37*
G36*
X393301Y555437D02*
X389681D01*
Y551817D01*
X390264Y551894D01*
X391274Y552312D01*
X392141Y552977D01*
X392806Y553844D01*
X393224Y554854D01*
X393301Y555437D01*
D02*
G37*
G36*
X246563Y721829D02*
Y719004D01*
X249388D01*
X249339Y719382D01*
X249000Y720199D01*
X248461Y720902D01*
X247759Y721441D01*
X246941Y721780D01*
X246563Y721829D01*
D02*
G37*
G36*
X303937Y609331D02*
X294488D01*
Y600699D01*
X294485Y600681D01*
X294488Y600664D01*
Y599882D01*
X295213D01*
X295480Y599854D01*
X295628Y599801D01*
X295760Y599713D01*
X295895Y599566D01*
X296035Y599335D01*
X296168Y599008D01*
X296282Y598582D01*
X296369Y598061D01*
X296423Y597447D01*
X296433Y597053D01*
Y582435D01*
X289924Y575926D01*
X289442Y575466D01*
X289305Y575348D01*
X288559Y575250D01*
X287649Y574873D01*
X286868Y574274D01*
X286268Y573492D01*
X285892Y572583D01*
X285763Y571606D01*
X285892Y570630D01*
X286268Y569720D01*
X286756Y569085D01*
Y567945D01*
X286851Y567225D01*
X287128Y566555D01*
X287570Y565979D01*
X295223Y558326D01*
X295481Y558128D01*
X295868Y557624D01*
X295986Y557533D01*
X296183Y557340D01*
X296354Y557150D01*
X296500Y556961D01*
X296623Y556776D01*
X296724Y556592D01*
X296805Y556410D01*
X296866Y556229D01*
X296867Y556225D01*
X272935Y532293D01*
X272874Y532245D01*
X272753Y532165D01*
X272626Y532097D01*
X272493Y532038D01*
X272352Y531991D01*
X272201Y531953D01*
X272041Y531926D01*
X271869Y531910D01*
X271732Y531907D01*
X271654Y531917D01*
X270831Y531809D01*
X270065Y531491D01*
X269407Y530986D01*
X268902Y530329D01*
X268585Y529562D01*
X268477Y528740D01*
X268585Y527918D01*
X268902Y527152D01*
X269407Y526494D01*
X270065Y525989D01*
X270831Y525672D01*
X271654Y525563D01*
X272476Y525672D01*
X273242Y525989D01*
X273900Y526494D01*
X274405Y527152D01*
X274722Y527918D01*
X274830Y528740D01*
X274820Y528819D01*
X274823Y528955D01*
X274839Y529127D01*
X274866Y529288D01*
X274904Y529438D01*
X274952Y529579D01*
X275010Y529713D01*
X275079Y529839D01*
X275158Y529961D01*
X275206Y530022D01*
X299671Y554487D01*
X300019Y555008D01*
X300141Y555622D01*
X300141Y555622D01*
Y555904D01*
X300161Y556047D01*
X300204Y556228D01*
X300266Y556410D01*
X300347Y556592D01*
X300448Y556776D01*
X300571Y556961D01*
X300717Y557150D01*
X300888Y557340D01*
X301085Y557533D01*
X301203Y557624D01*
X301802Y558405D01*
X302179Y559315D01*
X302308Y560291D01*
X302179Y561268D01*
X301802Y562178D01*
X301203Y562959D01*
X300422Y563558D01*
X299512Y563935D01*
X298535Y564064D01*
X297559Y563935D01*
X297556Y563934D01*
X297541Y563944D01*
X296900Y564511D01*
X292320Y569091D01*
X292802Y569720D01*
X293179Y570630D01*
X293268Y571302D01*
X294213Y572353D01*
X301178Y579318D01*
X301620Y579894D01*
X301898Y580564D01*
X301992Y581283D01*
Y597053D01*
X302003Y597447D01*
X302056Y598061D01*
X302143Y598582D01*
X302257Y599008D01*
X302390Y599335D01*
X302530Y599566D01*
X302666Y599713D01*
X302797Y599801D01*
X302945Y599854D01*
X303212Y599882D01*
X303937D01*
Y600664D01*
X303940Y600681D01*
X303937Y600699D01*
Y609331D01*
D02*
G37*
G36*
X276035Y549911D02*
Y546291D01*
X279655D01*
X279578Y546875D01*
X279160Y547884D01*
X278495Y548751D01*
X277628Y549416D01*
X276619Y549834D01*
X276035Y549911D01*
D02*
G37*
G36*
X225878Y721829D02*
X225500Y721780D01*
X224682Y721441D01*
X223980Y720902D01*
X223441Y720199D01*
X223102Y719382D01*
X223053Y719004D01*
X225878D01*
Y721829D01*
D02*
G37*
G36*
X275035Y549911D02*
X274452Y549834D01*
X273443Y549416D01*
X272576Y548751D01*
X271911Y547884D01*
X271493Y546875D01*
X271416Y546291D01*
X275035D01*
Y549911D01*
D02*
G37*
G36*
X390602Y716429D02*
X387181D01*
X387251Y715897D01*
X387650Y714936D01*
X388283Y714110D01*
X389109Y713476D01*
X390071Y713078D01*
X390602Y713008D01*
Y716429D01*
D02*
G37*
G36*
X285933Y702144D02*
Y699319D01*
X288758D01*
X288709Y699697D01*
X288370Y700515D01*
X287831Y701217D01*
X287129Y701756D01*
X286311Y702095D01*
X285933Y702144D01*
D02*
G37*
G36*
X226878Y721829D02*
Y719004D01*
X229703D01*
X229654Y719382D01*
X229315Y720199D01*
X228776Y720902D01*
X228074Y721441D01*
X227256Y721780D01*
X226878Y721829D01*
D02*
G37*
G36*
X266248Y702144D02*
Y699319D01*
X269073D01*
X269024Y699697D01*
X268685Y700515D01*
X268146Y701217D01*
X267444Y701756D01*
X266626Y702095D01*
X266248Y702144D01*
D02*
G37*
G36*
X284933D02*
X284555Y702095D01*
X283737Y701756D01*
X283035Y701217D01*
X282496Y700515D01*
X282157Y699697D01*
X282108Y699319D01*
X284933D01*
Y702144D01*
D02*
G37*
G36*
X412185Y537252D02*
X408764D01*
X408834Y536720D01*
X409232Y535758D01*
X409866Y534933D01*
X410692Y534299D01*
X411653Y533901D01*
X412185Y533831D01*
Y537252D01*
D02*
G37*
%LPD*%
G36*
X238199Y674580D02*
X238345Y672838D01*
X238432Y672412D01*
X238539Y672064D01*
X238665Y671793D01*
X238811Y671599D01*
X238977Y671483D01*
X239161Y671445D01*
X233280D01*
X233464Y671483D01*
X233630Y671599D01*
X233776Y671793D01*
X233902Y672064D01*
X234009Y672412D01*
X234096Y672838D01*
X234165Y673341D01*
X234242Y674580D01*
X234252Y675315D01*
X238189D01*
X238199Y674580D01*
D02*
G37*
G36*
X376327Y365926D02*
X376474Y365839D01*
X376651Y365763D01*
X376859Y365696D01*
X377098Y365640D01*
X377367Y365594D01*
X377999Y365532D01*
X378361Y365517D01*
X378753Y365512D01*
Y361575D01*
X378361Y361570D01*
X377367Y361493D01*
X377098Y361447D01*
X376859Y361391D01*
X376651Y361324D01*
X376474Y361247D01*
X376327Y361160D01*
X376212Y361063D01*
Y366024D01*
X376327Y365926D01*
D02*
G37*
G36*
X361151Y361063D02*
X361035Y361160D01*
X360889Y361247D01*
X360711Y361324D01*
X360503Y361391D01*
X360264Y361447D01*
X359995Y361493D01*
X359363Y361554D01*
X359001Y361570D01*
X358609Y361575D01*
Y365512D01*
X359001Y365517D01*
X359995Y365594D01*
X360264Y365640D01*
X360503Y365696D01*
X360711Y365763D01*
X360889Y365839D01*
X361035Y365926D01*
X361151Y366024D01*
Y361063D01*
D02*
G37*
G36*
X236800D02*
X236685Y361160D01*
X236538Y361247D01*
X236361Y361324D01*
X236153Y361391D01*
X235914Y361447D01*
X235645Y361493D01*
X235013Y361554D01*
X234651Y361570D01*
X234331Y361574D01*
X234010Y361570D01*
X233017Y361493D01*
X232747Y361447D01*
X232509Y361391D01*
X232301Y361324D01*
X232123Y361247D01*
X231977Y361160D01*
X231861Y361063D01*
Y366024D01*
X231977Y365926D01*
X232123Y365839D01*
X232301Y365763D01*
X232509Y365696D01*
X232747Y365640D01*
X233017Y365594D01*
X233648Y365532D01*
X234010Y365517D01*
X234331Y365513D01*
X234651Y365517D01*
X235645Y365594D01*
X235914Y365640D01*
X236153Y365696D01*
X236361Y365763D01*
X236538Y365839D01*
X236685Y365926D01*
X236800Y366024D01*
Y361063D01*
D02*
G37*
G36*
X405934D02*
X405818Y361160D01*
X405672Y361247D01*
X405495Y361324D01*
X405287Y361391D01*
X405048Y361447D01*
X404778Y361493D01*
X404147Y361554D01*
X403785Y361570D01*
X403392Y361575D01*
Y365512D01*
X403785Y365517D01*
X404778Y365594D01*
X405048Y365640D01*
X405287Y365696D01*
X405495Y365763D01*
X405672Y365839D01*
X405818Y365926D01*
X405934Y366024D01*
Y361063D01*
D02*
G37*
G36*
X241977Y365926D02*
X242123Y365839D01*
X242301Y365763D01*
X242509Y365696D01*
X242747Y365640D01*
X243017Y365594D01*
X243648Y365532D01*
X244010Y365517D01*
X244403Y365512D01*
Y361575D01*
X244010Y361570D01*
X243017Y361493D01*
X242747Y361447D01*
X242509Y361391D01*
X242301Y361324D01*
X242123Y361247D01*
X241977Y361160D01*
X241861Y361063D01*
Y366024D01*
X241977Y365926D01*
D02*
G37*
G36*
X286760D02*
X286907Y365839D01*
X287084Y365763D01*
X287292Y365696D01*
X287531Y365640D01*
X287800Y365594D01*
X288432Y365532D01*
X288794Y365517D01*
X289186Y365512D01*
Y361575D01*
X288794Y361570D01*
X287800Y361493D01*
X287531Y361447D01*
X287292Y361391D01*
X287084Y361324D01*
X286907Y361247D01*
X286760Y361160D01*
X286645Y361063D01*
Y366024D01*
X286760Y365926D01*
D02*
G37*
G36*
X271584Y361063D02*
X271468Y361160D01*
X271322Y361247D01*
X271144Y361324D01*
X270936Y361391D01*
X270697Y361447D01*
X270428Y361493D01*
X269796Y361554D01*
X269435Y361570D01*
X269042Y361575D01*
Y365512D01*
X269435Y365517D01*
X270428Y365594D01*
X270697Y365640D01*
X270936Y365696D01*
X271144Y365763D01*
X271322Y365839D01*
X271468Y365926D01*
X271584Y366024D01*
Y361063D01*
D02*
G37*
G36*
X331544Y365926D02*
X331690Y365839D01*
X331868Y365763D01*
X332076Y365696D01*
X332314Y365640D01*
X332584Y365594D01*
X333215Y365532D01*
X333577Y365517D01*
X333970Y365512D01*
Y361575D01*
X333577Y361570D01*
X332584Y361493D01*
X332314Y361447D01*
X332076Y361391D01*
X331868Y361324D01*
X331690Y361247D01*
X331544Y361160D01*
X331428Y361063D01*
Y366024D01*
X331544Y365926D01*
D02*
G37*
G36*
X316367Y361063D02*
X316251Y361160D01*
X316105Y361247D01*
X315928Y361324D01*
X315720Y361391D01*
X315481Y361447D01*
X315211Y361493D01*
X314580Y361554D01*
X314218Y361570D01*
X313825Y361575D01*
Y365512D01*
X314218Y365517D01*
X315211Y365594D01*
X315481Y365640D01*
X315720Y365696D01*
X315928Y365763D01*
X316105Y365839D01*
X316251Y365926D01*
X316367Y366024D01*
Y361063D01*
D02*
G37*
G36*
X303177Y377992D02*
X303261Y377239D01*
X303400Y376510D01*
X303595Y375803D01*
X303846Y375119D01*
X304152Y374459D01*
X304514Y373821D01*
X304931Y373207D01*
X305405Y372616D01*
X305933Y372047D01*
X303965Y368448D01*
X303408Y368949D01*
X302851Y369339D01*
X302295Y369617D01*
X301738Y369784D01*
X301181Y369840D01*
X300624Y369784D01*
X300067Y369617D01*
X299511Y369339D01*
X298954Y368949D01*
X298397Y368448D01*
X296429Y372047D01*
X296958Y372616D01*
X297431Y373207D01*
X297849Y373821D01*
X298210Y374459D01*
X298517Y375119D01*
X298767Y375803D01*
X298962Y376510D01*
X299101Y377239D01*
X299185Y377992D01*
X299213Y378768D01*
X303150D01*
X303177Y377992D01*
D02*
G37*
G36*
X367213Y697474D02*
X367276Y696712D01*
X367331Y696374D01*
X367402Y696064D01*
X367488Y695782D01*
X367590Y695528D01*
X367709Y695303D01*
X367843Y695106D01*
X367992Y694938D01*
X362480D01*
X362630Y695106D01*
X362764Y695303D01*
X362882Y695528D01*
X362984Y695782D01*
X363071Y696064D01*
X363142Y696374D01*
X363197Y696712D01*
X363236Y697079D01*
X363268Y697898D01*
X367205D01*
X367213Y697474D01*
D02*
G37*
G36*
X383729Y713988D02*
X383423Y714211D01*
X383061Y714322D01*
X382644D01*
X382170Y714211D01*
X381642Y713988D01*
X381057Y713654D01*
X380417Y713209D01*
X379721Y712652D01*
X378162Y711204D01*
X375378Y713988D01*
X376157Y714796D01*
X377382Y716243D01*
X377828Y716884D01*
X378162Y717468D01*
X378384Y717997D01*
X378496Y718470D01*
Y718888D01*
X378384Y719250D01*
X378162Y719556D01*
X383729Y713988D01*
D02*
G37*
G36*
X413396Y674634D02*
X413541Y672862D01*
X413629Y672429D01*
X413736Y672075D01*
X413862Y671799D01*
X414008Y671602D01*
X414173Y671484D01*
X414358Y671445D01*
X408477D01*
X408661Y671484D01*
X408827Y671602D01*
X408972Y671799D01*
X409099Y672075D01*
X409206Y672429D01*
X409293Y672862D01*
X409361Y673374D01*
X409439Y674634D01*
X409449Y675382D01*
X413386D01*
X413396Y674634D01*
D02*
G37*
G36*
X248769Y682295D02*
X248463Y682518D01*
X248101Y682629D01*
X247683D01*
X247210Y682518D01*
X246681Y682295D01*
X246096Y681961D01*
X245456Y681516D01*
X244760Y680959D01*
X243201Y679511D01*
X240417Y682295D01*
X241197Y683103D01*
X242422Y684550D01*
X242867Y685191D01*
X243201Y685775D01*
X243424Y686304D01*
X243535Y686777D01*
Y687195D01*
X243424Y687557D01*
X243201Y687863D01*
X248769Y682295D01*
D02*
G37*
G36*
X326367Y361063D02*
X326252Y361160D01*
X326105Y361247D01*
X325928Y361324D01*
X325720Y361391D01*
X325481Y361447D01*
X325211Y361493D01*
X324580Y361554D01*
X324218Y361570D01*
X323898Y361574D01*
X323577Y361570D01*
X322584Y361493D01*
X322314Y361447D01*
X322076Y361391D01*
X321867Y361324D01*
X321690Y361247D01*
X321544Y361160D01*
X321428Y361063D01*
Y366024D01*
X321544Y365926D01*
X321690Y365839D01*
X321867Y365763D01*
X322076Y365696D01*
X322314Y365640D01*
X322584Y365594D01*
X323215Y365532D01*
X323577Y365517D01*
X323898Y365513D01*
X324218Y365517D01*
X325211Y365594D01*
X325481Y365640D01*
X325720Y365696D01*
X325928Y365763D01*
X326105Y365839D01*
X326252Y365926D01*
X326367Y366024D01*
Y361063D01*
D02*
G37*
G36*
X281584D02*
X281468Y361160D01*
X281322Y361247D01*
X281144Y361324D01*
X280936Y361391D01*
X280697Y361447D01*
X280428Y361493D01*
X279797Y361554D01*
X279435Y361570D01*
X279114Y361574D01*
X278794Y361570D01*
X277800Y361493D01*
X277531Y361447D01*
X277292Y361391D01*
X277084Y361324D01*
X276907Y361247D01*
X276760Y361160D01*
X276645Y361063D01*
Y366024D01*
X276760Y365926D01*
X276907Y365839D01*
X277084Y365763D01*
X277292Y365696D01*
X277531Y365640D01*
X277800Y365594D01*
X278432Y365532D01*
X278794Y365517D01*
X279114Y365513D01*
X279435Y365517D01*
X280428Y365594D01*
X280697Y365640D01*
X280936Y365696D01*
X281144Y365763D01*
X281322Y365839D01*
X281468Y365926D01*
X281584Y366024D01*
Y361063D01*
D02*
G37*
G36*
X415934D02*
X415818Y361160D01*
X415672Y361247D01*
X415495Y361324D01*
X415287Y361391D01*
X415048Y361447D01*
X414778Y361493D01*
X414147Y361554D01*
X413785Y361570D01*
X413464Y361574D01*
X413144Y361570D01*
X412151Y361493D01*
X411881Y361447D01*
X411643Y361391D01*
X411434Y361324D01*
X411257Y361247D01*
X411111Y361160D01*
X410995Y361063D01*
Y366024D01*
X411111Y365926D01*
X411257Y365839D01*
X411434Y365763D01*
X411643Y365696D01*
X411881Y365640D01*
X412151Y365594D01*
X412782Y365532D01*
X413144Y365517D01*
X413464Y365513D01*
X413785Y365517D01*
X414778Y365594D01*
X415048Y365640D01*
X415287Y365696D01*
X415495Y365763D01*
X415672Y365839D01*
X415818Y365926D01*
X415934Y366024D01*
Y361063D01*
D02*
G37*
G36*
X371151D02*
X371035Y361160D01*
X370888Y361247D01*
X370711Y361324D01*
X370503Y361391D01*
X370264Y361447D01*
X369995Y361493D01*
X369363Y361554D01*
X369002Y361570D01*
X368681Y361574D01*
X368361Y361570D01*
X367367Y361493D01*
X367098Y361447D01*
X366859Y361391D01*
X366651Y361324D01*
X366474Y361247D01*
X366327Y361160D01*
X366212Y361063D01*
Y366024D01*
X366327Y365926D01*
X366474Y365839D01*
X366651Y365763D01*
X366859Y365696D01*
X367098Y365640D01*
X367367Y365594D01*
X367999Y365532D01*
X368361Y365517D01*
X368681Y365513D01*
X369002Y365517D01*
X369995Y365594D01*
X370264Y365640D01*
X370503Y365696D01*
X370711Y365763D01*
X370888Y365839D01*
X371035Y365926D01*
X371151Y366024D01*
Y361063D01*
D02*
G37*
G36*
X326367Y401063D02*
X326252Y401160D01*
X326105Y401247D01*
X325928Y401324D01*
X325720Y401391D01*
X325481Y401447D01*
X325211Y401493D01*
X324580Y401554D01*
X324218Y401570D01*
X323898Y401574D01*
X323577Y401570D01*
X322584Y401493D01*
X322314Y401447D01*
X322076Y401391D01*
X321867Y401324D01*
X321690Y401247D01*
X321544Y401160D01*
X321428Y401063D01*
Y406024D01*
X321544Y405926D01*
X321690Y405839D01*
X321867Y405763D01*
X322076Y405696D01*
X322314Y405640D01*
X322584Y405594D01*
X323215Y405532D01*
X323577Y405517D01*
X323898Y405513D01*
X324218Y405517D01*
X325211Y405594D01*
X325481Y405640D01*
X325720Y405696D01*
X325928Y405763D01*
X326105Y405839D01*
X326252Y405926D01*
X326367Y406024D01*
Y401063D01*
D02*
G37*
G36*
X371151D02*
X371035Y401160D01*
X370888Y401247D01*
X370711Y401324D01*
X370503Y401391D01*
X370264Y401447D01*
X369995Y401493D01*
X369363Y401554D01*
X369002Y401570D01*
X368681Y401574D01*
X368361Y401570D01*
X367367Y401493D01*
X367098Y401447D01*
X366859Y401391D01*
X366651Y401324D01*
X366474Y401247D01*
X366327Y401160D01*
X366212Y401063D01*
Y406024D01*
X366327Y405926D01*
X366474Y405839D01*
X366651Y405763D01*
X366859Y405696D01*
X367098Y405640D01*
X367367Y405594D01*
X367999Y405532D01*
X368361Y405517D01*
X368681Y405513D01*
X369002Y405517D01*
X369995Y405594D01*
X370264Y405640D01*
X370503Y405696D01*
X370711Y405763D01*
X370888Y405839D01*
X371035Y405926D01*
X371151Y406024D01*
Y401063D01*
D02*
G37*
G36*
X236800D02*
X236685Y401160D01*
X236538Y401247D01*
X236361Y401324D01*
X236153Y401391D01*
X235914Y401447D01*
X235645Y401493D01*
X235013Y401554D01*
X234651Y401570D01*
X234331Y401574D01*
X234010Y401570D01*
X233017Y401493D01*
X232747Y401447D01*
X232509Y401391D01*
X232301Y401324D01*
X232123Y401247D01*
X231977Y401160D01*
X231861Y401063D01*
Y406024D01*
X231977Y405926D01*
X232123Y405839D01*
X232301Y405763D01*
X232509Y405696D01*
X232747Y405640D01*
X233017Y405594D01*
X233648Y405532D01*
X234010Y405517D01*
X234331Y405513D01*
X234651Y405517D01*
X235645Y405594D01*
X235914Y405640D01*
X236153Y405696D01*
X236361Y405763D01*
X236538Y405839D01*
X236685Y405926D01*
X236800Y406024D01*
Y401063D01*
D02*
G37*
G36*
X281584D02*
X281468Y401160D01*
X281322Y401247D01*
X281144Y401324D01*
X280936Y401391D01*
X280697Y401447D01*
X280428Y401493D01*
X279797Y401554D01*
X279435Y401570D01*
X279114Y401574D01*
X278794Y401570D01*
X277800Y401493D01*
X277531Y401447D01*
X277292Y401391D01*
X277084Y401324D01*
X276907Y401247D01*
X276760Y401160D01*
X276645Y401063D01*
Y406024D01*
X276760Y405926D01*
X276907Y405839D01*
X277084Y405763D01*
X277292Y405696D01*
X277531Y405640D01*
X277800Y405594D01*
X278432Y405532D01*
X278794Y405517D01*
X279114Y405513D01*
X279435Y405517D01*
X280428Y405594D01*
X280697Y405640D01*
X280936Y405696D01*
X281144Y405763D01*
X281322Y405839D01*
X281468Y405926D01*
X281584Y406024D01*
Y401063D01*
D02*
G37*
G36*
X415934D02*
X415818Y401160D01*
X415672Y401247D01*
X415495Y401324D01*
X415287Y401391D01*
X415048Y401447D01*
X414778Y401493D01*
X414147Y401554D01*
X413785Y401570D01*
X413464Y401574D01*
X413144Y401570D01*
X412151Y401493D01*
X411881Y401447D01*
X411643Y401391D01*
X411434Y401324D01*
X411257Y401247D01*
X411111Y401160D01*
X410995Y401063D01*
Y406024D01*
X411111Y405926D01*
X411257Y405839D01*
X411434Y405763D01*
X411643Y405696D01*
X411881Y405640D01*
X412151Y405594D01*
X412782Y405532D01*
X413144Y405517D01*
X413464Y405513D01*
X413785Y405517D01*
X414778Y405594D01*
X415048Y405640D01*
X415287Y405696D01*
X415495Y405763D01*
X415672Y405839D01*
X415818Y405926D01*
X415934Y406024D01*
Y401063D01*
D02*
G37*
G36*
X344330Y536985D02*
X344399Y536969D01*
X344502Y536954D01*
X344808Y536930D01*
X345821Y536906D01*
X346158Y536905D01*
Y532968D01*
X344294Y532870D01*
Y537004D01*
X344330Y536985D01*
D02*
G37*
G36*
X376383Y535368D02*
X376405Y535138D01*
X376442Y534917D01*
X376496Y534705D01*
X376565Y534501D01*
X376650Y534305D01*
X376751Y534119D01*
X376868Y533940D01*
X377001Y533771D01*
X377150Y533610D01*
X376036Y532496D01*
X375875Y532645D01*
X375705Y532778D01*
X375527Y532895D01*
X375340Y532996D01*
X375145Y533081D01*
X374941Y533150D01*
X374728Y533203D01*
X374507Y533241D01*
X374278Y533262D01*
X374039Y533268D01*
X376378Y535606D01*
X376383Y535368D01*
D02*
G37*
G36*
X231304Y408223D02*
X231381Y407230D01*
X231427Y406960D01*
X231484Y406721D01*
X231550Y406513D01*
X231627Y406336D01*
X231714Y406189D01*
X231811Y406074D01*
X226850D01*
X226948Y406189D01*
X227035Y406336D01*
X227111Y406513D01*
X227178Y406721D01*
X227234Y406960D01*
X227280Y407230D01*
X227342Y407861D01*
X227357Y408223D01*
X227362Y408615D01*
X231299D01*
X231304Y408223D01*
D02*
G37*
G36*
X261332Y534755D02*
X261184Y534577D01*
X261054Y534394D01*
X260942Y534206D01*
X260846Y534013D01*
X260769Y533815D01*
X260708Y533611D01*
X260665Y533403D01*
X260639Y533189D01*
X260630Y532970D01*
X259055D01*
X259047Y533189D01*
X259020Y533403D01*
X258977Y533611D01*
X258916Y533815D01*
X258839Y534013D01*
X258743Y534206D01*
X258631Y534394D01*
X258501Y534577D01*
X258353Y534755D01*
X258189Y534927D01*
X261496D01*
X261332Y534755D01*
D02*
G37*
G36*
X405934Y401063D02*
X405818Y401160D01*
X405672Y401247D01*
X405495Y401324D01*
X405287Y401391D01*
X405048Y401447D01*
X404778Y401493D01*
X404147Y401554D01*
X403785Y401570D01*
X403392Y401575D01*
Y405512D01*
X403785Y405517D01*
X404778Y405594D01*
X405048Y405640D01*
X405287Y405696D01*
X405495Y405763D01*
X405672Y405839D01*
X405818Y405926D01*
X405934Y406024D01*
Y401063D01*
D02*
G37*
G36*
X392347Y544829D02*
X392386Y544734D01*
X392452Y544618D01*
X392544Y544483D01*
X392662Y544327D01*
X392979Y543957D01*
X393652Y543254D01*
X390868Y540470D01*
X390614Y540721D01*
X389639Y541578D01*
X389504Y541670D01*
X389388Y541736D01*
X389293Y541775D01*
X389216Y541787D01*
X392335Y544906D01*
X392347Y544829D01*
D02*
G37*
G36*
X300584Y538462D02*
X300567Y538392D01*
X300552Y538289D01*
X300529Y537983D01*
X300505Y536971D01*
X300504Y536634D01*
X296567D01*
X296468Y538498D01*
X300602D01*
X300584Y538462D01*
D02*
G37*
G36*
X393652Y546620D02*
X393401Y546366D01*
X392544Y545391D01*
X392452Y545256D01*
X392386Y545140D01*
X392347Y545045D01*
X392335Y544969D01*
X389216Y548086D01*
X389293Y548099D01*
X389388Y548138D01*
X389504Y548204D01*
X389639Y548296D01*
X389795Y548414D01*
X390165Y548731D01*
X390868Y549404D01*
X393652Y546620D01*
D02*
G37*
G36*
X386936Y542732D02*
X386873Y542777D01*
X386778Y542817D01*
X386650Y542853D01*
X386489Y542883D01*
X386295Y542909D01*
X385810Y542947D01*
X384837Y542968D01*
Y546906D01*
X385194Y546908D01*
X386489Y546990D01*
X386650Y547021D01*
X386778Y547057D01*
X386873Y547097D01*
X386936Y547142D01*
Y542732D01*
D02*
G37*
G36*
X241977Y405926D02*
X242123Y405839D01*
X242301Y405763D01*
X242509Y405696D01*
X242747Y405640D01*
X243017Y405594D01*
X243648Y405532D01*
X244010Y405517D01*
X244403Y405512D01*
Y401575D01*
X244010Y401570D01*
X243017Y401493D01*
X242747Y401447D01*
X242509Y401391D01*
X242301Y401324D01*
X242123Y401247D01*
X241977Y401160D01*
X241861Y401063D01*
Y406024D01*
X241977Y405926D01*
D02*
G37*
G36*
X361151Y401063D02*
X361035Y401160D01*
X360889Y401247D01*
X360711Y401324D01*
X360503Y401391D01*
X360264Y401447D01*
X359995Y401493D01*
X359363Y401554D01*
X359001Y401570D01*
X358609Y401575D01*
Y405512D01*
X359001Y405517D01*
X359995Y405594D01*
X360264Y405640D01*
X360503Y405696D01*
X360711Y405763D01*
X360889Y405839D01*
X361035Y405926D01*
X361151Y406024D01*
Y401063D01*
D02*
G37*
G36*
X376327Y405926D02*
X376474Y405839D01*
X376651Y405763D01*
X376859Y405696D01*
X377098Y405640D01*
X377367Y405594D01*
X377999Y405532D01*
X378361Y405517D01*
X378753Y405512D01*
Y401575D01*
X378361Y401570D01*
X377367Y401493D01*
X377098Y401447D01*
X376859Y401391D01*
X376651Y401324D01*
X376474Y401247D01*
X376327Y401160D01*
X376212Y401063D01*
Y406024D01*
X376327Y405926D01*
D02*
G37*
G36*
X271584Y401063D02*
X271468Y401160D01*
X271322Y401247D01*
X271144Y401324D01*
X270936Y401391D01*
X270697Y401447D01*
X270428Y401493D01*
X269796Y401554D01*
X269435Y401570D01*
X269042Y401575D01*
Y405512D01*
X269435Y405517D01*
X270428Y405594D01*
X270697Y405640D01*
X270936Y405696D01*
X271144Y405763D01*
X271322Y405839D01*
X271468Y405926D01*
X271584Y406024D01*
Y401063D01*
D02*
G37*
G36*
X331544Y405926D02*
X331690Y405839D01*
X331868Y405763D01*
X332076Y405696D01*
X332314Y405640D01*
X332584Y405594D01*
X333215Y405532D01*
X333577Y405517D01*
X333970Y405512D01*
Y401575D01*
X333577Y401570D01*
X332584Y401493D01*
X332314Y401447D01*
X332076Y401391D01*
X331868Y401324D01*
X331690Y401247D01*
X331544Y401160D01*
X331428Y401063D01*
Y406024D01*
X331544Y405926D01*
D02*
G37*
G36*
X274787Y530760D02*
X274639Y530599D01*
X274506Y530430D01*
X274389Y530251D01*
X274288Y530065D01*
X274202Y529869D01*
X274133Y529665D01*
X274080Y529453D01*
X274043Y529232D01*
X274021Y529002D01*
X274016Y528764D01*
X271677Y531102D01*
X271915Y531108D01*
X272145Y531129D01*
X272366Y531167D01*
X272579Y531220D01*
X272783Y531289D01*
X272978Y531374D01*
X273165Y531475D01*
X273343Y531592D01*
X273513Y531725D01*
X273674Y531874D01*
X274787Y530760D01*
D02*
G37*
G36*
X283650Y473622D02*
X283121Y473054D01*
X282648Y472462D01*
X282230Y471848D01*
X281868Y471210D01*
X281562Y470550D01*
X281311Y469866D01*
X281117Y469160D01*
X280978Y468430D01*
X280894Y467677D01*
X280866Y466901D01*
X276929Y465748D01*
X276890Y466496D01*
X276772Y467165D01*
X276575Y467756D01*
X276299Y468268D01*
X275945Y468701D01*
X275512Y469055D01*
X275000Y469331D01*
X274409Y469527D01*
X273740Y469646D01*
X272992Y469685D01*
X274145Y473622D01*
X274921Y473650D01*
X275674Y473733D01*
X276404Y473873D01*
X277110Y474067D01*
X277794Y474318D01*
X278454Y474624D01*
X279092Y474986D01*
X279706Y475404D01*
X280298Y475877D01*
X280866Y476406D01*
X283650Y473622D01*
D02*
G37*
G36*
X301516Y494047D02*
X301634Y493882D01*
X301831Y493736D01*
X302106Y493610D01*
X302460Y493503D01*
X302893Y493415D01*
X303405Y493347D01*
X304665Y493269D01*
X305413Y493260D01*
Y489323D01*
X304665Y489313D01*
X302893Y489167D01*
X302460Y489080D01*
X302106Y488973D01*
X301831Y488846D01*
X301634Y488701D01*
X301516Y488535D01*
X301476Y488350D01*
Y494232D01*
X301516Y494047D01*
D02*
G37*
G36*
X300697Y497421D02*
X300815Y495649D01*
X300886Y495216D01*
X300972Y494862D01*
X301075Y494586D01*
X301193Y494389D01*
X301327Y494271D01*
X301476Y494232D01*
X295595D01*
X295815Y494271D01*
X296011Y494389D01*
X296185Y494586D01*
X296335Y494862D01*
X296463Y495216D01*
X296567Y495649D01*
X296648Y496161D01*
X296706Y496752D01*
X296752Y498169D01*
X300689D01*
X300697Y497421D01*
D02*
G37*
G36*
X395153Y495729D02*
X395195Y493912D01*
X391069Y494171D01*
X391097Y494213D01*
X391122Y494287D01*
X391144Y494395D01*
X391163Y494535D01*
X391193Y494913D01*
X391216Y496062D01*
X395153Y495729D01*
D02*
G37*
G36*
X301162Y488350D02*
X300856Y488573D01*
X300494Y488685D01*
X300077D01*
X299604Y488573D01*
X299075Y488350D01*
X298490Y488017D01*
X297850Y487571D01*
X297154Y487014D01*
X295595Y485567D01*
X292811Y488350D01*
X293590Y489158D01*
X294815Y490605D01*
X295261Y491246D01*
X295595Y491830D01*
X295817Y492359D01*
X295929Y492833D01*
Y493250D01*
X295817Y493612D01*
X295595Y493918D01*
X301162Y488350D01*
D02*
G37*
G36*
X340411Y469587D02*
X340375Y469605D01*
X340306Y469622D01*
X340203Y469637D01*
X339897Y469660D01*
X338884Y469684D01*
X338547Y469685D01*
Y473622D01*
X340411Y473720D01*
Y469587D01*
D02*
G37*
G36*
X346721Y473070D02*
X345472Y471683D01*
X342549Y474606D01*
X342588Y474618D01*
X342649Y474656D01*
X342732Y474718D01*
X342965Y474918D01*
X343698Y475617D01*
X343937Y475854D01*
X346721Y473070D01*
D02*
G37*
G36*
X392970Y488984D02*
X392932Y488972D01*
X392871Y488935D01*
X392788Y488873D01*
X392555Y488673D01*
X391822Y487973D01*
X391583Y487736D01*
X388799Y490520D01*
X390047Y491907D01*
X392970Y488984D01*
D02*
G37*
G36*
X252980Y474409D02*
X253098Y474244D01*
X253295Y474098D01*
X253571Y473972D01*
X253925Y473865D01*
X254358Y473777D01*
X254870Y473709D01*
X256130Y473632D01*
X256878Y473622D01*
Y469685D01*
X256130Y469675D01*
X254358Y469529D01*
X253925Y469442D01*
X253571Y469335D01*
X253295Y469209D01*
X253098Y469063D01*
X252980Y468897D01*
X252941Y468713D01*
Y474594D01*
X252980Y474409D01*
D02*
G37*
G36*
X272450Y518386D02*
X272476Y518172D01*
X272519Y517963D01*
X272580Y517760D01*
X272657Y517561D01*
X272753Y517368D01*
X272865Y517180D01*
X272995Y516997D01*
X273143Y516820D01*
X273307Y516647D01*
X270000D01*
X270165Y516820D01*
X270312Y516997D01*
X270442Y517180D01*
X270554Y517368D01*
X270650Y517561D01*
X270728Y517760D01*
X270788Y517963D01*
X270831Y518172D01*
X270858Y518386D01*
X270866Y518605D01*
X272441D01*
X272450Y518386D01*
D02*
G37*
G36*
X264776Y441154D02*
X264736Y441525D01*
X264618Y441858D01*
X264422Y442151D01*
X264146Y442406D01*
X263791Y442621D01*
X263358Y442797D01*
X262847Y442934D01*
X262256Y443032D01*
X261587Y443091D01*
X260839Y443110D01*
Y447047D01*
X261587Y447067D01*
X262256Y447125D01*
X262847Y447223D01*
X263358Y447360D01*
X263791Y447536D01*
X264146Y447752D01*
X264422Y448006D01*
X264618Y448299D01*
X264736Y448632D01*
X264776Y449004D01*
Y441154D01*
D02*
G37*
G36*
X318572D02*
X318266Y441376D01*
X317904Y441488D01*
X317486D01*
X317013Y441376D01*
X316484Y441154D01*
X315899Y440820D01*
X315259Y440374D01*
X314563Y439817D01*
X313004Y438370D01*
X310220Y441154D01*
X311000Y441961D01*
X312225Y443409D01*
X312670Y444049D01*
X313004Y444633D01*
X313227Y445162D01*
X313338Y445636D01*
Y446053D01*
X313227Y446415D01*
X313004Y446721D01*
X318572Y441154D01*
D02*
G37*
G36*
X300505Y526080D02*
X300598Y524642D01*
X300623Y524567D01*
X300651Y524525D01*
X296526Y524266D01*
X296533Y524293D01*
X296540Y524354D01*
X296552Y524579D01*
X296567Y526083D01*
X300504Y526416D01*
X300505Y526080D01*
D02*
G37*
G36*
X395252Y523546D02*
X391118D01*
X391137Y523582D01*
X391154Y523651D01*
X391168Y523754D01*
X391192Y524060D01*
X391215Y525073D01*
X391216Y525410D01*
X395153D01*
X395252Y523546D01*
D02*
G37*
G36*
X300769Y520147D02*
X300752Y520077D01*
X300737Y519974D01*
X300714Y519668D01*
X300690Y518655D01*
X300689Y518319D01*
X296752D01*
X296654Y520183D01*
X300787D01*
X300769Y520147D01*
D02*
G37*
G36*
X275410Y449004D02*
X274629Y448195D01*
X273402Y446746D01*
X272955Y446106D01*
X272620Y445521D01*
X272396Y444992D01*
X272283Y444519D01*
X272282Y444102D01*
X272392Y443741D01*
X272614Y443436D01*
X267058Y448992D01*
X267363Y448770D01*
X267724Y448660D01*
X268141Y448661D01*
X268614Y448774D01*
X269143Y448998D01*
X269728Y449333D01*
X270368Y449780D01*
X271065Y450338D01*
X272626Y451788D01*
X275410Y449004D01*
D02*
G37*
G36*
X323638D02*
X322857Y448195D01*
X321630Y446746D01*
X321183Y446106D01*
X320848Y445521D01*
X320624Y444992D01*
X320512Y444519D01*
X320510Y444102D01*
X320621Y443741D01*
X320842Y443436D01*
X315286Y448992D01*
X315592Y448770D01*
X315952Y448660D01*
X316370Y448661D01*
X316842Y448774D01*
X317371Y448998D01*
X317956Y449333D01*
X318597Y449780D01*
X319293Y450338D01*
X320854Y451788D01*
X323638Y449004D01*
D02*
G37*
G36*
X395233Y519292D02*
X395216Y519223D01*
X395202Y519120D01*
X395178Y518814D01*
X395155Y517801D01*
X395153Y517464D01*
X391216D01*
X391118Y519328D01*
X395252D01*
X395233Y519292D01*
D02*
G37*
G36*
X385639Y518386D02*
X385665Y518172D01*
X385708Y517963D01*
X385769Y517760D01*
X385846Y517561D01*
X385942Y517368D01*
X386054Y517180D01*
X386184Y516997D01*
X386332Y516820D01*
X386496Y516647D01*
X383189D01*
X383353Y516820D01*
X383501Y516997D01*
X383631Y517180D01*
X383743Y517368D01*
X383839Y517561D01*
X383916Y517760D01*
X383977Y517963D01*
X384020Y518172D01*
X384047Y518386D01*
X384055Y518605D01*
X385630D01*
X385639Y518386D01*
D02*
G37*
G36*
X256102Y614400D02*
X251969D01*
X251987Y614436D01*
X252004Y614505D01*
X252019Y614608D01*
X252042Y614914D01*
X252066Y615927D01*
X252067Y616264D01*
X256004D01*
X256102Y614400D01*
D02*
G37*
G36*
X277921Y613708D02*
X276673Y612321D01*
X273750Y615244D01*
X273789Y615256D01*
X273850Y615293D01*
X273933Y615356D01*
X274166Y615555D01*
X274899Y616255D01*
X275137Y616492D01*
X277921Y613708D01*
D02*
G37*
G36*
X368845Y620625D02*
X368805Y620530D01*
X368769Y620401D01*
X368739Y620241D01*
X368713Y620047D01*
X368675Y619562D01*
X368653Y618588D01*
X364717D01*
X364714Y618946D01*
X364632Y620241D01*
X364601Y620401D01*
X364565Y620530D01*
X364525Y620625D01*
X364480Y620688D01*
X368890D01*
X368845Y620625D01*
D02*
G37*
G36*
X399818Y620246D02*
X397806Y617089D01*
X394571Y619421D01*
X394820Y619676D01*
X395512Y620481D01*
X395609Y620629D01*
X395675Y620756D01*
X395710Y620862D01*
X395715Y620947D01*
X395689Y621010D01*
X399818Y620246D01*
D02*
G37*
G36*
X368752Y610546D02*
X364618D01*
X364637Y610582D01*
X364653Y610651D01*
X364668Y610754D01*
X364692Y611060D01*
X364716Y612073D01*
X364717Y612409D01*
X368653D01*
X368752Y610546D01*
D02*
G37*
G36*
X302766Y600642D02*
X302433Y600524D01*
X302140Y600327D01*
X301885Y600051D01*
X301670Y599697D01*
X301494Y599264D01*
X301357Y598752D01*
X301259Y598162D01*
X301201Y597492D01*
X301181Y596744D01*
X297244D01*
X297224Y597492D01*
X297166Y598162D01*
X297068Y598752D01*
X296931Y599264D01*
X296755Y599697D01*
X296540Y600051D01*
X296285Y600327D01*
X295992Y600524D01*
X295659Y600642D01*
X295288Y600681D01*
X303138D01*
X302766Y600642D01*
D02*
G37*
G36*
X357683Y576707D02*
X357704Y576477D01*
X357741Y576256D01*
X357795Y576043D01*
X357864Y575839D01*
X357949Y575644D01*
X358050Y575457D01*
X358167Y575279D01*
X358300Y575109D01*
X358449Y574948D01*
X357335Y573835D01*
X357174Y573983D01*
X357004Y574116D01*
X356826Y574233D01*
X356640Y574334D01*
X356444Y574419D01*
X356240Y574489D01*
X356028Y574542D01*
X355806Y574579D01*
X355577Y574601D01*
X355339Y574606D01*
X357677Y576945D01*
X357683Y576707D01*
D02*
G37*
G36*
X421898Y613280D02*
X421764Y613083D01*
X421646Y612858D01*
X421543Y612604D01*
X421457Y612322D01*
X421386Y612012D01*
X421331Y611674D01*
X421291Y611307D01*
X421260Y610488D01*
X417323D01*
X417315Y610912D01*
X417252Y611674D01*
X417197Y612012D01*
X417126Y612322D01*
X417039Y612604D01*
X416937Y612858D01*
X416819Y613083D01*
X416685Y613280D01*
X416535Y613448D01*
X422047D01*
X421898Y613280D01*
D02*
G37*
G36*
X390571Y609854D02*
X389323Y608466D01*
X386400Y611390D01*
X386438Y611402D01*
X386499Y611439D01*
X386582Y611501D01*
X386815Y611701D01*
X387548Y612400D01*
X387787Y612638D01*
X390571Y609854D01*
D02*
G37*
G36*
X286936Y623472D02*
X284742Y620529D01*
X281691Y623045D01*
X281939Y623299D01*
X282501Y623945D01*
X282628Y624122D01*
X282724Y624279D01*
X282790Y624417D01*
X282825Y624536D01*
X282830Y624636D01*
X282804Y624716D01*
X286936Y623472D01*
D02*
G37*
G36*
X275561Y649803D02*
X272638Y646880D01*
X272626Y646918D01*
X272588Y646980D01*
X272526Y647063D01*
X272326Y647296D01*
X271627Y648029D01*
X271390Y648267D01*
X274173Y651051D01*
X275561Y649803D01*
D02*
G37*
G36*
X376160Y648899D02*
X376230Y648882D01*
X376333Y648867D01*
X376639Y648843D01*
X377652Y648820D01*
X377988Y648819D01*
Y644882D01*
X376124Y644783D01*
Y648917D01*
X376160Y648899D01*
D02*
G37*
G36*
X414044Y665563D02*
X413738Y665786D01*
X413376Y665897D01*
X412959D01*
X412485Y665786D01*
X411956Y665563D01*
X411372Y665229D01*
X410732Y664784D01*
X410036Y664227D01*
X408477Y662779D01*
X405693Y665563D01*
X406472Y666370D01*
X407697Y667818D01*
X408143Y668458D01*
X408477Y669043D01*
X408699Y669572D01*
X408811Y670045D01*
Y670463D01*
X408699Y670825D01*
X408477Y671131D01*
X414044Y665563D01*
D02*
G37*
G36*
X239201Y671260D02*
X239319Y671095D01*
X239515Y670949D01*
X239791Y670822D01*
X240145Y670715D01*
X240579Y670628D01*
X241090Y670560D01*
X242350Y670482D01*
X243098Y670472D01*
Y666535D01*
X242350Y666526D01*
X240579Y666380D01*
X240145Y666292D01*
X239791Y666185D01*
X239515Y666059D01*
X239319Y665913D01*
X239201Y665748D01*
X239161Y665563D01*
Y671445D01*
X239201Y671260D01*
D02*
G37*
G36*
X278555Y646782D02*
X278593Y646721D01*
X278655Y646638D01*
X278855Y646405D01*
X279554Y645672D01*
X279791Y645433D01*
X277008Y642649D01*
X275620Y643898D01*
X278543Y646821D01*
X278555Y646782D01*
D02*
G37*
G36*
X400152Y626928D02*
X400235Y625633D01*
X400265Y625472D01*
X400301Y625344D01*
X400341Y625249D01*
X400386Y625186D01*
X395976D01*
X396021Y625249D01*
X396061Y625344D01*
X396097Y625472D01*
X396128Y625633D01*
X396153Y625827D01*
X396191Y626312D01*
X396213Y627285D01*
X400150D01*
X400152Y626928D01*
D02*
G37*
G36*
X256195Y623979D02*
X256155Y623884D01*
X256120Y623756D01*
X256089Y623595D01*
X256063Y623401D01*
X256025Y622916D01*
X256004Y621943D01*
X252067D01*
X252065Y622300D01*
X251982Y623595D01*
X251951Y623756D01*
X251916Y623884D01*
X251876Y623979D01*
X251831Y624042D01*
X256240D01*
X256195Y623979D01*
D02*
G37*
G36*
X395332Y649634D02*
X394830Y649078D01*
X394441Y648521D01*
X394162Y647964D01*
X393995Y647407D01*
X393940Y646850D01*
X393995Y646294D01*
X394162Y645737D01*
X394441Y645180D01*
X394830Y644623D01*
X395332Y644066D01*
X391732Y642098D01*
X391164Y642627D01*
X390573Y643100D01*
X389958Y643518D01*
X389321Y643880D01*
X388660Y644186D01*
X387977Y644436D01*
X387270Y644631D01*
X386540Y644770D01*
X385787Y644854D01*
X385011Y644882D01*
Y648819D01*
X385787Y648847D01*
X386540Y648930D01*
X387270Y649069D01*
X387977Y649264D01*
X388660Y649515D01*
X389321Y649821D01*
X389958Y650183D01*
X390573Y650600D01*
X391164Y651074D01*
X391732Y651603D01*
X395332Y649634D01*
D02*
G37*
G36*
X287502Y630282D02*
X287585Y628988D01*
X287616Y628827D01*
X287651Y628699D01*
X287691Y628603D01*
X287736Y628541D01*
X283327D01*
X283372Y628603D01*
X283412Y628699D01*
X283447Y628827D01*
X283478Y628988D01*
X283504Y629181D01*
X283542Y629666D01*
X283563Y630640D01*
X287500D01*
X287502Y630282D01*
D02*
G37*
G36*
X293736Y573023D02*
X292488Y571636D01*
X289565Y574559D01*
X289604Y574571D01*
X289665Y574608D01*
X289748Y574671D01*
X289981Y574870D01*
X290714Y575570D01*
X290952Y575807D01*
X293736Y573023D01*
D02*
G37*
G36*
X241786Y555087D02*
X241723Y555131D01*
X241628Y555172D01*
X241500Y555207D01*
X241339Y555238D01*
X241146Y555264D01*
X240660Y555302D01*
X239687Y555323D01*
Y559260D01*
X240044Y559262D01*
X241339Y559345D01*
X241500Y559375D01*
X241628Y559411D01*
X241723Y559451D01*
X241786Y559496D01*
Y555087D01*
D02*
G37*
G36*
X233525Y555323D02*
X233190Y555320D01*
X232001Y555232D01*
X231860Y555200D01*
X231752Y555162D01*
X231676Y555119D01*
X231633Y555072D01*
X230492Y559045D01*
X231792Y559260D01*
X233525Y555323D01*
D02*
G37*
G36*
X412655Y560390D02*
X409732Y557467D01*
X409720Y557505D01*
X409683Y557566D01*
X409621Y557649D01*
X409421Y557882D01*
X408721Y558615D01*
X408484Y558854D01*
X411268Y561638D01*
X412655Y560390D01*
D02*
G37*
G36*
X300307Y557895D02*
X300101Y557665D01*
X299918Y557430D01*
X299760Y557192D01*
X299627Y556949D01*
X299517Y556702D01*
X299432Y556451D01*
X299371Y556196D01*
X299335Y555937D01*
X299323Y555674D01*
X297748D01*
X297736Y555937D01*
X297699Y556196D01*
X297639Y556451D01*
X297554Y556702D01*
X297444Y556949D01*
X297310Y557192D01*
X297153Y557430D01*
X296970Y557665D01*
X296764Y557895D01*
X296533Y558121D01*
X300538D01*
X300307Y557895D01*
D02*
G37*
G36*
X246195Y554979D02*
X246155Y554884D01*
X246120Y554756D01*
X246089Y554595D01*
X246063Y554401D01*
X246025Y553916D01*
X246004Y552943D01*
X242067D01*
X242065Y553300D01*
X241982Y554595D01*
X241951Y554756D01*
X241916Y554884D01*
X241876Y554979D01*
X241831Y555042D01*
X246240D01*
X246195Y554979D01*
D02*
G37*
G36*
X246006Y549786D02*
X246089Y548491D01*
X246120Y548330D01*
X246156Y548202D01*
X246196Y548106D01*
X246241Y548043D01*
X241832Y548038D01*
X241877Y548100D01*
X241916Y548196D01*
X241952Y548324D01*
X241982Y548485D01*
X242008Y548678D01*
X242046Y549163D01*
X242067Y550137D01*
X246004Y550143D01*
X246006Y549786D01*
D02*
G37*
G36*
X359656Y548931D02*
X359739Y547636D01*
X359770Y547475D01*
X359805Y547347D01*
X359846Y547252D01*
X359891Y547189D01*
X355481Y547184D01*
X355526Y547246D01*
X355566Y547341D01*
X355601Y547469D01*
X355632Y547630D01*
X355658Y547824D01*
X355695Y548309D01*
X355716Y549282D01*
X359653Y549289D01*
X359656Y548931D01*
D02*
G37*
G36*
X344330Y556670D02*
X344399Y556653D01*
X344502Y556639D01*
X344808Y556615D01*
X345821Y556592D01*
X346158Y556591D01*
Y552654D01*
X344294Y552555D01*
Y556689D01*
X344330Y556670D01*
D02*
G37*
G36*
X356223Y553688D02*
X359890D01*
X359845Y553625D01*
X359805Y553530D01*
X359769Y553402D01*
X359739Y553241D01*
X359713Y553047D01*
X359675Y552562D01*
X359653Y551588D01*
X355716D01*
X355714Y551946D01*
X355652Y552920D01*
X352933Y552654D01*
X352714Y556591D01*
X353069Y556595D01*
X353928Y556656D01*
X354145Y556693D01*
X354329Y556738D01*
X354478Y556792D01*
X354593Y556853D01*
X354674Y556923D01*
X354721Y557001D01*
X356223Y553688D01*
D02*
G37*
G36*
X416886Y558854D02*
X415638Y557467D01*
X412715Y560390D01*
X412753Y560402D01*
X412814Y560439D01*
X412897Y560501D01*
X413130Y560701D01*
X413863Y561401D01*
X414102Y561638D01*
X416886Y558854D01*
D02*
G37*
G36*
X393268Y569815D02*
X393020Y569561D01*
X392454Y568907D01*
X392324Y568725D01*
X392224Y568561D01*
X392154Y568415D01*
X392112Y568286D01*
X392101Y568176D01*
X392119Y568083D01*
X388098Y569893D01*
X390423Y572537D01*
X393268Y569815D01*
D02*
G37*
G36*
X348330Y571985D02*
X348399Y571969D01*
X348502Y571954D01*
X348808Y571930D01*
X349821Y571906D01*
X350157Y571906D01*
Y567968D01*
X348294Y567870D01*
Y572004D01*
X348330Y571985D01*
D02*
G37*
G36*
X235180Y573840D02*
X235249Y573823D01*
X235352Y573808D01*
X235658Y573784D01*
X236671Y573761D01*
X237008Y573760D01*
Y569823D01*
X235144Y569724D01*
Y573858D01*
X235180Y573840D01*
D02*
G37*
G36*
X242611Y572505D02*
X243818Y571448D01*
X243865Y571436D01*
X240895Y568466D01*
X240883Y568513D01*
X240845Y568583D01*
X240780Y568676D01*
X240688Y568792D01*
X240251Y569279D01*
X239573Y569974D01*
X242356Y572758D01*
X242611Y572505D01*
D02*
G37*
G36*
X422845Y571114D02*
X422512Y570996D01*
X422219Y570799D01*
X421964Y570524D01*
X421749Y570169D01*
X421573Y569736D01*
X421436Y569225D01*
X421338Y568634D01*
X421279Y567965D01*
X421260Y567217D01*
X417323D01*
X417303Y567965D01*
X417245Y568634D01*
X417147Y569225D01*
X417010Y569736D01*
X416834Y570169D01*
X416618Y570524D01*
X416364Y570799D01*
X416071Y570996D01*
X415738Y571114D01*
X415366Y571154D01*
X423216D01*
X422845Y571114D01*
D02*
G37*
G36*
X392347Y566829D02*
X392386Y566734D01*
X392452Y566618D01*
X392544Y566482D01*
X392662Y566327D01*
X392979Y565957D01*
X393652Y565254D01*
X390868Y562470D01*
X390614Y562721D01*
X389639Y563578D01*
X389504Y563670D01*
X389388Y563736D01*
X389293Y563775D01*
X389216Y563788D01*
X392335Y566905D01*
X392347Y566829D01*
D02*
G37*
G36*
X296280Y563988D02*
X297041Y563315D01*
X297182Y563214D01*
X297305Y563140D01*
X297408Y563092D01*
X297491Y563071D01*
X297555Y563077D01*
X295731Y559367D01*
X293241Y561455D01*
X296041Y564223D01*
X296280Y563988D01*
D02*
G37*
G36*
X403636Y569449D02*
X403671Y569377D01*
X403730Y569284D01*
X403815Y569170D01*
X404061Y568880D01*
X404620Y568289D01*
X404856Y568050D01*
X401788Y565550D01*
X400492Y566806D01*
X403627Y569500D01*
X403636Y569449D01*
D02*
G37*
G36*
X386936Y567972D02*
X387148Y568021D01*
X387426Y568112D01*
X387641Y568215D01*
X387794Y568330D01*
Y565544D01*
X387641Y565659D01*
X387426Y565762D01*
X387148Y565853D01*
X386936Y565902D01*
Y564732D01*
X386659Y565001D01*
X386110Y565455D01*
X385839Y565639D01*
X385569Y565795D01*
X385300Y565923D01*
X385034Y566022D01*
X384770Y566093D01*
X384550Y566128D01*
X384161Y566144D01*
X383444Y566150D01*
Y567724D01*
X384161Y567730D01*
X384654Y567762D01*
X384770Y567781D01*
X385034Y567852D01*
X385300Y567951D01*
X385569Y568079D01*
X385839Y568235D01*
X386110Y568419D01*
X386384Y568631D01*
X386659Y568872D01*
X386936Y569142D01*
Y567972D01*
D02*
G37*
D13*
X285531Y626291D02*
Y636909D01*
X275590Y646850D02*
X285531Y636909D01*
X253937Y668504D02*
X275590Y646850D01*
X236221Y668504D02*
X253937D01*
X236221D02*
Y675315D01*
X247126Y686220D01*
X357685Y544941D02*
Y555937D01*
X342185Y554622D02*
X356370D01*
X354689Y569937D02*
X357689Y566937D01*
X346185Y569937D02*
X354689D01*
X412685Y557437D02*
X419291Y564043D01*
Y575079D01*
X400685Y569437D02*
X412685Y557437D01*
X386370Y608437D02*
X398181Y620248D01*
Y622937D01*
X366685Y608437D02*
Y622937D01*
X398181D02*
Y638433D01*
X389764Y646850D02*
X398181Y638433D01*
X374016Y646850D02*
X389764D01*
X411417Y668504D01*
Y687126D01*
X406417Y692126D02*
X411417Y687126D01*
X365236Y692126D02*
Y701063D01*
X381102Y716929D01*
X301181Y429331D02*
X316929Y445079D01*
X311653Y363543D02*
X318898D01*
X301181Y374016D02*
X311653Y363543D01*
X284114D02*
X290709D01*
X301181Y374016D01*
X408465Y363543D02*
X418465D01*
X373681D02*
X408465D01*
X363681D02*
X373681D01*
X328898D02*
X363681D01*
X318898D02*
X328898D01*
X229331D02*
X239331D01*
X274114D01*
X284114D01*
X301181Y374016D02*
Y429331D01*
X389185Y544937D02*
X393185Y540937D01*
Y521437D02*
Y540937D01*
Y492122D02*
Y521437D01*
X354331Y483464D02*
X384528D01*
X342520Y471654D02*
X354331Y483464D01*
X384528D02*
X393000Y491937D01*
X393185Y492122D01*
X342185Y534937D02*
X360528D01*
X370528Y544937D01*
X389185D01*
X419291Y598622D02*
Y616260D01*
X389185Y568516D02*
X419291Y598622D01*
X389185Y566937D02*
Y568516D01*
X408465Y403543D02*
X418465D01*
X373681D02*
X408465D01*
X363681D02*
X373681D01*
X328898D02*
X363681D01*
X318898D02*
X328898D01*
X274114D02*
X284114D01*
X239331D02*
X274114D01*
X229331D02*
X239331D01*
X229331D02*
Y428150D01*
X246260Y445079D01*
X268701D01*
X278898Y455275D01*
Y471654D01*
X250000D02*
X278898D01*
X298535Y491291D01*
X324016Y452165D02*
Y461811D01*
X316929Y445079D02*
X324016Y452165D01*
Y461811D02*
X333858Y471654D01*
X342520D01*
X298535Y491291D02*
X319244D01*
X324016Y496063D01*
X298721Y491476D02*
Y522291D01*
X298535Y522476D02*
Y540606D01*
X273721Y612291D02*
X285531Y624102D01*
X254035Y612291D02*
Y626291D01*
X233035Y571791D02*
X240539D01*
X244039Y568291D01*
X299213Y581283D02*
Y604606D01*
X289535Y571606D02*
X299213Y581283D01*
X289535Y567945D02*
X297189Y560291D01*
X289535Y567945D02*
Y571606D01*
X229850Y557291D02*
X244035D01*
Y545795D02*
Y557291D01*
X389185Y566937D02*
X397854Y558268D01*
Y553606D02*
Y558268D01*
X389185Y544937D02*
X397854Y553606D01*
D14*
X271654Y528740D02*
X298535Y555622D01*
Y560291D01*
X259842Y530709D02*
Y536614D01*
Y530709D02*
X271654Y518898D01*
Y514961D02*
Y518898D01*
X374016Y535630D02*
X384842Y524803D01*
Y514961D02*
Y524803D01*
X355315Y576968D02*
X365347Y566937D01*
X389185D01*
D15*
X324803Y728346D02*
D03*
D16*
Y752756D02*
D03*
D17*
X338583Y748819D02*
D03*
D18*
X418465Y363543D02*
D03*
X408465D02*
D03*
X418465Y373543D02*
D03*
X408465D02*
D03*
X418465Y383543D02*
D03*
X408465D02*
D03*
X418465Y393543D02*
D03*
X408465D02*
D03*
X418465Y403543D02*
D03*
X408465D02*
D03*
X373681Y363543D02*
D03*
X363681D02*
D03*
X373681Y373543D02*
D03*
X363681D02*
D03*
X373681Y383543D02*
D03*
X363681D02*
D03*
X373681Y393543D02*
D03*
X363681D02*
D03*
X373681Y403543D02*
D03*
X363681D02*
D03*
X328898Y363543D02*
D03*
X318898D02*
D03*
X328898Y373543D02*
D03*
X318898D02*
D03*
X328898Y383543D02*
D03*
X318898D02*
D03*
X328898Y393543D02*
D03*
X318898D02*
D03*
X328898Y403543D02*
D03*
X318898D02*
D03*
X284114Y363543D02*
D03*
X274114D02*
D03*
X284114Y373543D02*
D03*
X274114D02*
D03*
X284114Y383543D02*
D03*
X274114D02*
D03*
X284114Y393543D02*
D03*
X274114D02*
D03*
X284114Y403543D02*
D03*
X274114D02*
D03*
X239331Y363543D02*
D03*
X229331D02*
D03*
X239331Y373543D02*
D03*
X229331D02*
D03*
X239331Y383543D02*
D03*
X229331D02*
D03*
X239331Y393543D02*
D03*
X229331D02*
D03*
X239331Y403543D02*
D03*
X229331D02*
D03*
D19*
X400685Y589437D02*
D03*
Y569752D02*
D03*
X374016Y666535D02*
D03*
Y646850D02*
D03*
X233035Y571791D02*
D03*
Y591476D02*
D03*
X289535Y591291D02*
D03*
Y571606D02*
D03*
X391102Y716929D02*
D03*
X236221Y648819D02*
D03*
X229035Y536791D02*
D03*
Y556476D02*
D03*
X254035Y612291D02*
D03*
X273721D02*
D03*
X298535Y540606D02*
D03*
Y560291D02*
D03*
X279035Y522291D02*
D03*
X298721D02*
D03*
X278850Y491291D02*
D03*
X230315Y471654D02*
D03*
X366685Y608437D02*
D03*
X386370D02*
D03*
X346185Y569937D02*
D03*
Y589622D02*
D03*
X342185Y534937D02*
D03*
Y554622D02*
D03*
X412685Y537752D02*
D03*
Y557437D02*
D03*
X393185Y521437D02*
D03*
X412870D02*
D03*
X393000Y491937D02*
D03*
X342520Y471654D02*
D03*
X275590Y666535D02*
D03*
Y646850D02*
D03*
X411417Y648819D02*
D03*
D20*
X406417Y692126D02*
D03*
X247126Y686220D02*
D03*
X268701Y445079D02*
D03*
X292815D02*
D03*
X316929D02*
D03*
D21*
X365236Y692126D02*
D03*
X419291Y616260D02*
D03*
X299213Y645787D02*
D03*
X288307Y686220D02*
D03*
D22*
X381102Y716929D02*
D03*
X298535Y491291D02*
D03*
X250000Y471654D02*
D03*
X412685Y491937D02*
D03*
X362205Y471654D02*
D03*
D23*
X236221Y668504D02*
D03*
X411417D02*
D03*
D24*
X324803Y698425D02*
D03*
Y679921D02*
D03*
D25*
Y661417D02*
D03*
D26*
X398181Y622937D02*
D03*
X366685D02*
D03*
X285531Y626291D02*
D03*
X254035D02*
D03*
X244039Y545791D02*
D03*
X275535D02*
D03*
X275532Y557291D02*
D03*
X244035D02*
D03*
X244039Y568291D02*
D03*
X275535D02*
D03*
X357689Y566937D02*
D03*
X389185D02*
D03*
X389181Y555937D02*
D03*
X357685D02*
D03*
X357689Y544937D02*
D03*
X389185D02*
D03*
D27*
X419291Y575079D02*
D03*
X299213Y604606D02*
D03*
D28*
X324016Y471654D02*
D03*
Y461811D02*
D03*
Y496063D02*
D03*
Y486220D02*
D03*
X383858Y314961D02*
D03*
Y334646D02*
D03*
X364173Y314961D02*
D03*
Y334646D02*
D03*
X344488Y314961D02*
D03*
Y334646D02*
D03*
X324803Y314961D02*
D03*
Y334646D02*
D03*
X305118Y314961D02*
D03*
Y334646D02*
D03*
X285433Y314961D02*
D03*
Y334646D02*
D03*
X265748Y314961D02*
D03*
Y334646D02*
D03*
X354331Y442913D02*
D03*
X374016D02*
D03*
X334646Y610236D02*
D03*
X285433Y698819D02*
D03*
X265748D02*
D03*
X246063D02*
D03*
X226378D02*
D03*
Y718504D02*
D03*
X246063D02*
D03*
X413386Y442913D02*
D03*
Y462598D02*
D03*
X393701Y442913D02*
D03*
Y462598D02*
D03*
X314961Y570866D02*
D03*
Y590551D02*
D03*
Y610236D02*
D03*
X334646Y629921D02*
D03*
X314961D02*
D03*
X285433Y738189D02*
D03*
X265748D02*
D03*
X285433Y718504D02*
D03*
X265748D02*
D03*
X271654Y528740D02*
D03*
X259842Y536614D02*
D03*
X271654Y514961D02*
D03*
X374016Y535630D02*
D03*
X384842Y514961D02*
D03*
X355315Y576968D02*
D03*
D29*
X232283Y749016D02*
D03*
X415158D02*
D03*
X230315Y325787D02*
D03*
X417323D02*
D03*
M02*
