G04 Layer_Color=65535*
%FSLAX25Y25*%
%MOIN*%
G70*
G01*
G75*
%ADD30C,0.00787*%
%ADD31C,0.00600*%
%ADD32C,0.00984*%
%ADD33C,0.00500*%
%ADD34C,0.01000*%
%ADD35R,0.03150X0.11024*%
%ADD36R,0.11024X0.03150*%
D30*
X255906Y658661D02*
X255880Y659658D01*
X255804Y660653D01*
X255679Y661642D01*
X255503Y662624D01*
X255277Y663595D01*
X255003Y664554D01*
X254680Y665498D01*
X254310Y666424D01*
X253894Y667331D01*
X253432Y668215D01*
X252926Y669074D01*
X252377Y669907D01*
X251787Y670711D01*
X251157Y671484D01*
X250488Y672224D01*
X249783Y672929D01*
X249043Y673597D01*
X248270Y674228D01*
X247466Y674818D01*
X246633Y675367D01*
X245774Y675873D01*
X244890Y676335D01*
X243983Y676751D01*
X243057Y677121D01*
X242113Y677444D01*
X241155Y677718D01*
X240183Y677944D01*
X239201Y678119D01*
X238212Y678245D01*
X237217Y678321D01*
X236221Y678346D01*
X235223Y678321D01*
X234229Y678245D01*
X233240Y678119D01*
X232258Y677943D01*
X231286Y677718D01*
X230328Y677444D01*
X229384Y677121D01*
X228457Y676751D01*
X227551Y676335D01*
X226667Y675873D01*
X225808Y675367D01*
X224975Y674818D01*
X224171Y674228D01*
X223398Y673597D01*
X222658Y672929D01*
X221953Y672224D01*
X221284Y671484D01*
X220654Y670711D01*
X220064Y669907D01*
X219515Y669074D01*
X219009Y668215D01*
X218547Y667331D01*
X218131Y666424D01*
X217761Y665498D01*
X217438Y664554D01*
X217164Y663595D01*
X216938Y662624D01*
X216762Y661642D01*
X216636Y660653D01*
X216561Y659658D01*
X216535Y658661D01*
X216561Y657664D01*
X216636Y656670D01*
X216762Y655681D01*
X216938Y654699D01*
X217164Y653727D01*
X217438Y652768D01*
X217761Y651825D01*
X218131Y650898D01*
X218547Y649992D01*
X219009Y649108D01*
X219515Y648249D01*
X220064Y647416D01*
X220654Y646612D01*
X221284Y645839D01*
X221953Y645099D01*
X222658Y644394D01*
X223398Y643725D01*
X224171Y643095D01*
X224975Y642505D01*
X225808Y641956D01*
X226667Y641450D01*
X227551Y640988D01*
X228458Y640572D01*
X229384Y640202D01*
X230328Y639879D01*
X231286Y639605D01*
X232258Y639379D01*
X233240Y639203D01*
X234229Y639077D01*
X235224Y639002D01*
X236221Y638976D01*
X237218Y639002D01*
X238212Y639077D01*
X239201Y639203D01*
X240183Y639379D01*
X241155Y639605D01*
X242113Y639879D01*
X243057Y640202D01*
X243983Y640572D01*
X244890Y640988D01*
X245774Y641450D01*
X246633Y641956D01*
X247466Y642505D01*
X248270Y643095D01*
X249043Y643725D01*
X249783Y644394D01*
X250488Y645099D01*
X251157Y645839D01*
X251787Y646612D01*
X252377Y647416D01*
X252926Y648249D01*
X253432Y649108D01*
X253894Y649992D01*
X254310Y650899D01*
X254680Y651825D01*
X255003Y652769D01*
X255277Y653727D01*
X255503Y654699D01*
X255679Y655681D01*
X255804Y656670D01*
X255880Y657664D01*
X255906Y658661D01*
X315268Y550449D02*
X315238Y551449D01*
X315148Y552447D01*
X314999Y553436D01*
X314791Y554416D01*
X314524Y555381D01*
X314201Y556328D01*
X313821Y557254D01*
X313387Y558156D01*
X312899Y559031D01*
X312360Y559874D01*
X311772Y560684D01*
X311136Y561458D01*
X310455Y562191D01*
X309732Y562883D01*
X308968Y563531D01*
X308167Y564131D01*
X307331Y564683D01*
X306464Y565183D01*
X305569Y565631D01*
X304648Y566024D01*
X303706Y566362D01*
X302745Y566643D01*
X301769Y566866D01*
X300781Y567030D01*
X299786Y567134D01*
X298786Y567179D01*
X297785Y567164D01*
X296786Y567089D01*
X295794Y566955D01*
X294812Y566761D01*
X293843Y566510D01*
X292891Y566200D01*
X291959Y565835D01*
X291051Y565414D01*
X290169Y564939D01*
X289318Y564413D01*
X288499Y563837D01*
X287716Y563213D01*
X286972Y562543D01*
X286270Y561830D01*
X285611Y561076D01*
X284999Y560284D01*
X284435Y559457D01*
X283921Y558597D01*
X283460Y557709D01*
X283053Y556794D01*
X282701Y555857D01*
X282406Y554900D01*
X282169Y553928D01*
X281990Y552943D01*
X281871Y551949D01*
X281811Y550949D01*
Y549948D01*
X281871Y548949D01*
X281990Y547955D01*
X282169Y546970D01*
X282406Y545997D01*
X282701Y545041D01*
X283053Y544103D01*
X283460Y543189D01*
X283921Y542300D01*
X284435Y541441D01*
X284999Y540614D01*
X285611Y539822D01*
X286270Y539068D01*
X286972Y538355D01*
X287716Y537685D01*
X288499Y537061D01*
X289318Y536484D01*
X290169Y535958D01*
X291051Y535484D01*
X291959Y535063D01*
X292891Y534697D01*
X293843Y534388D01*
X294812Y534136D01*
X295794Y533943D01*
X296786Y533808D01*
X297785Y533733D01*
X298786Y533718D01*
X299786Y533763D01*
X300781Y533868D01*
X301769Y534032D01*
X302745Y534255D01*
X303706Y534535D01*
X304648Y534873D01*
X305569Y535267D01*
X306464Y535714D01*
X307331Y536215D01*
X308167Y536766D01*
X308968Y537367D01*
X309732Y538014D01*
X310455Y538706D01*
X311136Y539440D01*
X311772Y540213D01*
X312360Y541023D01*
X312899Y541867D01*
X313387Y542741D01*
X313821Y543643D01*
X314201Y544569D01*
X314524Y545517D01*
X314791Y546482D01*
X314999Y547461D01*
X315148Y548451D01*
X315238Y549448D01*
X315268Y550449D01*
X308378Y491291D02*
X308353Y492288D01*
X308277Y493283D01*
X308151Y494272D01*
X307975Y495254D01*
X307750Y496225D01*
X307475Y497184D01*
X307153Y498128D01*
X306783Y499054D01*
X306366Y499961D01*
X305904Y500844D01*
X305399Y501704D01*
X304850Y502537D01*
X304259Y503341D01*
X303629Y504114D01*
X302960Y504854D01*
X302255Y505559D01*
X301515Y506227D01*
X300742Y506858D01*
X299938Y507448D01*
X299106Y507997D01*
X298246Y508503D01*
X297362Y508965D01*
X296456Y509381D01*
X295530Y509751D01*
X294586Y510074D01*
X293627Y510348D01*
X292655Y510573D01*
X291674Y510749D01*
X290684Y510875D01*
X289690Y510951D01*
X288693Y510976D01*
X287696Y510951D01*
X286701Y510875D01*
X285712Y510749D01*
X284730Y510573D01*
X283759Y510348D01*
X282800Y510074D01*
X281856Y509751D01*
X280930Y509381D01*
X280024Y508965D01*
X279140Y508503D01*
X278280Y507997D01*
X277447Y507448D01*
X276644Y506858D01*
X275871Y506227D01*
X275131Y505559D01*
X274425Y504854D01*
X273757Y504114D01*
X273126Y503341D01*
X272536Y502537D01*
X271987Y501704D01*
X271481Y500844D01*
X271020Y499960D01*
X270603Y499054D01*
X270233Y498128D01*
X269911Y497184D01*
X269636Y496225D01*
X269411Y495254D01*
X269235Y494272D01*
X269109Y493283D01*
X269033Y492288D01*
X269008Y491291D01*
X269033Y490294D01*
X269109Y489300D01*
X269235Y488310D01*
X269411Y487329D01*
X269636Y486357D01*
X269911Y485398D01*
X270233Y484454D01*
X270603Y483528D01*
X271020Y482622D01*
X271481Y481738D01*
X271987Y480879D01*
X272536Y480046D01*
X273127Y479242D01*
X273757Y478469D01*
X274425Y477729D01*
X275131Y477024D01*
X275871Y476355D01*
X276644Y475725D01*
X277448Y475135D01*
X278280Y474586D01*
X279140Y474080D01*
X280024Y473618D01*
X280930Y473202D01*
X281856Y472832D01*
X282800Y472509D01*
X283759Y472235D01*
X284730Y472009D01*
X285712Y471833D01*
X286701Y471707D01*
X287696Y471631D01*
X288693Y471606D01*
X289690Y471631D01*
X290685Y471707D01*
X291674Y471833D01*
X292655Y472009D01*
X293627Y472235D01*
X294586Y472509D01*
X295530Y472832D01*
X296456Y473202D01*
X297362Y473618D01*
X298246Y474080D01*
X299106Y474586D01*
X299938Y475135D01*
X300742Y475725D01*
X301515Y476355D01*
X302255Y477024D01*
X302960Y477729D01*
X303629Y478469D01*
X304259Y479242D01*
X304850Y480046D01*
X305399Y480879D01*
X305905Y481738D01*
X306366Y482622D01*
X306783Y483529D01*
X307153Y484455D01*
X307475Y485398D01*
X307750Y486357D01*
X307975Y487329D01*
X308151Y488310D01*
X308277Y489300D01*
X308353Y490294D01*
X308378Y491291D01*
X259842Y471654D02*
X259817Y472650D01*
X259741Y473645D01*
X259615Y474634D01*
X259440Y475616D01*
X259214Y476588D01*
X258940Y477547D01*
X258617Y478490D01*
X258247Y479416D01*
X257831Y480323D01*
X257369Y481207D01*
X256863Y482066D01*
X256314Y482899D01*
X255724Y483703D01*
X255094Y484476D01*
X254425Y485216D01*
X253720Y485921D01*
X252980Y486590D01*
X252207Y487220D01*
X251403Y487810D01*
X250570Y488359D01*
X249711Y488865D01*
X248827Y489327D01*
X247920Y489743D01*
X246994Y490113D01*
X246051Y490436D01*
X245092Y490710D01*
X244120Y490936D01*
X243138Y491112D01*
X242149Y491237D01*
X241155Y491313D01*
X240158Y491338D01*
X239160Y491313D01*
X238166Y491237D01*
X237177Y491112D01*
X236195Y490936D01*
X235223Y490710D01*
X234264Y490436D01*
X233321Y490113D01*
X232395Y489743D01*
X231488Y489327D01*
X230604Y488865D01*
X229745Y488359D01*
X228912Y487810D01*
X228108Y487220D01*
X227335Y486590D01*
X226595Y485921D01*
X225890Y485216D01*
X225221Y484476D01*
X224591Y483703D01*
X224001Y482899D01*
X223452Y482066D01*
X222946Y481207D01*
X222484Y480323D01*
X222068Y479416D01*
X221698Y478490D01*
X221375Y477546D01*
X221101Y476588D01*
X220875Y475616D01*
X220699Y474634D01*
X220573Y473645D01*
X220498Y472650D01*
X220472Y471653D01*
X220498Y470656D01*
X220573Y469662D01*
X220699Y468673D01*
X220875Y467691D01*
X221101Y466719D01*
X221375Y465761D01*
X221698Y464817D01*
X222068Y463891D01*
X222484Y462984D01*
X222946Y462100D01*
X223452Y461241D01*
X224001Y460408D01*
X224591Y459604D01*
X225221Y458831D01*
X225890Y458091D01*
X226595Y457386D01*
X227335Y456717D01*
X228108Y456087D01*
X228912Y455497D01*
X229745Y454948D01*
X230604Y454442D01*
X231488Y453980D01*
X232395Y453564D01*
X233321Y453194D01*
X234265Y452871D01*
X235223Y452597D01*
X236195Y452371D01*
X237177Y452195D01*
X238166Y452069D01*
X239160Y451994D01*
X240158Y451968D01*
X241155Y451994D01*
X242149Y452069D01*
X243138Y452196D01*
X244120Y452371D01*
X245092Y452597D01*
X246051Y452871D01*
X246994Y453194D01*
X247920Y453564D01*
X248827Y453980D01*
X249711Y454442D01*
X250570Y454948D01*
X251403Y455497D01*
X252207Y456087D01*
X252980Y456717D01*
X253720Y457386D01*
X254425Y458091D01*
X255094Y458831D01*
X255724Y459604D01*
X256314Y460408D01*
X256863Y461241D01*
X257369Y462100D01*
X257831Y462984D01*
X258247Y463891D01*
X258617Y464817D01*
X258940Y465761D01*
X259214Y466719D01*
X259440Y467691D01*
X259615Y468673D01*
X259741Y469662D01*
X259817Y470656D01*
X259842Y471654D01*
X429417Y547594D02*
X429387Y548595D01*
X429298Y549592D01*
X429148Y550582D01*
X428940Y551561D01*
X428674Y552526D01*
X428350Y553474D01*
X427971Y554400D01*
X427536Y555302D01*
X427049Y556176D01*
X426510Y557020D01*
X425921Y557830D01*
X425286Y558603D01*
X424605Y559337D01*
X423881Y560029D01*
X423117Y560676D01*
X422316Y561277D01*
X421481Y561828D01*
X420614Y562329D01*
X419719Y562777D01*
X418798Y563170D01*
X417856Y563508D01*
X416895Y563789D01*
X415919Y564011D01*
X414931Y564175D01*
X413935Y564280D01*
X412935Y564325D01*
X411934Y564310D01*
X410936Y564235D01*
X409944Y564101D01*
X408962Y563907D01*
X407993Y563655D01*
X407041Y563346D01*
X406109Y562980D01*
X405200Y562559D01*
X404319Y562085D01*
X403467Y561559D01*
X402649Y560983D01*
X401866Y560358D01*
X401122Y559688D01*
X400419Y558975D01*
X399761Y558221D01*
X399148Y557429D01*
X398584Y556602D01*
X398071Y555743D01*
X397610Y554854D01*
X397203Y553940D01*
X396851Y553003D01*
X396556Y552046D01*
X396318Y551073D01*
X396140Y550088D01*
X396020Y549094D01*
X395960Y548095D01*
Y547094D01*
X396020Y546095D01*
X396140Y545101D01*
X396318Y544116D01*
X396556Y543143D01*
X396851Y542186D01*
X397203Y541249D01*
X397610Y540335D01*
X398071Y539446D01*
X398584Y538587D01*
X399148Y537759D01*
X399761Y536968D01*
X400419Y536214D01*
X401122Y535500D01*
X401866Y534831D01*
X402649Y534206D01*
X403467Y533630D01*
X404319Y533104D01*
X405200Y532629D01*
X406109Y532209D01*
X407041Y531843D01*
X407993Y531533D01*
X408962Y531282D01*
X409944Y531088D01*
X410936Y530954D01*
X411934Y530879D01*
X412935Y530864D01*
X413936Y530909D01*
X414931Y531014D01*
X415919Y531178D01*
X416895Y531400D01*
X417856Y531681D01*
X418798Y532019D01*
X419719Y532412D01*
X420614Y532860D01*
X421481Y533361D01*
X422316Y533912D01*
X423117Y534513D01*
X423881Y535160D01*
X424605Y535852D01*
X425286Y536586D01*
X425921Y537359D01*
X426510Y538169D01*
X427049Y539012D01*
X427536Y539887D01*
X427971Y540789D01*
X428350Y541715D01*
X428674Y542662D01*
X428940Y543628D01*
X429148Y544607D01*
X429298Y545597D01*
X429387Y546594D01*
X429417Y547594D01*
X422528Y491937D02*
X422502Y492934D01*
X422427Y493928D01*
X422301Y494918D01*
X422125Y495899D01*
X421899Y496871D01*
X421625Y497830D01*
X421302Y498774D01*
X420932Y499700D01*
X420516Y500606D01*
X420054Y501490D01*
X419548Y502350D01*
X418999Y503182D01*
X418409Y503986D01*
X417779Y504759D01*
X417110Y505499D01*
X416405Y506205D01*
X415665Y506873D01*
X414892Y507503D01*
X414088Y508094D01*
X413255Y508642D01*
X412396Y509149D01*
X411512Y509610D01*
X410605Y510027D01*
X409679Y510397D01*
X408736Y510719D01*
X407777Y510994D01*
X406805Y511219D01*
X405823Y511395D01*
X404834Y511521D01*
X403840Y511597D01*
X402843Y511622D01*
X401846Y511597D01*
X400851Y511521D01*
X399862Y511395D01*
X398880Y511219D01*
X397908Y510994D01*
X396950Y510719D01*
X396006Y510397D01*
X395080Y510027D01*
X394173Y509610D01*
X393289Y509149D01*
X392430Y508642D01*
X391597Y508094D01*
X390793Y507503D01*
X390020Y506873D01*
X389280Y506205D01*
X388575Y505499D01*
X387906Y504759D01*
X387276Y503986D01*
X386686Y503182D01*
X386137Y502350D01*
X385631Y501490D01*
X385169Y500606D01*
X384753Y499700D01*
X384383Y498774D01*
X384060Y497830D01*
X383786Y496871D01*
X383560Y495899D01*
X383384Y494918D01*
X383259Y493928D01*
X383183Y492934D01*
X383157Y491937D01*
X383183Y490940D01*
X383259Y489945D01*
X383384Y488956D01*
X383560Y487974D01*
X383786Y487003D01*
X384060Y486044D01*
X384383Y485100D01*
X384753Y484174D01*
X385169Y483268D01*
X385631Y482384D01*
X386137Y481524D01*
X386686Y480691D01*
X387276Y479888D01*
X387906Y479115D01*
X388575Y478375D01*
X389280Y477669D01*
X390020Y477001D01*
X390793Y476370D01*
X391597Y475780D01*
X392430Y475231D01*
X393289Y474725D01*
X394173Y474264D01*
X395080Y473847D01*
X396006Y473477D01*
X396950Y473155D01*
X397908Y472880D01*
X398880Y472655D01*
X399862Y472479D01*
X400851Y472353D01*
X401846Y472277D01*
X402843Y472252D01*
X403840Y472277D01*
X404834Y472353D01*
X405824Y472479D01*
X406805Y472655D01*
X407777Y472880D01*
X408736Y473155D01*
X409679Y473477D01*
X410605Y473847D01*
X411512Y474264D01*
X412396Y474725D01*
X413255Y475231D01*
X414088Y475780D01*
X414892Y476370D01*
X415665Y477001D01*
X416405Y477669D01*
X417110Y478375D01*
X417779Y479115D01*
X418409Y479888D01*
X418999Y480692D01*
X419548Y481524D01*
X420054Y482384D01*
X420516Y483268D01*
X420932Y484174D01*
X421302Y485100D01*
X421625Y486044D01*
X421899Y487003D01*
X422125Y487975D01*
X422301Y488956D01*
X422427Y489946D01*
X422502Y490940D01*
X422528Y491937D01*
X372047Y471654D02*
X372022Y472650D01*
X371946Y473645D01*
X371820Y474634D01*
X371644Y475616D01*
X371419Y476588D01*
X371145Y477547D01*
X370822Y478490D01*
X370452Y479416D01*
X370036Y480323D01*
X369574Y481207D01*
X369068Y482066D01*
X368519Y482899D01*
X367929Y483703D01*
X367298Y484476D01*
X366630Y485216D01*
X365925Y485921D01*
X365184Y486590D01*
X364411Y487220D01*
X363608Y487810D01*
X362775Y488359D01*
X361915Y488865D01*
X361031Y489327D01*
X360125Y489743D01*
X359199Y490113D01*
X358255Y490436D01*
X357296Y490710D01*
X356325Y490936D01*
X355343Y491112D01*
X354354Y491237D01*
X353359Y491313D01*
X352362Y491338D01*
X351365Y491313D01*
X350371Y491237D01*
X349381Y491112D01*
X348400Y490936D01*
X347428Y490710D01*
X346469Y490436D01*
X345526Y490113D01*
X344599Y489743D01*
X343693Y489327D01*
X342809Y488865D01*
X341950Y488359D01*
X341117Y487810D01*
X340313Y487220D01*
X339540Y486590D01*
X338800Y485921D01*
X338095Y485216D01*
X337426Y484476D01*
X336796Y483703D01*
X336205Y482899D01*
X335657Y482066D01*
X335151Y481207D01*
X334689Y480323D01*
X334273Y479416D01*
X333903Y478490D01*
X333580Y477546D01*
X333306Y476588D01*
X333080Y475616D01*
X332904Y474634D01*
X332778Y473645D01*
X332702Y472650D01*
X332677Y471653D01*
X332702Y470656D01*
X332778Y469662D01*
X332904Y468673D01*
X333080Y467691D01*
X333306Y466719D01*
X333580Y465761D01*
X333903Y464817D01*
X334273Y463891D01*
X334689Y462984D01*
X335151Y462100D01*
X335657Y461241D01*
X336206Y460408D01*
X336796Y459604D01*
X337426Y458831D01*
X338095Y458091D01*
X338800Y457386D01*
X339540Y456717D01*
X340313Y456087D01*
X341117Y455497D01*
X341950Y454948D01*
X342809Y454442D01*
X343693Y453980D01*
X344599Y453564D01*
X345526Y453194D01*
X346469Y452871D01*
X347428Y452597D01*
X348400Y452371D01*
X349381Y452195D01*
X350371Y452069D01*
X351365Y451994D01*
X352362Y451968D01*
X353359Y451994D01*
X354354Y452069D01*
X355343Y452196D01*
X356325Y452371D01*
X357296Y452597D01*
X358255Y452871D01*
X359199Y453194D01*
X360125Y453564D01*
X361031Y453980D01*
X361915Y454442D01*
X362775Y454948D01*
X363608Y455497D01*
X364412Y456087D01*
X365184Y456717D01*
X365925Y457386D01*
X366630Y458091D01*
X367298Y458831D01*
X367929Y459604D01*
X368519Y460408D01*
X369068Y461241D01*
X369574Y462100D01*
X370036Y462984D01*
X370452Y463891D01*
X370822Y464817D01*
X371145Y465761D01*
X371419Y466719D01*
X371644Y467691D01*
X371820Y468673D01*
X371946Y469662D01*
X372022Y470656D01*
X372047Y471654D01*
X431102Y658661D02*
X431077Y659658D01*
X431001Y660653D01*
X430875Y661642D01*
X430699Y662624D01*
X430474Y663595D01*
X430200Y664554D01*
X429877Y665498D01*
X429507Y666424D01*
X429091Y667331D01*
X428629Y668215D01*
X428123Y669074D01*
X427574Y669907D01*
X426984Y670711D01*
X426354Y671484D01*
X425685Y672224D01*
X424980Y672929D01*
X424240Y673597D01*
X423467Y674228D01*
X422663Y674818D01*
X421830Y675367D01*
X420970Y675873D01*
X420086Y676335D01*
X419180Y676751D01*
X418254Y677121D01*
X417310Y677444D01*
X416351Y677718D01*
X415380Y677944D01*
X414398Y678119D01*
X413409Y678245D01*
X412414Y678321D01*
X411417Y678346D01*
X410420Y678321D01*
X409426Y678245D01*
X408436Y678119D01*
X407455Y677943D01*
X406483Y677718D01*
X405524Y677444D01*
X404581Y677121D01*
X403654Y676751D01*
X402748Y676335D01*
X401864Y675873D01*
X401005Y675367D01*
X400172Y674818D01*
X399368Y674228D01*
X398595Y673597D01*
X397855Y672929D01*
X397150Y672224D01*
X396481Y671484D01*
X395851Y670711D01*
X395261Y669907D01*
X394712Y669074D01*
X394206Y668215D01*
X393744Y667331D01*
X393328Y666424D01*
X392958Y665498D01*
X392635Y664554D01*
X392361Y663595D01*
X392135Y662624D01*
X391959Y661642D01*
X391833Y660653D01*
X391757Y659658D01*
X391732Y658661D01*
X391757Y657664D01*
X391833Y656670D01*
X391959Y655681D01*
X392135Y654699D01*
X392361Y653727D01*
X392635Y652768D01*
X392958Y651825D01*
X393328Y650898D01*
X393744Y649992D01*
X394206Y649108D01*
X394712Y648249D01*
X395261Y647416D01*
X395851Y646612D01*
X396481Y645839D01*
X397150Y645099D01*
X397855Y644394D01*
X398595Y643725D01*
X399368Y643095D01*
X400172Y642505D01*
X401005Y641956D01*
X401864Y641450D01*
X402748Y640988D01*
X403654Y640572D01*
X404581Y640202D01*
X405524Y639879D01*
X406483Y639605D01*
X407455Y639379D01*
X408436Y639203D01*
X409426Y639077D01*
X410420Y639002D01*
X411417Y638976D01*
X412414Y639002D01*
X413409Y639077D01*
X414398Y639203D01*
X415380Y639379D01*
X416352Y639605D01*
X417310Y639879D01*
X418254Y640202D01*
X419180Y640572D01*
X420087Y640988D01*
X420971Y641450D01*
X421830Y641956D01*
X422663Y642505D01*
X423467Y643095D01*
X424240Y643725D01*
X424980Y644394D01*
X425685Y645099D01*
X426354Y645839D01*
X426984Y646612D01*
X427574Y647416D01*
X428123Y648249D01*
X428629Y649108D01*
X429091Y649992D01*
X429507Y650899D01*
X429877Y651825D01*
X430200Y652769D01*
X430474Y653727D01*
X430699Y654699D01*
X430875Y655681D01*
X431001Y656670D01*
X431077Y657664D01*
X431102Y658661D01*
X375394Y686614D02*
X396260D01*
X375394Y697638D02*
X396260D01*
X375394Y686614D02*
Y697638D01*
X376102Y721929D02*
X396102D01*
X376102Y711929D02*
Y721929D01*
Y711929D02*
X396102D01*
Y721929D01*
X243276Y668504D02*
X247276D01*
X245276Y666504D02*
Y670504D01*
X298535Y480236D02*
Y484236D01*
X296535Y482236D02*
X300535D01*
X250000Y460598D02*
Y464598D01*
X248000Y462598D02*
X252000D01*
X412685Y480882D02*
Y484882D01*
X410685Y482882D02*
X414685D01*
X362205Y460598D02*
Y464598D01*
X360205Y462598D02*
X364205D01*
X413779Y585236D02*
Y606102D01*
X424803Y585236D02*
Y606102D01*
X413779D02*
X424803D01*
X293701Y614764D02*
Y635630D01*
X304724Y614764D02*
Y635630D01*
X293701D02*
X304724D01*
X257283Y691732D02*
X278150D01*
X257283Y680709D02*
X278150D01*
Y691732D01*
X418472Y668504D02*
X422472D01*
X420472Y666504D02*
Y670504D01*
X263189Y450591D02*
X274213D01*
X274213Y439567D02*
Y450591D01*
X263189Y439567D02*
X274213D01*
X263189Y439567D02*
Y450591D01*
X287303D02*
X298327D01*
X298327Y439567D02*
Y450591D01*
X287303Y439567D02*
X298327D01*
X287303Y439567D02*
Y450591D01*
X311417D02*
X322441D01*
X322441Y439567D02*
Y450591D01*
X311417Y439567D02*
X322441D01*
X311417Y439567D02*
Y450591D01*
X256035Y543291D02*
Y548014D01*
X258397D01*
X259184Y547227D01*
Y545653D01*
X258397Y544866D01*
X256035D01*
X257610D02*
X259184Y543291D01*
X263120D02*
Y548014D01*
X260758Y545653D01*
X263907D01*
D31*
X259713Y598809D02*
X260065Y597961D01*
X260913Y597609D01*
X261762Y597961D01*
X262113Y598809D01*
X372363Y596955D02*
X372714Y596106D01*
X373563Y595755D01*
X374412Y596106D01*
X374763Y596955D01*
X255313Y598809D02*
X259713D01*
X262113D01*
X266513D01*
X255313Y579009D02*
X266513D01*
X367963Y596955D02*
X372363D01*
X374763D01*
X379163D01*
X367963Y577155D02*
X379163D01*
D32*
X269193Y453150D02*
X268455Y453576D01*
Y452723D01*
X269193Y453150D01*
X293307D02*
X292569Y453576D01*
Y452723D01*
X293307Y453150D01*
X317421D02*
X316683Y453576D01*
Y452723D01*
X317421Y453150D01*
D33*
X363591Y529528D02*
X378740D01*
X324803D02*
X339952D01*
X324803Y501181D02*
Y529528D01*
X331102Y494882D02*
X378740D01*
X211170Y495236D02*
Y531546D01*
X265591D01*
Y495236D02*
Y531546D01*
X211170Y495236D02*
X265591D01*
X339952Y529528D02*
X363591D01*
X378740Y494882D02*
Y529528D01*
D34*
X394685Y343543D02*
X431850D01*
X431929Y343465D02*
Y423543D01*
X394685D02*
X431929D01*
X394685Y343543D02*
Y423543D01*
X349902Y343543D02*
X387067D01*
X387146Y343465D02*
Y423543D01*
X349902D02*
X387146D01*
X349902Y343543D02*
Y423543D01*
X305118Y343543D02*
X342284D01*
X342362Y343465D02*
Y423543D01*
X305118D02*
X342362D01*
X305118Y343543D02*
Y423543D01*
X260335Y343543D02*
X297500D01*
X297579Y343465D02*
Y423543D01*
X260335D02*
X297579D01*
X260335Y343543D02*
Y423543D01*
X215551Y343543D02*
X252716D01*
X252795Y343465D02*
Y423543D01*
X215551D02*
X252795D01*
X215551Y343543D02*
Y423543D01*
X400685Y574673D02*
Y577626D01*
Y581563D02*
Y584516D01*
X393795Y577626D02*
X407575D01*
X393795Y581563D02*
X407575D01*
X374016Y651772D02*
Y654724D01*
Y658661D02*
Y661614D01*
X367126Y654724D02*
X380906D01*
X367126Y658661D02*
X380906D01*
X233035Y583602D02*
Y586555D01*
Y576713D02*
Y579665D01*
X226146Y583602D02*
X239925D01*
X226146Y579665D02*
X239925D01*
X289535Y576528D02*
Y579480D01*
Y583417D02*
Y586370D01*
X282646Y579480D02*
X296425D01*
X282646Y583417D02*
X296425D01*
X229035Y548602D02*
Y551555D01*
Y541713D02*
Y544665D01*
X222146Y548602D02*
X235925D01*
X222146Y544665D02*
X235925D01*
X390307Y622937D02*
X393260D01*
X371606D02*
X374559D01*
Y626874D02*
X390307D01*
Y619000D02*
Y626874D01*
X374559Y619000D02*
X390307D01*
X374559D02*
Y626874D01*
X277658Y626291D02*
X280610D01*
X258957D02*
X261909D01*
Y630228D02*
X277658D01*
Y622354D02*
Y630228D01*
X261909Y622354D02*
X277658D01*
X261909D02*
Y630228D01*
X248961Y545791D02*
X251913D01*
X267661D02*
X270614D01*
X251913Y541854D02*
X267661D01*
X251913D02*
Y549728D01*
X267661D01*
Y541854D02*
Y549728D01*
X267657Y557291D02*
X270610D01*
X248957D02*
X251909D01*
Y561228D02*
X267657D01*
Y553354D02*
Y561228D01*
X251909Y553354D02*
X267657D01*
X251909D02*
Y561228D01*
X248961Y568291D02*
X251913D01*
X267661D02*
X270614D01*
X251913Y564354D02*
X267661D01*
X251913D02*
Y572228D01*
X267661D01*
Y564354D02*
Y572228D01*
X265846Y612291D02*
X268799D01*
X258957D02*
X261909D01*
X265846Y605402D02*
Y619181D01*
X261909Y605402D02*
Y619181D01*
X290846Y522291D02*
X293799D01*
X283957D02*
X286909D01*
X290846Y515402D02*
Y529181D01*
X286909Y515402D02*
Y529181D01*
X378496Y608437D02*
X381449D01*
X371606D02*
X374559D01*
X378496Y601547D02*
Y615327D01*
X374559Y601547D02*
Y615327D01*
X346185Y581748D02*
Y584701D01*
Y574858D02*
Y577811D01*
X339295Y581748D02*
X353075D01*
X339295Y577811D02*
X353075D01*
X362610Y566937D02*
X365563D01*
X381311D02*
X384264D01*
X365563Y563000D02*
X381311D01*
X365563D02*
Y570874D01*
X381311D01*
Y563000D02*
Y570874D01*
X381307Y555937D02*
X384260D01*
X362606D02*
X365559D01*
Y559874D02*
X381307D01*
Y552000D02*
Y559874D01*
X365559Y552000D02*
X381307D01*
X365559D02*
Y559874D01*
X362610Y544937D02*
X365563D01*
X381311D02*
X384264D01*
X365563Y541000D02*
X381311D01*
X365563D02*
Y548874D01*
X381311D01*
Y541000D02*
Y548874D01*
X342185Y546748D02*
Y549701D01*
Y539858D02*
Y542811D01*
X335295Y546748D02*
X349075D01*
X335295Y542811D02*
X349075D01*
X404996Y521437D02*
X407949D01*
X398106D02*
X401059D01*
X404996Y514547D02*
Y528327D01*
X401059Y514547D02*
Y528327D01*
X275590Y651772D02*
Y654724D01*
Y658661D02*
Y661614D01*
X268701Y654724D02*
X282480D01*
X268701Y658661D02*
X282480D01*
X221093Y686734D02*
X220093Y687734D01*
X218094D01*
X217094Y686734D01*
Y682736D01*
X218094Y681736D01*
X220093D01*
X221093Y682736D01*
X223093Y681736D02*
X225092D01*
X224092D01*
Y687734D01*
X223093Y686734D01*
X263841Y673502D02*
X262842Y674502D01*
X260842D01*
X259842Y673502D01*
Y669504D01*
X260842Y668504D01*
X262842D01*
X263841Y669504D01*
X269839Y668504D02*
X265841D01*
X269839Y672503D01*
Y673502D01*
X268840Y674502D01*
X266840D01*
X265841Y673502D01*
X242534Y617790D02*
X241534Y618789D01*
X239535D01*
X238535Y617790D01*
Y613791D01*
X239535Y612791D01*
X241534D01*
X242534Y613791D01*
X244533Y617790D02*
X245533Y618789D01*
X247533D01*
X248532Y617790D01*
Y616790D01*
X247533Y615790D01*
X246533D01*
X247533D01*
X248532Y614791D01*
Y613791D01*
X247533Y612791D01*
X245533D01*
X244533Y613791D01*
X226334Y602790D02*
X225335Y603789D01*
X223335D01*
X222335Y602790D01*
Y598791D01*
X223335Y597791D01*
X225335D01*
X226334Y598791D01*
X231332Y597791D02*
Y603789D01*
X228333Y600790D01*
X232332D01*
X283134Y602690D02*
X282135Y603689D01*
X280135D01*
X279135Y602690D01*
Y598691D01*
X280135Y597691D01*
X282135D01*
X283134Y598691D01*
X289132Y603689D02*
X285134D01*
Y600690D01*
X287133Y601690D01*
X288133D01*
X289132Y600690D01*
Y598691D01*
X288133Y597691D01*
X286133D01*
X285134Y598691D01*
X221534Y566293D02*
X222533Y567292D01*
Y569292D01*
X221534Y570291D01*
X217535D01*
X216535Y569292D01*
Y567292D01*
X217535Y566293D01*
X222533Y560294D02*
X221534Y562294D01*
X219534Y564293D01*
X217535D01*
X216535Y563294D01*
Y561294D01*
X217535Y560294D01*
X218535D01*
X219534Y561294D01*
Y564293D01*
X288034Y504290D02*
X287035Y505289D01*
X285035D01*
X284035Y504290D01*
Y500291D01*
X285035Y499291D01*
X287035D01*
X288034Y500291D01*
X290034Y505289D02*
X294032D01*
Y504290D01*
X290034Y500291D01*
Y499291D01*
X238999Y485152D02*
X237999Y486152D01*
X236000D01*
X235000Y485152D01*
Y481153D01*
X236000Y480154D01*
X237999D01*
X238999Y481153D01*
X240998Y485152D02*
X241998Y486152D01*
X243997D01*
X244997Y485152D01*
Y484152D01*
X243997Y483152D01*
X244997Y482153D01*
Y481153D01*
X243997Y480154D01*
X241998D01*
X240998Y481153D01*
Y482153D01*
X241998Y483152D01*
X240998Y484152D01*
Y485152D01*
X241998Y483152D02*
X243997D01*
X309034Y529790D02*
X308034Y530789D01*
X306035D01*
X305035Y529790D01*
Y525791D01*
X306035Y524791D01*
X308034D01*
X309034Y525791D01*
X311034D02*
X312033Y524791D01*
X314033D01*
X315032Y525791D01*
Y529790D01*
X314033Y530789D01*
X312033D01*
X311034Y529790D01*
Y528790D01*
X312033Y527790D01*
X315032D01*
X421321Y685313D02*
X420322Y686313D01*
X418323D01*
X417323Y685313D01*
Y681315D01*
X418323Y680315D01*
X420322D01*
X421321Y681315D01*
X423321Y680315D02*
X425320D01*
X424321D01*
Y686313D01*
X423321Y685313D01*
X428319D02*
X429319Y686313D01*
X431318D01*
X432318Y685313D01*
Y681315D01*
X431318Y680315D01*
X429319D01*
X428319Y681315D01*
Y685313D01*
X371641Y677886D02*
X370642Y678886D01*
X368642D01*
X367642Y677886D01*
Y673888D01*
X368642Y672888D01*
X370642D01*
X371641Y673888D01*
X373641Y672888D02*
X375640D01*
X374640D01*
Y678886D01*
X373641Y677886D01*
X378639Y672888D02*
X380638D01*
X379639D01*
Y678886D01*
X378639Y677886D01*
X351184Y618935D02*
X350184Y619935D01*
X348185D01*
X347185Y618935D01*
Y614937D01*
X348185Y613937D01*
X350184D01*
X351184Y614937D01*
X353183Y613937D02*
X355183D01*
X354183D01*
Y619935D01*
X353183Y618935D01*
X362180Y613937D02*
X358182D01*
X362180Y617936D01*
Y618935D01*
X361180Y619935D01*
X359181D01*
X358182Y618935D01*
X331684Y598935D02*
X330684Y599935D01*
X328685D01*
X327685Y598935D01*
Y594937D01*
X328685Y593937D01*
X330684D01*
X331684Y594937D01*
X333683Y593937D02*
X335683D01*
X334683D01*
Y599935D01*
X333683Y598935D01*
X338682D02*
X339681Y599935D01*
X341681D01*
X342680Y598935D01*
Y597936D01*
X341681Y596936D01*
X340681D01*
X341681D01*
X342680Y595936D01*
Y594937D01*
X341681Y593937D01*
X339681D01*
X338682Y594937D01*
X398284Y600835D02*
X397284Y601835D01*
X395285D01*
X394285Y600835D01*
Y596837D01*
X395285Y595837D01*
X397284D01*
X398284Y596837D01*
X400283Y595837D02*
X402282D01*
X401283D01*
Y601835D01*
X400283Y600835D01*
X408281Y595837D02*
Y601835D01*
X405281Y598836D01*
X409280D01*
X323684Y559329D02*
X322684Y560329D01*
X320685D01*
X319685Y559329D01*
Y555330D01*
X320685Y554331D01*
X322684D01*
X323684Y555330D01*
X325683Y554331D02*
X327682D01*
X326683D01*
Y560329D01*
X325683Y559329D01*
X334680Y560329D02*
X330681D01*
Y557330D01*
X332681Y558329D01*
X333681D01*
X334680Y557330D01*
Y555330D01*
X333681Y554331D01*
X331681D01*
X330681Y555330D01*
X399684Y504935D02*
X398684Y505935D01*
X396685D01*
X395685Y504935D01*
Y500937D01*
X396685Y499937D01*
X398684D01*
X399684Y500937D01*
X401683Y499937D02*
X403683D01*
X402683D01*
Y505935D01*
X401683Y504935D01*
X410680Y505935D02*
X408681Y504935D01*
X406681Y502936D01*
Y500937D01*
X407681Y499937D01*
X409681D01*
X410680Y500937D01*
Y501936D01*
X409681Y502936D01*
X406681D01*
X349203Y484652D02*
X348204Y485652D01*
X346204D01*
X345205Y484652D01*
Y480653D01*
X346204Y479654D01*
X348204D01*
X349203Y480653D01*
X351203Y479654D02*
X353202D01*
X352203D01*
Y485652D01*
X351203Y484652D01*
X356201Y485652D02*
X360200D01*
Y484652D01*
X356201Y480653D01*
Y479654D01*
X425184Y526435D02*
X424184Y527435D01*
X422185D01*
X421185Y526435D01*
Y522437D01*
X422185Y521437D01*
X424184D01*
X425184Y522437D01*
X427183Y521437D02*
X429182D01*
X428183D01*
Y527435D01*
X427183Y526435D01*
X432182D02*
X433181Y527435D01*
X435181D01*
X436180Y526435D01*
Y525436D01*
X435181Y524436D01*
X436180Y523436D01*
Y522437D01*
X435181Y521437D01*
X433181D01*
X432182Y522437D01*
Y523436D01*
X433181Y524436D01*
X432182Y525436D01*
Y526435D01*
X433181Y524436D02*
X435181D01*
X264764Y689069D02*
Y683071D01*
X267763D01*
X268762Y684071D01*
Y688069D01*
X267763Y689069D01*
X264764D01*
X270762Y683071D02*
X272761D01*
X271761D01*
Y689069D01*
X270762Y688069D01*
X281496Y615447D02*
Y609449D01*
X284495D01*
X285495Y610448D01*
Y614447D01*
X284495Y615447D01*
X281496D01*
X291493Y609449D02*
X287494D01*
X291493Y613448D01*
Y614447D01*
X290493Y615447D01*
X288494D01*
X287494Y614447D01*
X361931Y707070D02*
Y701072D01*
X364931D01*
X365930Y702071D01*
Y706070D01*
X364931Y707070D01*
X361931D01*
X367930Y706070D02*
X368929Y707070D01*
X370929D01*
X371928Y706070D01*
Y705070D01*
X370929Y704071D01*
X369929D01*
X370929D01*
X371928Y703071D01*
Y702071D01*
X370929Y701072D01*
X368929D01*
X367930Y702071D01*
X401575Y617415D02*
Y611417D01*
X404574D01*
X405574Y612417D01*
Y616416D01*
X404574Y617415D01*
X401575D01*
X410572Y611417D02*
Y617415D01*
X407573Y614416D01*
X411572D01*
X301181Y554423D02*
Y548425D01*
X305180D01*
X307179D02*
X309178D01*
X308179D01*
Y554423D01*
X307179Y553424D01*
X415354Y552455D02*
Y546457D01*
X419353D01*
X425351D02*
X421352D01*
X425351Y550455D01*
Y551455D01*
X424351Y552455D01*
X422352D01*
X421352Y551455D01*
X376750Y725273D02*
Y731271D01*
X379749D01*
X380748Y730272D01*
Y728272D01*
X379749Y727273D01*
X376750D01*
X385747Y725273D02*
Y731271D01*
X382748Y728272D01*
X386746D01*
X215934Y535791D02*
Y539790D01*
X214934Y540789D01*
X212935D01*
X211935Y539790D01*
Y535791D01*
X212935Y534791D01*
X214934D01*
X213935Y536791D02*
X215934Y534791D01*
X214934D02*
X215934Y535791D01*
X217934Y534791D02*
X219933D01*
X218933D01*
Y540789D01*
X217934Y539790D01*
X324865Y535645D02*
Y539644D01*
X323865Y540644D01*
X321866D01*
X320866Y539644D01*
Y535645D01*
X321866Y534646D01*
X323865D01*
X322866Y536645D02*
X324865Y534646D01*
X323865D02*
X324865Y535645D01*
X330863Y534646D02*
X326864D01*
X330863Y538644D01*
Y539644D01*
X329863Y540644D01*
X327864D01*
X326864Y539644D01*
X248031Y434298D02*
X252030D01*
X250031Y436298D02*
Y432299D01*
X254030Y431299D02*
X256029D01*
X255029D01*
Y437297D01*
X254030Y436298D01*
X263027Y431299D02*
X259028D01*
X263027Y435298D01*
Y436298D01*
X262027Y437297D01*
X260028D01*
X259028Y436298D01*
X265026Y437297D02*
Y433298D01*
X267025Y431299D01*
X269025Y433298D01*
Y437297D01*
X315945Y434298D02*
X319944D01*
X321943Y431299D02*
X323942D01*
X322943D01*
Y437297D01*
X321943Y436298D01*
X330940Y431299D02*
X326941D01*
X330940Y435298D01*
Y436298D01*
X329940Y437297D01*
X327941D01*
X326941Y436298D01*
X332939Y437297D02*
Y433298D01*
X334939Y431299D01*
X336938Y433298D01*
Y437297D01*
X288447Y436298D02*
X287448Y437297D01*
X285449D01*
X284449Y436298D01*
Y432299D01*
X285449Y431299D01*
X287448D01*
X288447Y432299D01*
Y434298D01*
X286448D01*
X290447Y431299D02*
Y437297D01*
X294446Y431299D01*
Y437297D01*
X296445D02*
Y431299D01*
X299444D01*
X300444Y432299D01*
Y436298D01*
X299444Y437297D01*
X296445D01*
X241535Y606789D02*
Y601791D01*
X242535Y600791D01*
X244534D01*
X245534Y601791D01*
Y606789D01*
X247533Y600791D02*
X249533D01*
X248533D01*
Y606789D01*
X247533Y605790D01*
X351185Y605435D02*
Y600437D01*
X352185Y599437D01*
X354184D01*
X355184Y600437D01*
Y605435D01*
X361182Y599437D02*
X357183D01*
X361182Y603436D01*
Y604435D01*
X360182Y605435D01*
X358183D01*
X357183Y604435D01*
X251535Y633691D02*
Y639689D01*
X254535D01*
X255534Y638690D01*
Y636690D01*
X254535Y635691D01*
X251535D01*
X253535D02*
X255534Y633691D01*
X257534D02*
X259533D01*
X258533D01*
Y639689D01*
X257534Y638690D01*
X256693Y566142D02*
Y570078D01*
X258661D01*
X259317Y569421D01*
Y568110D01*
X258661Y567454D01*
X256693D01*
X258005D02*
X259317Y566142D01*
X263252D02*
X260629D01*
X263252Y568765D01*
Y569421D01*
X262597Y570078D01*
X261285D01*
X260629Y569421D01*
X256299Y555118D02*
Y559054D01*
X258267D01*
X258923Y558398D01*
Y557086D01*
X258267Y556430D01*
X256299D01*
X257611D02*
X258923Y555118D01*
X260235Y558398D02*
X260891Y559054D01*
X262203D01*
X262859Y558398D01*
Y557742D01*
X262203Y557086D01*
X261547D01*
X262203D01*
X262859Y556430D01*
Y555774D01*
X262203Y555118D01*
X260891D01*
X260235Y555774D01*
X364185Y630337D02*
Y636335D01*
X367184D01*
X368184Y635335D01*
Y633336D01*
X367184Y632336D01*
X364185D01*
X366184D02*
X368184Y630337D01*
X374182Y636335D02*
X370183D01*
Y633336D01*
X372182Y634336D01*
X373182D01*
X374182Y633336D01*
Y631337D01*
X373182Y630337D01*
X371183D01*
X370183Y631337D01*
X369685Y564437D02*
Y569160D01*
X372046D01*
X372834Y568373D01*
Y566798D01*
X372046Y566011D01*
X369685D01*
X371259D02*
X372834Y564437D01*
X377556Y569160D02*
X375982Y568373D01*
X374408Y566798D01*
Y565224D01*
X375195Y564437D01*
X376769D01*
X377556Y565224D01*
Y566011D01*
X376769Y566798D01*
X374408D01*
X369185Y553437D02*
Y558160D01*
X371547D01*
X372334Y557373D01*
Y555798D01*
X371547Y555011D01*
X369185D01*
X370759D02*
X372334Y553437D01*
X373908Y558160D02*
X377057D01*
Y557373D01*
X373908Y554224D01*
Y553437D01*
X369685Y542437D02*
Y547160D01*
X372046D01*
X372834Y546373D01*
Y544798D01*
X372046Y544011D01*
X369685D01*
X371259D02*
X372834Y542437D01*
X374408Y546373D02*
X375195Y547160D01*
X376769D01*
X377556Y546373D01*
Y545585D01*
X376769Y544798D01*
X377556Y544011D01*
Y543224D01*
X376769Y542437D01*
X375195D01*
X374408Y543224D01*
Y544011D01*
X375195Y544798D01*
X374408Y545585D01*
Y546373D01*
X375195Y544798D02*
X376769D01*
X229331Y413386D02*
Y419384D01*
X232330D01*
X233329Y418384D01*
Y416385D01*
X232330Y415385D01*
X229331D01*
X235329Y413386D02*
X237328D01*
X236329D01*
Y419384D01*
X235329Y418384D01*
X274114Y413386D02*
Y419384D01*
X277113D01*
X278113Y418384D01*
Y416385D01*
X277113Y415385D01*
X274114D01*
X284111Y413386D02*
X280112D01*
X284111Y417384D01*
Y418384D01*
X283111Y419384D01*
X281112D01*
X280112Y418384D01*
X318898Y413386D02*
Y419384D01*
X321897D01*
X322896Y418384D01*
Y416385D01*
X321897Y415385D01*
X318898D01*
X324896Y418384D02*
X325895Y419384D01*
X327895D01*
X328894Y418384D01*
Y417384D01*
X327895Y416385D01*
X326895D01*
X327895D01*
X328894Y415385D01*
Y414386D01*
X327895Y413386D01*
X325895D01*
X324896Y414386D01*
X363681Y413386D02*
Y419384D01*
X366680D01*
X367680Y418384D01*
Y416385D01*
X366680Y415385D01*
X363681D01*
X373678Y419384D02*
X369679D01*
Y416385D01*
X371678Y417384D01*
X372678D01*
X373678Y416385D01*
Y414386D01*
X372678Y413386D01*
X370679D01*
X369679Y414386D01*
X408465Y413386D02*
Y419384D01*
X411464D01*
X412463Y418384D01*
Y416385D01*
X411464Y415385D01*
X408465D01*
X418461Y419384D02*
X416462Y418384D01*
X414463Y416385D01*
Y414386D01*
X415462Y413386D01*
X417462D01*
X418461Y414386D01*
Y415385D01*
X417462Y416385D01*
X414463D01*
D35*
X395079Y692126D02*
D03*
X258465Y686221D02*
D03*
D36*
X419290Y586422D02*
D03*
X299211Y615950D02*
D03*
M02*
