M48
;Layer_Color=9474304
;FILE_FORMAT=2:5
INCH,TZ
;TYPE=PLATED
T1F00S00C0.02362
T2F00S00C0.02756
T3F00S00C0.03150
T4F00S00C0.03543
T5F00S00C0.04331
T6F00S00C0.04724
T7F00S00C0.08661
T8F00S00C0.09843
T9F00S00C0.11811
T10F00S00C0.13780
;TYPE=NON_PLATED
T11F00S00C0.13780
%
T01
X265748Y314961
X285433
X305118
Y334646
X285433
X265748
X324803
X344488
X364173
X383858
Y314961
X364173
X344488
X324803
X354331Y442913
X374016
X393701
X413386
Y462598
X393701
X384842Y514961
X374016Y535630
X355315Y576968
X314961Y570866
Y590551
Y610236
X334646
X271654Y528740
Y514961
X259842Y536614
X265748Y698819
X285433
Y718504
Y738189
X265748
Y718504
X246063
Y698819
X226378
Y718504
X314961Y629921
X334646
T02
X324016Y461811
Y471654
Y486220
Y496063
T03
X342520Y471654
X362205
X393000Y491937
X412685
X412870Y521437
X412685Y537752
Y557437
X400685Y569752
X389185Y566937
X389181Y555937
X389185Y544937
X393185Y521437
X357689Y544937
X357685Y555937
X357689Y566937
X346185Y569937
X342185Y554622
Y534937
X346185Y589622
X366685Y608437
Y622937
X398181
X386370Y608437
X400685Y589437
X289535Y591291
Y571606
X275535Y568291
X275532Y557291
X275535Y545791
X279035Y522291
X298721
X298535Y540606
Y560291
X244035Y557291
X244039Y568291
X233035Y571791
X229035Y556476
Y536791
X244039Y545791
X233035Y591476
X254035Y612291
X273721
X278850Y491291
X298535
X250000Y471654
X230315
X254035Y626291
X285531
X275590Y646850
Y666535
X236221Y668504
Y648819
X374016Y646850
Y666535
X411417Y668504
Y648819
T04
X268701Y445079
X292815
X316929
X381102Y716929
X391102
T05
X229331Y363543
X239331
Y373543
X229331
Y383543
X239331
Y393543
X229331
Y403543
X239331
X274114
Y393543
Y383543
Y373543
Y363543
X284114
Y373543
Y383543
Y393543
Y403543
X318898
Y393543
Y383543
Y373543
Y363543
X328898
Y373543
Y383543
Y393543
Y403543
X363681
Y393543
Y383543
Y373543
Y363543
X373681
Y373543
Y383543
Y393543
Y403543
X408465
Y393543
Y383543
Y373543
Y363543
X418465
Y373543
Y383543
Y393543
Y403543
T06
X419291Y575079
Y616260
X299213Y604606
Y645787
X288307Y686220
X247126
X365236Y692126
X406417
T07
X324803Y661417
Y679921
Y698425
T08
X338583Y748819
T09
X324803Y752756
T10
X324803Y728346
T11
X230315Y325787
X417323
X232283Y749016
X415158
M30
